<svg width="70" height="70" viewBox="0 0 70 70" fill="none" xmlns="http://www.w3.org/2000/svg">
<path d="M39.263 52.99C39.236 52.9974 39.2132 53.0152 39.1994 53.0395C39.1856 53.0638 39.182 53.0926 39.1895 53.1195C39.1969 53.1464 39.2147 53.1693 39.239 53.183C39.2633 53.1968 39.292 53.2004 39.319 53.193C40.2034 52.9993 41.0326 52.608 41.7445 52.0485C44.45 50.05 44.31 47.215 45.85 44.6215C47.082 42.644 48.1635 42.8715 48.0795 42.616C48.0763 42.6059 48.0712 42.5965 48.0643 42.5885C48.0574 42.5805 48.0489 42.574 48.0394 42.5694C48.0299 42.5648 48.0195 42.5622 48.0089 42.5618C47.9984 42.5614 47.9878 42.5631 47.978 42.567C43.134 44.3485 45.871 50.701 39.263 52.99ZM58.8665 46.767C59.003 46.6235 59.1395 46.473 59.2725 46.3225C60.3015 45.073 61.0225 43.1375 60.9525 41.713C60.9507 41.6976 60.9447 41.683 60.9352 41.6709C60.9257 41.6587 60.913 41.6494 60.8985 41.6439C60.884 41.6385 60.8683 41.6372 60.8532 41.6401C60.838 41.643 60.8239 41.6501 60.8125 41.6605C60.7075 41.762 61.0015 42.322 60.263 44.086C59.563 45.759 58.9505 46.186 58.261 46.9665C57.6432 47.6797 57.1738 48.5087 56.8799 49.4053C56.5861 50.3019 56.4737 51.248 56.5495 52.1885C56.5535 52.2083 56.5642 52.226 56.5798 52.2388C56.5955 52.2516 56.615 52.2586 56.6352 52.2586C56.6554 52.2586 56.675 52.2516 56.6906 52.2388C56.7062 52.226 56.7169 52.2083 56.721 52.1885C56.697 51.1871 56.8745 50.1912 57.2431 49.2598C57.6117 48.3285 58.1637 47.4807 58.8665 46.767ZM28.1365 31.654C28.4865 31.4125 28.462 30.674 28.1365 30.401C28.0444 30.3267 27.9371 30.2736 27.8222 30.2455C27.7073 30.2174 27.5876 30.2149 27.4717 30.2383C27.3557 30.2617 27.2464 30.3103 27.1513 30.3808C27.0563 30.4513 26.978 30.5418 26.922 30.646C26.857 30.8088 26.8453 30.988 26.8885 31.1579C26.9318 31.3278 27.0277 31.4797 27.1626 31.5916C27.2976 31.7036 27.4645 31.7699 27.6394 31.7811C27.8144 31.7923 27.9884 31.7478 28.1365 31.654ZM27.174 30.8525C27.279 30.4535 27.9685 30.3975 28.0735 30.7965C28.1435 31.0695 28.112 31.262 27.972 31.367C27.8878 31.4193 27.7921 31.4502 27.6933 31.4569C27.5944 31.4636 27.4954 31.4459 27.405 31.4055C27.3103 31.3523 27.2361 31.269 27.1942 31.1688C27.1523 31.0686 27.1452 30.9572 27.174 30.8525ZM40.096 25.179C40.0825 25.178 40.069 25.1798 40.0563 25.1843C40.0436 25.1888 40.032 25.1959 40.0221 25.2051C40.0122 25.2143 40.0044 25.2254 39.999 25.2378C39.9937 25.2502 39.9909 25.2635 39.991 25.277C39.991 25.627 39.3995 25.977 39.291 26.012C39.2701 26.0171 39.2521 26.0303 39.2409 26.0487C39.2298 26.067 39.2264 26.0891 39.2315 26.11C39.2366 26.1309 39.2498 26.1489 39.2681 26.16C39.2865 26.1712 39.3086 26.1746 39.3295 26.1695C40.25 25.9805 40.39 25.172 40.096 25.179ZM38.8675 24.6435C38.8255 24.619 38.64 24.4825 38.5735 24.43C38.5735 24.3845 38.738 23.8 38.7695 23.688C38.801 23.576 38.6575 23.548 38.619 23.639C38.4725 23.9227 38.3553 24.2206 38.269 24.528C38.297 24.6295 38.7835 24.7625 38.8185 24.7625C38.833 24.7645 38.8479 24.7616 38.8606 24.7542C38.8734 24.7469 38.8833 24.7355 38.8889 24.7219C38.8945 24.7083 38.8955 24.6932 38.8916 24.679C38.8877 24.6648 38.8792 24.6523 38.8675 24.6435ZM37.7125 22.7675C37.7074 22.7372 37.6918 22.7097 37.6684 22.6899C37.6451 22.6701 37.6154 22.6592 37.5847 22.6592C37.554 22.6592 37.5244 22.6701 37.501 22.6899C37.4776 22.7097 37.462 22.7372 37.457 22.7675C37.4436 23.0088 37.4436 23.2507 37.457 23.492C37.4789 23.5279 37.5122 23.5554 37.5515 23.5702C37.5908 23.5851 37.634 23.5864 37.6742 23.5739C37.7144 23.5615 37.7492 23.536 37.7733 23.5015C37.7973 23.467 37.8092 23.4255 37.807 23.3835C37.7585 23.1811 37.7269 22.9751 37.7125 22.7675ZM40.159 23.38C40.1141 23.1793 40.0825 22.9758 40.0645 22.771C40.0645 22.7366 40.0508 22.7037 40.0265 22.6794C40.0022 22.6551 39.9693 22.6415 39.935 22.6415C39.9006 22.6415 39.8677 22.6551 39.8434 22.6794C39.8191 22.7037 39.8055 22.7366 39.8055 22.771C39.7928 23.0041 39.7928 23.2378 39.8055 23.471C39.8074 23.4981 39.8153 23.5244 39.8286 23.5481C39.8418 23.5718 39.8601 23.5923 39.8822 23.6082C39.9043 23.6241 39.9295 23.6349 39.9562 23.6399C39.9829 23.6449 40.0104 23.644 40.0367 23.6372C40.063 23.6305 40.0875 23.618 40.1085 23.6007C40.1295 23.5834 40.1464 23.5617 40.158 23.5372C40.1697 23.5127 40.1758 23.4859 40.176 23.4587C40.1761 23.4315 40.1703 23.4047 40.159 23.38Z" fill="black"/>
<path d="M67.55 18.613C67.5255 16.4325 66.794 15.5715 64.5365 15.638C63.8925 15.638 52.409 15.7535 51.5865 15.7815C51.0351 15.7817 50.4895 15.8948 49.9835 16.114C49.693 16.2295 48.174 16.989 48.006 17.3915C47.824 17.6785 48.0375 25.8545 48.006 27.5415C47.7628 27.4031 47.5129 27.2769 47.257 27.1635C47.2108 26.9336 47.1126 26.7173 46.9701 26.5311C46.8276 26.3449 46.6444 26.1937 46.4345 26.089C46.1125 25.963 45.6995 26.1135 45.4615 25.886C45.2235 25.6585 45.6505 25.536 45.696 25.186C45.6946 24.9433 45.6664 24.7016 45.612 24.465C45.401 23.1963 45.1064 21.9429 44.73 20.713C44.415 19.7015 44.086 18.844 43.1795 18.2945C43.1795 16.5935 43.008 6.62554 42.9135 6.09704C42.8203 5.57545 42.5422 5.10496 42.13 4.77193C41.7179 4.4389 41.1995 4.26567 40.67 4.28404C40.635 4.28404 16.548 4.28404 16.52 4.31204C15.5575 4.88604 15.2985 6.16704 15.2355 7.11204C15.2145 7.58454 15.6275 17.1255 15.792 20.1565C14.0875 20.1915 5.47751 20.4225 4.98401 20.685C3.86751 20.958 2.63201 21.735 2.39051 22.9985C2.24001 23.8105 2.54451 39.41 2.64601 40.1485C2.7187 40.9462 3.07512 41.6913 3.65051 42.2485C4.27701 42.798 5.13101 42.8995 5.88351 42.9275L21.854 42.6265C20.293 46.1615 18.494 51.1735 17.304 54.292C17.2984 54.3009 17.2955 54.3113 17.2955 54.3218C17.2955 54.3323 17.2984 54.3426 17.304 54.3515C17.6261 54.6679 17.9777 54.9527 18.354 55.202C17.7835 57.1515 17.8465 57.26 17.7205 57.4175C16.639 58.744 15.3335 59.5175 14.0455 59.6435C13.447 59.71 12.8555 59.815 12.6455 60.396C12.474 60.9245 12.929 61.278 13.461 61.425C13.811 61.5195 16.198 62.048 16.5515 62.09C16.8648 62.1426 17.1861 62.071 17.4475 61.8905C17.6995 61.705 18.529 60.725 18.8475 60.431C18.27 63.231 17.8675 62.3385 19.243 62.937C19.2622 62.9473 19.2835 62.9531 19.3052 62.9542C19.3269 62.9552 19.3486 62.9514 19.3687 62.943C19.3888 62.9347 19.4068 62.9219 19.4214 62.9058C19.436 62.8896 19.4468 62.8704 19.453 62.8495C19.698 62.1495 21.357 58.149 22.0325 57.1095C22.197 61.3375 22.169 61.117 22.2285 61.1345C22.463 61.194 22.7185 61.25 22.981 61.3025C22.981 61.8905 22.9985 62.4925 23.0475 63.1505C23.0475 63.1715 23.0195 63.2065 22.9915 63.2625C22.1235 65.1665 21.1505 65.9435 20.0935 66.4125C19.6245 66.6225 18.977 66.9095 18.9945 67.557C18.9945 68.117 19.5685 68.2955 20.125 68.2745C20.9615 68.2465 22.043 68.1345 22.533 68.11C23.933 68.026 23.968 67.76 24.563 66.5595C24.6995 66.283 24.8605 65.954 24.9515 65.793C25.116 67.76 24.899 68.0505 25.1685 68.0365C25.9 67.998 26.2185 68.1975 26.2185 67.935C26.2465 67.214 26.5685 64.379 26.7365 63.6825C26.7365 63.602 26.6805 63.5565 26.5965 63.539C26.7015 62.888 26.9465 61.607 26.978 61.3725C27.153 61.348 27.328 61.32 27.4645 61.2885C27.503 61.2885 27.4645 61.474 28.056 59.0345C32.305 60.711 36.8375 61.1135 40.9045 60.158C41.048 60.7145 42.0875 64.5085 42.6545 66.171C42.8477 66.7142 43.105 67.2323 43.421 67.7145C43.5015 67.7915 43.638 67.928 43.771 67.928C43.904 67.928 44.051 67.7425 44.086 67.5535C44.121 67.3645 43.5715 61.845 43.386 59.8535C44.2176 59.6475 45.0239 59.3506 45.7905 58.968L46.9245 62.734C46.9577 62.7901 47.0077 62.8344 47.0674 62.8606C47.1271 62.8869 47.1935 62.8937 47.2572 62.8801C47.321 62.8666 47.3789 62.8334 47.4229 62.7852C47.4668 62.737 47.4945 62.6763 47.502 62.6115L47.3935 58.1C47.9234 57.7547 48.4308 57.3759 48.9125 56.966C49.1313 57.1775 49.3773 57.3587 49.644 57.505C49.6714 57.5202 49.7037 57.5239 49.7339 57.5154C49.764 57.5068 49.7896 57.4868 49.805 57.4595C50.0961 57.0194 50.4227 56.6039 50.7815 56.217C50.7115 56.6685 50.575 57.5925 50.5575 57.8795C50.557 57.8981 50.5603 57.9165 50.5672 57.9337C50.5741 57.9509 50.5844 57.9665 50.5974 57.9796C50.6105 57.9927 50.6262 58.003 50.6434 58.0099C50.6606 58.0167 50.679 58.02 50.6975 58.0195C51.0692 58.0079 51.4403 58.0564 51.7965 58.163C50.6555 58.7125 50.134 59.178 50.204 59.563C50.3407 60.2505 50.5327 60.9259 50.778 61.5825C50.967 62.1285 51.163 62.6955 51.751 62.9335C54.446 64.0745 58.45 63.2415 61.1555 62.104C63.4515 61.2045 63.7875 59.7485 63.5845 57.6905C63.5425 57.2985 63.0875 57.253 62.132 57.2775L64.4595 54.334C65.1595 53.4975 64.5505 53.5255 64.33 51.884C64.5408 52.1964 64.7941 52.478 65.0825 52.7205C65.0996 52.734 65.1194 52.7437 65.1405 52.7491C65.1615 52.7545 65.1835 52.7555 65.205 52.752C65.2995 52.7345 65.226 52.7835 66.094 51.2225C66.1105 51.1941 66.1167 51.1608 66.1116 51.1283C66.1065 51.0958 66.0904 51.0661 66.066 51.044C65.6845 50.729 64.764 49.994 64.764 49.994C65.2385 49.8817 65.706 49.7415 66.164 49.574C66.2732 49.5459 66.3721 49.4871 66.449 49.4046C66.5258 49.3222 66.5776 49.2194 66.598 49.1085C66.6435 48.8355 66.647 43.337 66.654 42.588C66.654 42.4655 66.458 42.4305 66.437 42.5635C66.0275 45.339 64.148 47.649 61.747 48.3385C61.824 48.027 62.02 47.3515 61.9115 47.166C61.5156 46.9169 61.0944 46.7104 60.655 46.55C61.0925 46.3015 62.104 45.654 62.1775 45.4545C62.223 45.339 61.999 39.9385 61.9885 39.347C61.9868 39.3227 61.9774 39.2995 61.9616 39.2808C61.9459 39.2621 61.9246 39.2489 61.9009 39.243C61.8771 39.2372 61.8522 39.239 61.8296 39.2483C61.8069 39.2576 61.7878 39.2737 61.775 39.2945C61.0973 40.6326 60.0949 41.7794 58.8595 42.63C58.716 42.728 57.6835 43.2775 57.603 43.351C57.344 43.5995 57.666 43.904 57.8025 44.0965C57.9005 44.2295 58.2365 44.681 58.303 44.7755C57.071 44.926 56.7455 44.5025 56.6825 44.7755C56.5615 45.1321 56.3981 45.4728 56.196 45.7905C56.2682 46.0973 56.3605 46.399 56.4725 46.6935C56.2674 46.7273 56.0581 46.7273 55.853 46.6935C55.8164 46.6857 55.7783 46.6917 55.7459 46.7105C55.7136 46.7293 55.6894 46.7594 55.678 46.795C55.58 47.1135 55.503 47.3795 55.433 47.628C55.0088 46.9085 54.5412 46.2154 54.033 45.5525C53.7845 43.6555 52.8885 41.44 50.995 41.146C52.4195 40.551 53.354 39.0215 53.578 37.471C54.25 37.471 63.959 37.443 64.351 37.471C66.4755 37.5305 67.424 36.7185 67.6235 34.552C67.704 33.6875 67.55 18.7705 67.55 18.613ZM19.2185 60.284C19.2273 60.247 19.2218 60.2079 19.2029 60.1748C19.1841 60.1417 19.1534 60.1169 19.117 60.1055C18.8335 60.0005 18.6165 60.249 18.459 60.4275C18.0603 60.9129 17.6225 61.3647 17.15 61.7785C16.8875 61.9045 13.832 61.271 13.4505 61.152C13.2452 61.1055 13.0665 60.9797 12.9535 60.802C12.9093 60.6729 12.9141 60.532 12.967 60.4061C13.02 60.2803 13.1173 60.1783 13.2405 60.1195C13.51 59.955 13.7095 59.969 14.4655 59.829C15.2215 59.689 15.9705 59.5525 17.2865 58.3135C17.4699 58.1379 17.6406 57.9496 17.7975 57.75C18.016 58.2358 18.3839 58.6392 18.8475 58.9015C19.4687 59.1773 20.1623 59.2449 20.825 59.094C20.475 59.794 19.509 61.9815 19.2675 62.65C19.075 62.573 18.879 62.503 18.6865 62.447C18.9033 61.7363 19.0809 61.0142 19.2185 60.284ZM49.9555 41.118C49.4632 41.1391 48.9743 41.2095 48.496 41.328C46.9283 41.5052 45.3521 41.5964 43.7745 41.601C43.5435 40.201 43.6135 40.46 43.554 40.0715C43.5295 39.9035 43.4945 39.6725 43.617 39.599C45.2935 38.85 47.0365 38.171 48.706 37.4395C49.056 37.695 49.084 37.6635 49.1155 37.6425C49.1305 37.6264 49.1389 37.6051 49.1389 37.583C49.1389 37.561 49.1305 37.5397 49.1155 37.5235C48.9789 37.3855 48.8352 37.2547 48.685 37.1315C47.3414 35.93 46.4055 34.3396 46.0075 32.5815C46.0029 32.5607 45.9901 32.5425 45.9721 32.531C45.954 32.5195 45.9321 32.5156 45.9113 32.5203C45.8904 32.5249 45.8722 32.5377 45.8607 32.5557C45.8492 32.5738 45.8454 32.5957 45.85 32.6165C46.1466 34.4448 47.0922 36.1049 48.5135 37.2925L43.687 39.2875C43.5475 39.3285 43.4248 39.4131 43.337 39.529C43.0954 39.4634 42.8772 39.3312 42.707 39.1475C41.797 38.416 41.433 38.9165 40.257 39.8475C40.1433 39.9333 40.0357 40.0269 39.935 40.1275C39.3134 39.5746 38.6938 39.0193 38.0765 38.4615C37.919 38.2305 36.484 33.2815 35.896 31.2935C36.3505 30.1915 37.0839 29.2266 38.024 28.4935C38.1327 28.8255 38.2697 29.1475 38.4335 29.456C38.696 29.708 39.0355 29.5855 39.3645 29.505C39.2739 29.6931 39.2216 29.8974 39.2108 30.1059C39.2 30.3145 39.2308 30.5231 39.3015 30.7195C39.5493 31.2751 39.9363 31.7573 40.425 32.1195C41.622 33.1695 41.5625 33.1415 41.6325 33.1415C41.6648 33.1399 41.6954 33.1266 41.7186 33.1041C41.7418 33.0815 41.756 33.0513 41.7585 33.019C41.8775 31.7975 42.2695 31.4615 43.3755 31.073C43.9804 30.8756 44.4922 30.4638 44.8145 29.9152C45.1368 29.3666 45.2475 28.719 45.1255 28.0945C45.857 28.1001 46.5859 28.0059 47.292 27.8145C47.3254 27.807 47.3544 27.7866 47.3728 27.7577C47.3911 27.7289 47.3973 27.6939 47.39 27.6605C47.39 27.601 47.3655 27.531 47.348 27.4575C52.4545 29.939 55.566 37.6705 51.4465 40.544C50.9985 40.8441 50.4891 41.0402 49.9555 41.118ZM51.1315 41.517C52.031 41.7095 52.7835 42.4655 53.2735 43.7955C55.6115 50.113 50.162 57.7675 43.3965 59.5455C43.3545 59.122 43.1235 56.665 43.078 56.483C43.0445 56.3224 42.9521 56.1801 42.819 56.084C42.3885 55.846 41.65 56.1085 41.258 56.3395C40.8843 56.5876 40.5504 56.8909 40.2675 57.239C40.2675 57.351 40.7575 59.4615 40.8625 59.892C36.6086 60.7817 32.187 60.4019 28.147 58.8C28.77 56.21 29.596 52.6645 29.827 51.5655C32.235 52.3145 35.6195 52.2445 35.6545 52.241C35.6657 52.2381 35.6756 52.2315 35.6827 52.2223C35.6897 52.2131 35.6936 52.2019 35.6936 52.1903C35.6936 52.1787 35.6897 52.1674 35.6827 52.1583C35.6756 52.1491 35.6657 52.1425 35.6545 52.1395C33.712 51.492 32.0355 49.8225 30.9365 47.4355C29.246 43.869 25.739 43.911 24.374 45.6855C22.4 48.2475 22.0815 55.7025 22.05 56.602C21.9275 56.826 21.224 58.2015 20.958 58.7615C18.858 59.262 18.2595 58.0615 18.004 57.547C17.962 57.4595 17.983 57.6905 18.634 55.391C18.984 55.5625 21.4725 56.441 21.476 56.182C21.504 53.207 22.225 46.13 24.178 44.5025C25.578 43.3545 28.6055 43.554 29.946 44.548C30.7982 45.3259 31.4953 46.2582 32.0005 47.2955C33.124 49.707 35.0595 51.4955 37.2085 51.9435C39.963 51.702 43.1585 47.313 44.072 44.506C45.759 42.3675 48.5415 41.1425 51.1315 41.517ZM56.609 55.7515C56.6137 55.7724 56.6264 55.7906 56.6445 55.8021C56.6625 55.8136 56.6844 55.8174 56.7053 55.8128C56.7261 55.8081 56.7443 55.7954 56.7558 55.7773C56.7673 55.7593 56.7712 55.7374 56.7665 55.7165C56.546 54.5895 55.923 53.6165 55.531 52.5665C54.852 50.771 55.3455 48.8425 55.9195 47.019C56.1755 47.0669 56.4401 47.0326 56.6755 46.921C56.868 46.7705 56.714 46.515 56.497 45.871C56.6755 45.6012 56.8156 45.3079 56.9135 44.9995C57.4605 45.129 58.0294 45.1361 58.5795 45.0205C58.6009 45.0151 58.6206 45.0047 58.6372 44.9901C58.6538 44.9756 58.6667 44.9574 58.6749 44.9369C58.6831 44.9164 58.6863 44.8943 58.6843 44.8724C58.6824 44.8504 58.6752 44.8292 58.6635 44.8105C58.429 44.5025 57.8095 43.659 57.778 43.596C57.7465 43.533 57.778 43.54 57.8795 43.4945C59.5525 42.7332 60.9243 41.4365 61.7785 39.809C61.8205 40.9535 61.957 45.213 61.9185 45.3845C61.3747 45.7781 60.8013 46.1292 60.2035 46.4345C60.1774 46.4489 60.1562 46.4708 60.1425 46.4973C60.1288 46.5238 60.1233 46.5537 60.1267 46.5833C60.1301 46.613 60.1422 46.6409 60.1615 46.6636C60.1807 46.6864 60.2063 46.7029 60.235 46.711C60.7302 46.8804 61.2102 47.0911 61.67 47.341C61.733 47.4425 61.5125 48.244 61.474 48.4505L61.124 48.5205C61.0892 48.5297 61.0592 48.5518 61.0403 48.5825C61.0214 48.6131 61.015 48.6498 61.0225 48.685C61.1135 49.3045 61.32 50.8305 61.32 50.8305C60.3155 49.896 60.3225 49.378 60.1055 49.357C60.084 49.3543 60.0621 49.3571 60.042 49.365C60.0218 49.373 60.0039 49.3859 59.99 49.4025C58.3443 51.3121 57.4203 53.7384 57.379 56.259C57.3829 56.278 57.3933 56.2949 57.4082 56.3071C57.4232 56.3193 57.4419 56.326 57.4613 56.326C57.4806 56.326 57.4993 56.3193 57.5143 56.3071C57.5293 56.2949 57.5396 56.278 57.5435 56.259C57.6753 53.8741 58.5601 51.5924 60.0705 49.742C60.4186 50.3417 60.8756 50.8711 61.418 51.303C61.4411 51.3236 61.4701 51.3363 61.5009 51.3394C61.5316 51.3425 61.5626 51.3358 61.5893 51.3203C61.6161 51.3048 61.6373 51.2812 61.6499 51.253C61.6625 51.2248 61.6658 51.1933 61.6595 51.163C61.6595 51.163 61.4075 49.4585 61.3095 48.7655C63.693 48.342 65.7405 46.3155 66.43 43.7325C66.43 45.171 66.381 48.7375 66.381 48.7725C66.381 49 66.381 49.217 66.178 49.3185C65.604 49.5202 65.0198 49.6919 64.428 49.833C64.4038 49.8394 64.3817 49.8522 64.3641 49.8701C64.3465 49.8879 64.334 49.9101 64.3279 49.9345C64.3218 49.9588 64.3224 49.9843 64.3295 50.0083C64.3367 50.0323 64.3501 50.054 64.3685 50.071C64.533 50.204 65.478 50.9775 65.7895 51.226C65.7895 51.226 65.3625 52.0415 65.1455 52.444C64.7906 52.1157 64.4967 51.727 64.2775 51.296C64.2633 51.2715 64.2415 51.2524 64.2153 51.2415C64.1892 51.2306 64.1602 51.2286 64.1328 51.2357C64.1054 51.2429 64.0811 51.2588 64.0636 51.2811C64.0461 51.3033 64.0364 51.3307 64.036 51.359C64.134 53.697 64.883 53.3925 64.2635 54.159C62.1285 56.8435 61.754 57.7115 59.4545 58.3905C59.9165 56.2905 61.4985 55.44 62.132 53.9245C62.482 53.095 62.405 52.1745 62.6815 51.3415C62.874 50.7634 63.1887 50.2335 63.6042 49.7878C64.0197 49.3421 64.5263 48.9911 65.0895 48.7585C65.1099 48.7516 65.1268 48.7368 65.1363 48.7174C65.1458 48.6981 65.1472 48.6757 65.1403 48.6553C65.1333 48.6349 65.1185 48.618 65.0991 48.6085C65.0798 48.599 65.0574 48.5976 65.037 48.6045C64.3035 48.8633 63.6563 49.3207 63.1675 49.9257C62.6787 50.5307 62.3674 51.2596 62.2685 52.031C62.118 53.1055 62.1495 53.634 61.4775 54.5755C60.7355 55.608 59.521 56.5215 59.129 58.478C58.5204 58.6296 57.8974 58.7164 57.2705 58.737C57.197 58.1105 56.812 57.743 56.539 57.729C56.287 57.288 53.6305 53.2455 52.6505 52.36C53.7342 50.4098 54.2325 48.1883 54.0855 45.962C54.5055 46.5815 55.223 47.7435 55.349 47.971C54.1275 52.682 56.1225 53.389 56.609 55.7515ZM51.0895 55.9055C51.0894 55.8808 51.0822 55.8567 51.0689 55.836C51.0555 55.8152 51.0365 55.7987 51.014 55.7884C50.9916 55.7781 50.9667 55.7744 50.9422 55.7778C50.9178 55.7812 50.8948 55.7915 50.876 55.8075C50.4285 56.2518 50.022 56.7356 49.6615 57.253C49.4554 57.1328 49.2619 56.9921 49.084 56.833C49.9299 56.098 50.697 55.2769 51.373 54.383C55.09 58.842 54.9115 58.7125 55.0165 58.6285C55.0247 58.6229 55.0318 58.6157 55.0371 58.6074C55.0425 58.599 55.0461 58.5896 55.0478 58.5798C55.0494 58.57 55.049 58.5599 55.0467 58.5503C55.0443 58.5406 55.04 58.5315 55.034 58.5235C54.789 58.1525 52.2935 55.0235 51.534 54.145C51.8947 53.6466 52.2243 53.1265 52.521 52.5875C53.921 53.956 56.0945 57.5575 56.2975 57.897C56.1043 58.175 56.0139 58.5117 56.042 58.849C55.5999 58.9725 55.1353 58.9929 54.684 58.9085C54.1485 58.8035 52.1465 57.82 50.834 57.7815C50.918 57.4 51.051 56.2345 51.1 55.9055H51.0895ZM41.9265 56.35H41.986C42.259 56.287 42.686 56.1925 42.7875 56.469C42.84 56.658 43.897 67.0985 43.897 67.4205C43.9026 67.4713 43.8971 67.5226 43.8808 67.571C43.8644 67.6194 43.8377 67.6636 43.8025 67.7005C42.8925 67.3505 40.6525 58.065 40.565 57.2775C40.9178 56.8412 41.3913 56.5186 41.9265 56.35ZM4.65851 39.823C4.65851 39.0215 4.12651 23.1315 4.17901 22.5575C4.27001 21.476 4.65851 20.9895 5.51601 20.8775C6.42251 20.7025 14.8855 20.461 15.8095 20.4365C15.8305 20.7865 15.848 21.0315 15.855 21.077C15.8938 21.3524 16.0251 21.6064 16.2274 21.7972C16.4297 21.988 16.6909 22.1043 16.968 22.127C16.968 22.092 16.737 22.127 23.968 22.1515C23.968 23.2435 24.0345 28.3745 24.038 28.616C21.98 28.693 19.859 28.777 19.453 28.8155C19.397 28.8155 19.348 28.917 19.369 28.966C19.978 30.471 22.6905 36.582 23.45 38.15C23.5209 38.3282 23.6426 38.4816 23.8 38.591C23.898 38.738 24.0135 38.9025 24.15 39.067C23.0405 39.9525 22.6415 40.9325 21.9975 42.3675C19.033 42.4305 7.01751 42.679 6.74801 42.6685C5.99901 42.637 5.47051 42.42 5.14151 42.007C4.64101 41.412 4.66201 40.6 4.65851 39.823ZM45.15 25.844C45.2235 26.11 45.5 26.2535 45.927 26.264C46.662 26.2325 46.977 26.866 47.11 27.594C46.3945 27.7339 45.6687 27.8146 44.94 27.8355C44.9189 27.8358 44.8982 27.8409 44.8794 27.8505C44.8606 27.8601 44.8443 27.8739 44.8317 27.8908C44.8192 27.9078 44.8107 27.9274 44.8071 27.9482C44.8034 27.969 44.8046 27.9903 44.8105 28.0105C44.9223 28.4101 44.9233 28.8325 44.8136 29.2326C44.7039 29.6327 44.4875 29.9954 44.1875 30.282C43.246 31.1885 41.7375 30.688 41.517 32.7775C41.202 32.5045 40.0365 31.514 39.7985 31.2235C39.389 30.751 39.2245 29.967 39.6445 29.4735C40.5439 29.3265 41.4528 29.2458 42.364 29.232C42.3844 29.232 42.404 29.2239 42.4185 29.2095C42.4329 29.195 42.441 29.1755 42.441 29.155C42.441 29.1346 42.4329 29.115 42.4185 29.1006C42.404 29.0862 42.3844 29.078 42.364 29.078C41.3157 29.0037 40.2621 29.0791 39.235 29.302C38.843 29.4105 38.6505 29.4875 38.4755 29.12C38.388 28.9345 37.8665 27.3455 37.7755 27.0515C37.6145 26.67 37.7125 26.7855 38.0065 26.6035C38.2946 26.847 38.6179 27.0452 38.9655 27.1915C38.9655 27.2335 39.1475 27.79 39.1755 27.8915C39.1874 27.9756 39.2295 28.0525 39.2939 28.1079C39.3582 28.1633 39.4406 28.1934 39.5255 28.1925C40.3417 28.2675 41.164 28.148 41.9251 27.8438C42.6862 27.5396 43.3644 27.0594 43.904 26.4425C43.9147 26.4279 43.9196 26.4097 43.9178 26.3917C43.9159 26.3736 43.9074 26.3568 43.8939 26.3447C43.8804 26.3325 43.8629 26.3257 43.8447 26.3257C43.8266 26.3257 43.809 26.3324 43.7955 26.3445C43.2534 26.8924 42.6022 27.3202 41.884 27.6C41.1659 27.8797 40.3969 28.0053 39.627 27.9685C39.382 27.951 39.4135 28.0035 39.207 27.2685C40.152 27.5345 40.39 27.174 40.054 27.5065C40.0431 27.5196 40.037 27.5361 40.0369 27.5532C40.0368 27.5702 40.0426 27.5868 40.0533 27.6001C40.0641 27.6133 40.0791 27.6224 40.0959 27.6258C40.1126 27.6291 40.13 27.6266 40.145 27.6185C41.4181 26.6667 42.3469 25.3264 42.791 23.8C42.7942 23.7902 42.7954 23.7797 42.7945 23.7694C42.7936 23.759 42.7906 23.749 42.7857 23.7398C42.7808 23.7307 42.7741 23.7226 42.766 23.7161C42.7579 23.7096 42.7485 23.7048 42.7385 23.702C42.5565 23.639 42.679 23.9995 41.825 25.396C41.475 23.996 41.7095 22.5155 41.3315 21.1085C41.3264 21.0886 41.3136 21.0715 41.2959 21.061C41.2781 21.0505 41.257 21.0474 41.237 21.0525C41.2171 21.0576 41.1999 21.0705 41.1894 21.0882C41.1789 21.1059 41.1759 21.1271 41.181 21.147C41.2423 21.4448 41.2821 21.7466 41.3 22.05C40.5545 21.3115 38.9795 20.132 37.737 20.4015C37.4693 20.4098 37.2157 20.5231 37.0309 20.717C36.8462 20.9109 36.7453 21.1698 36.75 21.4375C36.449 21.0315 36.659 20.412 36.932 20.069C37.653 19.1275 38.934 18.669 40.2115 18.319C41.342 18.018 42.854 18.06 43.7115 19.082C44.0835 19.5921 44.3522 20.1699 44.5025 20.783C44.9496 22.1647 45.2614 23.5866 45.4335 25.0285C45.4468 25.0867 45.4441 25.1474 45.4256 25.2041C45.4071 25.2608 45.3736 25.3114 45.3285 25.3505C45.2586 25.4103 45.2055 25.4873 45.1742 25.5737C45.1429 25.6602 45.1346 25.7534 45.15 25.844ZM23.7055 38.066C23.3765 37.366 20.125 30.156 19.607 28.966C20.7655 28.966 33.838 28.4865 34.0655 28.4795C34.51 29.9075 37.1 38.5315 37.1 38.605C37.1 38.605 34.006 38.682 32.3365 38.7485C29.519 37.3275 26.9115 37.4815 25.0145 38.486C23.9435 38.4405 23.8945 38.4615 23.7055 38.066ZM37.0055 23.548C36.9565 22.498 37.0055 21.7665 37.17 21.693C37.772 21.42 38.8955 21.343 40.145 21.7385C40.3025 21.791 40.8065 22.0535 41.314 22.267C41.37 23.387 41.314 24.5735 41.664 25.6585C41.3546 26.2011 40.9572 26.6884 40.488 27.1005C38.3705 27.3805 37.1 25.6865 36.9985 23.548H37.0055ZM40.2185 44.478C40.1345 44.639 41.559 45.71 41.713 45.8255C42.217 46.3015 41.601 46.5605 41.09 46.102C38.29 43.5855 35.903 40.7015 32.7915 38.9795C34.6045 38.92 36.848 38.8535 37.233 38.85C37.6215 39.2245 42.133 43.449 43.2985 44.45C40.0435 44.4745 40.25 44.422 40.2115 44.478H40.2185ZM43.6555 44.429C43.6205 44.3975 37.7055 39.053 37.478 38.787C37.345 38.563 34.8915 30.2365 34.328 28.56C34.6737 28.7958 34.9301 29.141 35.056 29.54C35.266 30.1385 37.6495 38.1185 37.66 38.157C37.6886 38.3508 37.7752 38.5314 37.9085 38.675C38.829 39.5605 42.735 43.1025 44.0055 44.1525C43.932 44.2435 43.8585 44.3345 43.7885 44.429H43.6555ZM43.4 41.0655C42.791 41.0165 42.5985 40.9465 42.448 41.132C42.399 41.209 42.259 41.3805 42.0805 41.342C42.0496 41.3348 42.0204 41.3213 41.9949 41.3023C41.9695 41.2833 41.9482 41.2593 41.9324 41.2317C41.9166 41.2041 41.9067 41.1735 41.9033 41.1419C41.8999 41.1103 41.903 41.0784 41.9125 41.048C42.084 40.887 42.2625 40.747 42.4235 40.5755C42.4321 40.5634 42.4364 40.5488 42.4358 40.534C42.4351 40.5192 42.4295 40.505 42.4198 40.4937C42.4102 40.4824 42.397 40.4747 42.3825 40.4718C42.3679 40.4689 42.3528 40.4709 42.3395 40.4775C42.161 40.593 41.9895 40.7785 41.7865 40.901C41.7698 40.9013 41.7532 40.9051 41.7381 40.9124C41.723 40.9197 41.7097 40.9301 41.699 40.943C41.6571 40.9601 41.6118 40.9672 41.5667 40.9638C41.5215 40.9604 41.4778 40.9467 41.4389 40.9237C41.3999 40.9006 41.3668 40.8689 41.3421 40.831C41.3174 40.7931 41.3018 40.75 41.2965 40.705C41.2965 40.425 41.5975 40.2395 41.7725 40.033C41.8425 39.963 41.7375 39.858 41.664 39.9245C41.4765 40.0829 41.3021 40.2561 41.1425 40.4425C40.9408 40.5067 40.735 40.557 40.5265 40.593C40.432 40.593 40.5265 40.6525 40.1135 40.299C40.5441 39.8951 41.013 39.5341 41.5135 39.221C42.364 38.661 42.5215 39.6305 43.288 39.7425C43.2873 40.1859 43.3248 40.6286 43.4 41.0655ZM44.1875 43.9495L40.663 40.7995C40.7908 40.7743 40.917 40.7416 41.041 40.7015C41.0382 40.7775 41.0531 40.8531 41.0845 40.9224C41.116 40.9916 41.1631 41.0526 41.2222 41.1005C41.2813 41.1484 41.3507 41.1818 41.4249 41.1982C41.4992 41.2147 41.5763 41.2136 41.65 41.195C41.664 41.2693 41.6954 41.3391 41.7415 41.399C41.7876 41.4588 41.8472 41.5069 41.9155 41.5393C41.9837 41.5717 42.0586 41.5875 42.1341 41.5855C42.2097 41.5834 42.2836 41.5636 42.35 41.5275C42.833 41.307 42.35 41.223 43.1305 41.293C43.232 41.293 43.3405 41.314 43.4455 41.3175C43.477 41.482 43.5085 41.6325 43.5435 41.776C43.5519 41.8047 43.5695 41.8297 43.5935 41.8474C43.6175 41.8651 43.6467 41.8745 43.6765 41.874C49.9345 41.741 46.8615 40.8765 44.1805 43.9495H44.1875ZM35.7875 30.9155C35.392 29.589 35.1855 28.518 34.3875 28.245C34.3875 28.287 34.685 28.1995 24.325 28.595C24.325 26.8905 24.2515 22.7675 24.241 22.141H36.7885C36.6905 23.6565 36.7885 25.291 37.8385 26.418C37.7125 26.467 37.4885 26.572 37.436 26.6595C37.5651 27.2252 37.7383 27.7799 37.954 28.3185C37.015 28.9812 36.2637 29.876 35.7735 30.9155H35.7875ZM34.349 20.097C34.349 19.607 34.237 16.9715 34.2125 16.4885H35.105C35.105 16.9855 35.1715 19.6105 35.1925 20.0935C34.9125 20.0865 34.629 20.09 34.349 20.097ZM29.2215 20.202C29.225 19.25 29.1025 11.2 29.085 10.15H29.9775C29.9775 12.81 30.0545 19.4635 30.0685 20.188L29.2215 20.202ZM23.6985 11.501H24.5945C24.5945 13.8005 24.668 19.607 24.6855 20.2965H23.8385C23.842 19.4355 23.7195 12.46 23.6985 11.501ZM16.1 20.923C16.051 20.6255 15.645 11.305 15.4805 7.73504C15.442 6.63604 15.7325 5.28504 16.471 4.65854C16.471 7.10854 16.786 20.629 16.856 21.854C16.65 21.7946 16.4672 21.6735 16.332 21.5071C16.1969 21.3407 16.1159 21.1368 16.1 20.923ZM48.2125 18.0145C48.1837 17.7861 48.2384 17.5549 48.3665 17.3635C48.6405 17.1478 48.9347 16.9591 49.245 16.8C48.895 17.43 48.986 17.255 49.1715 28.315C48.8828 28.095 48.5825 27.8905 48.272 27.7025C48.237 25.9385 48.2195 19.5265 48.223 18.0145H48.2125ZM51.2715 21.903C51.4342 21.6722 51.6503 21.4841 51.9014 21.3549C52.1525 21.2257 52.4311 21.1592 52.7135 21.161C54.138 21.161 54.656 22.855 54.936 24.234C55.181 25.3155 55.1985 26.5895 55.986 27.4715C59.647 30.7895 59.9235 26.159 62.1495 26.3375C62.8495 26.418 63.315 27.0585 63.8155 27.5205C64.0295 27.7609 64.3296 27.907 64.6507 27.9274C64.9718 27.9477 65.288 27.8405 65.5305 27.629V32.6025C64.6695 32.6025 53.7355 32.522 52.535 32.536C52.2427 31.9243 51.8985 31.3388 51.506 30.786C51.548 30.3625 51.289 22.281 51.282 21.903H51.2715ZM52.6715 32.774C54.2815 32.7985 64.498 32.8265 65.5585 32.8265C65.56 32.9599 65.5682 33.093 65.583 33.2255C65.5856 33.2537 65.5984 33.28 65.619 33.2993C65.6397 33.3187 65.6667 33.3298 65.695 33.3305C65.9015 33.3305 65.807 33.649 65.772 24.157C65.772 24.1338 65.7628 24.1116 65.7464 24.0952C65.73 24.0788 65.7077 24.0695 65.6845 24.0695C65.6613 24.0695 65.639 24.0788 65.6226 24.0952C65.6062 24.1116 65.597 24.1338 65.597 24.157C65.597 24.78 65.5585 26.838 65.555 27.244C65.4747 27.3706 65.3655 27.4762 65.2365 27.5524C65.1075 27.6286 64.9622 27.6731 64.8126 27.6824C64.663 27.6916 64.5134 27.6652 64.376 27.6055C64.2386 27.5457 64.1173 27.4542 64.022 27.3385C63.0105 26.2885 62.0095 25.4135 60.5465 26.7645C59.3495 28 58.6915 29.043 57.0465 27.9755C56.3805 27.6206 55.8784 27.0207 55.6465 26.3025C55.0935 24.318 55.2475 21.2555 52.9095 20.8495C52.5969 20.8176 52.2813 20.8628 51.9902 20.9812C51.6992 21.0995 51.4416 21.2875 51.24 21.5285C51.24 20.9965 51.2015 20.4785 51.1805 19.9395C51.1805 19.9173 51.1717 19.8959 51.1559 19.8801C51.1402 19.8644 51.1188 19.8555 51.0965 19.8555C51.0742 19.8555 51.0529 19.8644 51.0371 19.8801C51.0214 19.8959 51.0125 19.9173 51.0125 19.9395C51.0125 20.5205 51.1945 28.6335 51.2505 30.415C50.7112 29.7092 50.0909 29.069 49.4025 28.5075C49.4025 27.174 49.2835 18.515 49.2695 17.9795C49.2485 17.0065 49.637 16.443 50.533 16.2085C51.268 16.0055 64.484 15.8025 65.7405 15.974C66.5735 16.079 67.0495 16.8945 67.1685 17.6015C67.3155 18.48 67.3575 33.0015 67.361 33.194C67.389 34.909 67.186 36.8655 65.401 37.107C64.9985 37.163 55.041 37.1875 53.5955 37.1735C53.6402 35.6553 53.326 34.148 52.6785 32.774H52.6715ZM42.4235 5.53004C42.8435 6.26504 42.6055 6.06204 42.903 18.151C41.454 17.4965 39.403 18.0985 38.003 18.851V8.48054C38.003 8.40004 38.185 8.42454 36.953 8.42454C36.876 8.42454 36.883 7.70354 37.142 19.432C36.932 19.6216 36.7494 19.8395 36.5995 20.0795H35.4235C35.4235 19.6245 35.2905 16.3975 35.2765 16.3695C35.2725 16.3513 35.2622 16.3351 35.2475 16.3236C35.2329 16.3121 35.2146 16.3061 35.196 16.3065C34.8178 16.2939 34.4393 16.302 34.062 16.331C34.0508 16.3387 34.042 16.3492 34.0364 16.3616C34.0308 16.374 34.0288 16.3876 34.0305 16.401C34.0305 16.751 34.0935 19.593 34.118 20.097L32.7985 20.125C32.865 14.147 32.8895 14.462 32.7985 14.455C31.85 14.4935 31.829 14.476 31.829 14.546V20.146L30.289 20.1775C30.289 19.397 30.17 10.577 30.1455 10.066C30.1465 10.043 30.1388 10.0205 30.1239 10.0029C30.1089 9.98539 30.0879 9.97417 30.065 9.97154C30.065 9.97154 28.9695 9.97154 28.9345 10.0065C28.833 10.087 28.9905 19.8065 28.9905 20.2055L27.328 20.237V15.0115C27.3156 15.0067 27.3019 15.0067 27.2895 15.0115C26.3235 15.0115 26.334 15.0115 26.334 15.0885V20.258L24.913 20.3C24.815 11.263 24.7345 11.4275 24.7695 11.4275C24.7697 11.4051 24.7615 11.3834 24.7467 11.3666C24.7318 11.3498 24.7113 11.3391 24.689 11.3365C24.689 11.3365 23.6005 11.3365 23.5655 11.3645C23.4465 11.438 23.6145 19.705 23.6145 20.328L21.6895 20.363C21.7 6.72354 21.7385 7.35004 21.6475 7.35004L20.79 7.38154C20.7305 7.38154 20.7515 6.54504 20.7515 20.377C19.3095 20.405 19.3515 20.377 19.3305 20.433C19.3238 20.444 19.32 20.4564 19.3196 20.4692C19.3192 20.4821 19.3222 20.4948 19.3282 20.5061C19.3342 20.5174 19.3431 20.527 19.3539 20.5338C19.3648 20.5406 19.3772 20.5445 19.39 20.545C21.5145 20.545 34.3805 20.4155 36.477 20.3525C36.267 20.888 36.3055 21.4795 36.792 21.791V21.868C34.769 21.9275 17.458 21.868 17.1465 21.868C17.1465 21.4095 16.7545 5.39704 16.751 4.50104C19.1765 4.50104 40.551 4.53254 41.1075 4.62354C41.3803 4.66773 41.6399 4.77197 41.8675 4.92874C42.0951 5.08552 42.285 5.2909 42.4235 5.53004ZM4.27351 21.245C3.87101 21.826 3.85001 22.582 3.85001 23.3135C3.85001 23.4745 4.34001 40.7015 4.41351 41.1215C4.45537 41.4263 4.56199 41.7187 4.72619 41.9789C4.89039 42.2391 5.10838 42.4611 5.36551 42.63C4.95411 42.6093 4.55192 42.5007 4.18601 42.3115C3.40901 41.8845 3.11501 41.006 3.01001 40.5195C2.82451 39.6445 2.57951 24.6155 2.62151 23.8385C2.59701 22.5505 3.03451 21.854 4.26651 21.245H4.27351ZM56.7735 60.8265C58.1744 60.7288 59.5468 60.3828 60.8265 59.8045C61.7365 59.3845 62.8705 58.7195 63.3395 58.191C63.413 59.843 63.077 60.9105 61.3795 61.691C59.1325 62.741 53.802 64.029 51.499 62.4925C51.2925 62.293 50.799 60.7775 50.603 60.0775C51.6075 60.746 54.5335 61.005 56.7665 60.8265H56.7735ZM25.1195 65.4115C24.8255 65.387 24.6855 65.681 24.5875 65.8945C23.7685 67.6445 23.779 67.7565 22.946 67.8125C22.6835 67.83 20.2125 68.033 20.0305 68.033C19.3935 68.0785 19.04 67.641 19.4915 67.1055C19.7489 66.9114 20.0346 66.758 20.3385 66.6505C21.3115 66.199 22.8515 65.0055 23.191 63.5285C23.5423 63.9412 24.0216 64.2246 24.5525 64.3335C25.2098 64.4041 25.8728 64.2683 26.4495 63.945C26.3165 64.701 26.0085 67.0565 25.97 67.795C25.7654 67.7736 25.5597 67.7642 25.354 67.767C25.3505 67.5675 25.284 65.4255 25.1125 65.4115H25.1195ZM26.4075 63.609C25.9527 63.9307 25.407 64.0987 24.85 64.0885C24.5554 64.0664 24.2684 63.9837 24.0071 63.8459C23.7458 63.708 23.5156 63.5177 23.331 63.287C23.331 63.1785 23.2925 62.006 23.303 61.376C24.437 61.4655 25.5754 61.4877 26.712 61.4425C26.656 61.7505 26.4775 63 26.4005 63.609H26.4075Z" fill="black"/>
<path d="M61.25 18.431C61.2698 18.427 61.2876 18.4163 61.3004 18.4006C61.3131 18.385 61.3201 18.3655 61.3201 18.3453C61.3201 18.3251 61.3131 18.3055 61.3004 18.2899C61.2876 18.2743 61.2698 18.2635 61.25 18.2595H60.662C56.2625 18.396 56.406 18.3925 56.4095 18.515C56.413 18.6375 56.2765 18.6655 61.25 18.431ZM61.397 19.25C60.613 19.25 57.547 19.292 56.7595 19.355C56.7319 19.3598 56.7069 19.3742 56.6888 19.3957C56.6708 19.4171 56.6609 19.4442 56.6609 19.4723C56.6609 19.5003 56.6708 19.5274 56.6888 19.5489C56.7069 19.5703 56.7319 19.5847 56.7595 19.5895C57.561 19.5895 60.6095 19.432 61.4005 19.4005C61.4176 19.3964 61.4328 19.3866 61.4436 19.3726C61.4543 19.3587 61.4599 19.3415 61.4595 19.3239C61.4591 19.3063 61.4527 19.2893 61.4413 19.2759C61.43 19.2625 61.4143 19.2533 61.397 19.25ZM60.627 20.538C60.081 20.559 58.3275 20.538 56.6545 20.538C56.6174 20.538 56.5818 20.5528 56.5555 20.579C56.5293 20.6053 56.5145 20.6409 56.5145 20.678C56.5145 20.7152 56.5293 20.7508 56.5555 20.777C56.5818 20.8033 56.6174 20.818 56.6545 20.818C57.0045 20.8425 60.2875 20.706 60.6305 20.692C60.651 20.6916 60.6704 20.683 60.6845 20.6682C60.6986 20.6535 60.7062 20.6337 60.7058 20.6133C60.7053 20.5929 60.6968 20.5735 60.682 20.5593C60.6672 20.5452 60.6475 20.5376 60.627 20.538ZM49.35 3.04852C48.9399 3.14925 48.5648 3.35934 48.2646 3.65642C47.9644 3.9535 47.7505 4.32645 47.6455 4.73552C47.257 6.22302 48.6045 7.84352 50.155 7.58452C50.4939 7.51297 50.8145 7.37301 51.0974 7.17321C51.3803 6.9734 51.6193 6.71796 51.8 6.42252C51.9766 6.09646 52.0768 5.73457 52.0932 5.36414C52.1096 4.99371 52.0416 4.62439 51.8945 4.28402C51.6845 3.68202 51.0615 2.71952 49.35 3.04852ZM50.197 5.99902C49.5215 6.46452 48.7305 5.61752 49.042 5.09602C49.602 4.16502 50.596 4.86852 50.6205 5.21852C50.6202 5.37392 50.5809 5.52675 50.5063 5.66308C50.4317 5.79941 50.3242 5.9149 50.1935 5.99902H50.197ZM50.155 4.40652C49.9188 4.3322 49.6646 4.33825 49.4322 4.42375C49.1998 4.50924 49.0023 4.66934 48.8705 4.87902C48.7629 5.0678 48.7222 5.28746 48.7553 5.50225C48.7883 5.71705 48.8931 5.91434 49.0525 6.06202C49.1795 6.18394 49.3357 6.27123 49.5061 6.31554C49.6765 6.35985 49.8554 6.35969 50.0257 6.3151C50.1961 6.2705 50.3521 6.18294 50.4789 6.06081C50.6057 5.93868 50.6991 5.78605 50.75 5.61752C51.0487 5.81342 51.3828 5.94897 51.7335 6.01652C51.6096 6.31886 51.4195 6.5896 51.1773 6.80886C50.935 7.02811 50.6467 7.1903 50.3335 7.28352C48.9335 7.68952 47.6875 6.41902 47.845 5.04702C47.8912 4.72749 48.0093 4.4226 48.1905 4.15539C48.3716 3.88817 48.6111 3.6656 48.8909 3.50448C49.1707 3.34336 49.4834 3.2479 49.8055 3.2253C50.1275 3.2027 50.4505 3.25355 50.75 3.37402C50.4729 3.66691 50.2679 4.02046 50.1515 4.40652H50.155Z" fill="black"/>
<path d="M46.2001 9.05797C47.0541 9.01247 62.6921 8.89347 63.8331 8.55397C64.7116 8.39297 65.0126 7.98697 64.9671 7.10147C64.9671 6.80747 65.0161 3.43697 64.9251 2.83847C64.8446 2.09997 64.4491 1.74997 63.6161 1.70447C62.9161 1.63797 46.6936 1.88997 45.9271 2.05447C45.3041 2.17697 44.8771 2.40447 44.7931 3.10447C44.7546 3.31797 44.9226 7.26947 44.9436 7.65447C44.9926 8.48747 45.4091 8.98097 46.2001 9.05797ZM47.5651 8.81997C47.359 8.79513 47.161 8.72478 46.9854 8.614C46.8099 8.50323 46.6612 8.3548 46.5501 8.17947C46.3033 7.75457 46.1763 7.27077 46.1826 6.77947C46.1441 6.18447 46.0321 3.97947 46.0181 3.44747C46.0181 3.23047 46.0181 2.50947 46.5501 2.25047C47.3726 2.16647 62.6956 1.93897 63.3501 1.95997C63.7001 1.95997 64.1726 1.98797 64.4386 2.25747C64.8306 2.65297 64.7046 3.30747 64.7291 7.06997C64.8061 8.02897 64.4421 8.23897 63.5461 8.36847C62.7411 8.49097 47.7051 8.81997 47.5721 8.81997H47.5651ZM45.7801 3.00297C45.7346 3.31797 45.9201 6.32797 45.9376 6.72697C45.9796 7.71747 46.2631 8.42097 46.8231 8.82697H46.4731C45.6191 8.82697 45.2306 8.41747 45.1921 7.54597C45.1711 7.04897 45.0101 3.34597 45.0451 3.13597C45.1186 2.49897 45.5491 2.35897 46.1196 2.28897C45.9427 2.49025 45.8273 2.73806 45.7871 3.00297H45.7801Z" fill="black"/>
<path d="M54.04 3.90947C54.1695 3.90947 58.1875 3.80797 58.1525 3.80797C58.1706 3.80414 58.1868 3.79423 58.1984 3.7799C58.21 3.76556 58.2163 3.74767 58.2163 3.72922C58.2163 3.71077 58.21 3.69288 58.1984 3.67854C58.1868 3.6642 58.1706 3.65429 58.1525 3.65047C57.855 3.65047 54.3865 3.59097 54.033 3.65047C54.0061 3.66024 53.9829 3.67825 53.9667 3.70195C53.9506 3.72564 53.9423 3.75383 53.9431 3.78249C53.9439 3.81116 53.9536 3.83885 53.971 3.86165C53.9884 3.88444 54.0126 3.90117 54.04 3.90947ZM59.3845 5.00847C58.8805 5.05747 53.8195 4.88597 53.7845 5.14147C53.7845 5.19047 53.83 5.22897 53.865 5.23597C54.306 5.28847 59.367 5.17997 59.402 5.17647C59.4131 5.17532 59.4238 5.17201 59.4335 5.16673C59.4433 5.16144 59.4519 5.15429 59.4589 5.14568C59.4659 5.13706 59.4711 5.12716 59.4742 5.11653C59.4774 5.1059 59.4784 5.09475 59.4773 5.08372C59.4761 5.07269 59.4728 5.06199 59.4675 5.05224C59.4623 5.04249 59.4551 5.03387 59.4465 5.02688C59.4379 5.0199 59.428 5.01467 59.4173 5.01151C59.4067 5.00835 59.3956 5.00732 59.3845 5.00847ZM59.283 6.35247C58.4185 6.35247 54.061 6.33147 53.8335 6.36997C53.8111 6.3759 53.7913 6.38907 53.7772 6.40743C53.7631 6.42579 53.7554 6.4483 53.7554 6.47147C53.7554 6.49463 53.7631 6.51715 53.7772 6.53551C53.7913 6.55387 53.8111 6.56704 53.8335 6.57297C54.075 6.61147 58.9295 6.49947 59.2865 6.48897C59.3019 6.48507 59.3155 6.47605 59.3251 6.46339C59.3347 6.45073 59.3397 6.43519 59.3393 6.41932C59.3389 6.40345 59.3331 6.38818 59.3229 6.37603C59.3127 6.36389 59.2986 6.35558 59.283 6.35247ZM9.80003 28.7735C12.1695 28.581 13.426 25.529 11.585 23.835C11.5185 23.7755 11.6445 23.6425 9.70553 26.446C7.36053 24.2235 7.48653 24.3075 7.43403 24.346C5.57903 26.1765 7.41653 28.9695 9.80003 28.7735Z" fill="black"/>
<path d="M9.54095 25.298C9.60745 25.3715 9.57595 25.382 11.1615 22.708C11.1653 22.7021 11.1678 22.6954 11.169 22.6885C11.1702 22.6815 11.1699 22.6744 11.1683 22.6675C11.1667 22.6607 11.1637 22.6542 11.1595 22.6485C11.1553 22.6429 11.15 22.6381 11.144 22.6345C10.5848 22.3403 9.94425 22.2387 9.32155 22.3457C8.69886 22.4526 8.12885 22.7621 7.69995 23.226C7.65795 23.2785 7.59495 23.177 9.54095 25.298ZM5.88345 38.2655C5.97322 38.2649 6.06081 38.2378 6.1352 38.1875C6.20959 38.1373 6.26745 38.0661 6.3015 37.9831C6.33555 37.9 6.34426 37.8087 6.32655 37.7207C6.30884 37.6327 6.26549 37.5519 6.20195 37.4885C6.37695 37.205 7.51095 35.3395 7.84345 34.8355C7.92962 34.8753 8.0258 34.8883 8.11945 34.8727C8.21309 34.8571 8.29986 34.8136 8.36845 34.748L9.98545 35.994C9.95909 36.072 9.95438 36.1557 9.97185 36.2362C9.98931 36.3167 10.0283 36.3909 10.0846 36.4509C10.1409 36.511 10.2125 36.5547 10.2917 36.5772C10.3709 36.5998 10.4547 36.6005 10.5343 36.5792C10.6138 36.5579 10.6861 36.5154 10.7433 36.4562C10.8006 36.3971 10.8408 36.3235 10.8595 36.2433C10.8783 36.1631 10.8749 36.0794 10.8498 36.0009C10.8247 35.9225 10.7788 35.8524 10.717 35.798L11.291 35.042C11.3937 35.089 11.5102 35.0964 11.618 35.0628C11.7259 35.0292 11.8176 34.957 11.8755 34.86L13.5485 35.427C13.5394 35.5023 13.5493 35.5786 13.5773 35.6491C13.6053 35.7196 13.6504 35.7819 13.7086 35.8305C13.7668 35.8791 13.8363 35.9124 13.9106 35.9273C13.9849 35.9423 14.0618 35.9384 14.1343 35.916C14.2067 35.8937 14.2725 35.8536 14.3255 35.7994C14.3785 35.7452 14.4171 35.6786 14.4379 35.6057C14.4586 35.5327 14.4608 35.4558 14.4442 35.3818C14.4276 35.3078 14.3928 35.2391 14.343 35.182C14.483 34.6815 15.694 30.982 15.8165 30.632C15.934 30.6218 16.043 30.5666 16.121 30.478C16.4535 30.7405 17.451 31.486 17.773 31.703C17.7546 31.7754 17.7543 31.8513 17.7722 31.9239C17.7901 31.9964 17.8255 32.0635 17.8755 32.1191C17.9255 32.1747 17.9883 32.2171 18.0586 32.2427C18.1288 32.2682 18.2043 32.276 18.2783 32.2654C18.3523 32.2549 18.4225 32.2262 18.4828 32.182C18.5431 32.1379 18.5916 32.0795 18.624 32.0122C18.6564 31.9448 18.6717 31.8705 18.6685 31.7958C18.6654 31.7211 18.6439 31.6484 18.606 31.584C19.537 30.1 19.579 30.1245 19.481 30.058C19.4625 30.0466 19.4405 30.0424 19.4192 30.0463C19.3978 30.0501 19.3787 30.0618 19.3655 30.079C19.201 30.317 18.424 31.409 18.424 31.409C18.3412 31.3682 18.2482 31.3528 18.1567 31.3646C18.0652 31.3765 17.9792 31.415 17.9095 31.4755C17.584 31.248 16.5515 30.5095 16.2225 30.254C16.2365 30.1732 16.2285 30.0902 16.1992 30.0136C16.17 29.937 16.1205 29.8697 16.0562 29.8189C15.9919 29.7681 15.915 29.7356 15.8337 29.7249C15.7524 29.7142 15.6698 29.7256 15.5945 29.758C15.5191 29.7904 15.454 29.8425 15.4058 29.9089C15.3577 29.9753 15.3284 30.0534 15.321 30.135C15.3137 30.2167 15.3285 30.2988 15.3639 30.3727C15.3994 30.4467 15.4542 30.5096 15.5225 30.555C15.2215 31.374 14.3465 34.209 14.1225 35.035C14.0383 35.0133 13.9499 35.0156 13.867 35.0416C13.7841 35.0675 13.7101 35.1162 13.6535 35.182C13.3035 35.063 12.2535 34.7445 11.935 34.643C11.935 34.5233 11.8874 34.4084 11.8027 34.3237C11.718 34.2391 11.6032 34.1915 11.4835 34.1915C11.3637 34.1915 11.2489 34.2391 11.1642 34.3237C11.0795 34.4084 11.032 34.5233 11.032 34.643C11.0327 34.743 11.0659 34.84 11.1265 34.9195L10.5 35.7C10.4399 35.6868 10.3779 35.6863 10.3176 35.6983C10.2574 35.7104 10.2003 35.7348 10.15 35.77L8.48045 34.5065C8.49867 34.3982 8.47677 34.2869 8.41883 34.1935C8.3609 34.1002 8.27092 34.0312 8.16575 33.9994C8.06058 33.9676 7.94744 33.9753 7.84752 34.021C7.74759 34.0666 7.66775 34.1472 7.62295 34.2475C7.58814 34.3196 7.57396 34.4 7.58199 34.4797C7.59002 34.5594 7.61995 34.6353 7.66845 34.699C7.33945 35.1925 6.14595 37.1 5.97445 37.3765C5.91163 37.3607 5.84616 37.3586 5.78246 37.3704C5.71877 37.3822 5.65835 37.4075 5.60532 37.4447C5.55228 37.4819 5.50786 37.53 5.47508 37.5859C5.44229 37.6417 5.42191 37.704 5.41532 37.7684C5.40872 37.8329 5.41607 37.898 5.43685 37.9593C5.45764 38.0206 5.49138 38.0768 5.53579 38.1239C5.58019 38.1711 5.63422 38.2081 5.69421 38.2326C5.7542 38.257 5.81874 38.2682 5.88345 38.2655ZM11.9735 39.5045C11.9475 39.5045 11.9225 39.5148 11.9042 39.5332C11.8858 39.5516 11.8755 39.5765 11.8755 39.6025C11.8755 39.6285 11.8858 39.6534 11.9042 39.6718C11.9225 39.6902 11.9475 39.7005 11.9735 39.7005C12.586 39.7005 19.775 39.4205 20.0235 39.417C20.0398 39.4134 20.0544 39.4043 20.0648 39.3912C20.0753 39.3782 20.081 39.362 20.081 39.3452C20.081 39.3285 20.0753 39.3123 20.0648 39.2993C20.0544 39.2862 20.0398 39.2771 20.0235 39.2735C19.047 39.277 12.6 39.4345 11.9735 39.5045ZM15.05 37.002C15.0722 37.002 15.0936 36.9931 15.1093 36.9774C15.1251 36.9616 15.134 36.9403 15.134 36.918C15.134 36.8957 15.1251 36.8744 15.1093 36.8586C15.0936 36.8428 15.0722 36.834 15.05 36.834C14.7735 36.834 13.7725 36.7745 13.538 36.785C13.4971 36.785 13.4579 36.8012 13.4291 36.8301C13.4002 36.859 13.384 36.8982 13.384 36.939C13.384 36.9798 13.4002 37.019 13.4291 37.0479C13.4579 37.0768 13.4971 37.093 13.538 37.093C13.769 37.121 14.7595 37.0265 15.05 37.002ZM11.3085 37.45H9.79995C9.76733 37.4515 9.73572 37.4618 9.70844 37.4798C9.68116 37.4977 9.65921 37.5227 9.64489 37.552C9.63058 37.5814 9.62442 37.614 9.62707 37.6466C9.62972 37.6791 9.64108 37.7104 9.65995 37.737C9.75445 37.877 9.82795 37.7685 11.3155 37.6425C11.3339 37.6337 11.3494 37.6196 11.36 37.6021C11.3706 37.5846 11.3758 37.5644 11.3751 37.544C11.3744 37.5235 11.3676 37.5037 11.3558 37.487C11.344 37.4703 11.3275 37.4575 11.3085 37.45ZM5.34095 39.319C5.41445 39.319 6.47845 39.2035 6.71295 39.193C6.73894 39.193 6.76387 39.1827 6.78225 39.1643C6.80063 39.1459 6.81095 39.121 6.81095 39.095C6.81095 39.069 6.80063 39.0441 6.78225 39.0257C6.76387 39.0073 6.73894 38.997 6.71295 38.997C6.57645 38.997 5.39345 39.046 5.31295 39.0845C5.29158 39.0974 5.27438 39.1161 5.26342 39.1385C5.25246 39.1609 5.2482 39.186 5.25116 39.2108C5.25411 39.2356 5.26416 39.259 5.28009 39.2781C5.29602 39.2973 5.31715 39.3115 5.34095 39.319Z" fill="black"/>
<path d="M17.6926 33.25H17.7486C19.2361 33.117 19.1836 33.2185 19.2466 33.1485C19.2582 33.1348 19.2658 33.1181 19.2686 33.1003C19.2714 33.0826 19.2692 33.0644 19.2624 33.0477C19.2555 33.0311 19.2442 33.0167 19.2297 33.0061C19.2152 32.9954 19.198 32.989 19.1801 32.9875C18.6586 32.9875 18.1686 32.942 17.6996 32.963C17.5001 32.9665 17.5176 33.25 17.6926 33.25ZM9.86657 30.1945C9.82851 30.1945 9.79201 30.2096 9.7651 30.2365C9.73818 30.2634 9.72307 30.2999 9.72307 30.338C9.72307 30.3761 9.73818 30.4126 9.7651 30.4395C9.79201 30.4664 9.82851 30.4815 9.86657 30.4815C10.3671 30.4815 12.3166 30.303 12.7891 30.254C12.8115 30.2497 12.8316 30.2378 12.8462 30.2202C12.8607 30.2026 12.8686 30.1805 12.8686 30.1577C12.8686 30.135 12.8607 30.1129 12.8462 30.0953C12.8316 30.0777 12.8115 30.0658 12.7891 30.0615C12.3026 30.1 10.3496 30.1525 9.86657 30.1945ZM9.62857 31.0135C9.60041 31.0205 9.57578 31.0375 9.55929 31.0614C9.54281 31.0852 9.53561 31.1143 9.53905 31.1431C9.54249 31.1719 9.55633 31.1985 9.57797 31.2178C9.59961 31.2371 9.62756 31.2478 9.65657 31.248C10.2096 31.248 12.3796 31.052 12.9256 31.0485C12.9497 31.0485 12.9728 31.0389 12.9899 31.0218C13.007 31.0048 13.0166 30.9816 13.0166 30.9575C13.0166 30.9334 13.007 30.9102 12.9899 30.8931C12.9728 30.8761 12.9497 30.8665 12.9256 30.8665C11.8245 30.8423 10.7231 30.8914 9.62857 31.0135ZM12.6456 31.5735C11.7296 31.5603 10.8136 31.5965 9.90157 31.682C9.73357 31.703 9.72657 31.9585 9.90157 31.9585C10.2131 31.9585 11.9141 31.7835 12.6491 31.7555C12.661 31.7553 12.6728 31.7527 12.6838 31.7479C12.6947 31.7431 12.7046 31.7362 12.7129 31.7276C12.7212 31.719 12.7277 31.7088 12.7321 31.6977C12.7364 31.6866 12.7385 31.6747 12.7383 31.6627C12.7381 31.6508 12.7355 31.639 12.7307 31.6281C12.7259 31.6171 12.719 31.6072 12.7104 31.5989C12.7018 31.5906 12.6917 31.5841 12.6805 31.5798C12.6694 31.5754 12.6575 31.5733 12.6456 31.5735ZM13.7971 24.0345C13.9686 24.0345 15.7151 23.8525 16.0581 23.828C16.0822 23.828 16.1053 23.8184 16.1224 23.8013C16.1395 23.7843 16.1491 23.7611 16.1491 23.737C16.1491 23.7129 16.1395 23.6897 16.1224 23.6727C16.1053 23.6556 16.0822 23.646 16.0581 23.646C15.8866 23.646 14.0141 23.702 13.8076 23.716C13.6011 23.73 13.6011 24.0345 13.7971 24.0345ZM14.1576 24.7415C14.7071 24.7415 16.8491 24.5385 17.3916 24.5035C17.4113 24.4995 17.4291 24.4887 17.4419 24.4731C17.4547 24.4575 17.4617 24.4379 17.4617 24.4177C17.4617 24.3976 17.4547 24.378 17.4419 24.3624C17.4291 24.3467 17.4113 24.336 17.3916 24.332C16.8456 24.3565 14.6896 24.367 14.1541 24.423C14.1159 24.4291 14.0813 24.4487 14.0564 24.4782C14.0315 24.5077 14.018 24.5451 14.0184 24.5838C14.0189 24.6224 14.0331 24.6595 14.0587 24.6885C14.0842 24.7174 14.1193 24.7363 14.1576 24.7415Z" fill="black"/>
</svg>
