<svg width="350" height="320" viewBox="0 0 350 320" fill="none" xmlns="http://www.w3.org/2000/svg">
<path fill-rule="evenodd" clip-rule="evenodd" d="M152.845 136.736C152.6 137.168 151.883 141.536 154.7 141.536C155.192 141.537 155.669 141.376 156.041 141.082C156.414 140.788 156.659 140.382 156.73 139.936C157.325 135.04 153.825 135.056 152.845 136.736ZM178.22 136.672C178.378 138.368 178.588 139.872 180.443 139.872C180.935 139.873 181.411 139.712 181.784 139.418C182.157 139.124 182.401 138.718 182.473 138.272C182.51 137.243 182.387 136.214 182.105 135.216C181.09 133.504 177.958 133.92 178.22 136.672ZM165.97 152.128C166.513 152.128 171.22 151.92 172.323 151.136C172.655 150.912 172.62 150.48 172.62 150.08C172.515 145.542 172.036 141.017 171.185 136.544C171.185 136.304 170.958 136.256 170.818 136.288C170.678 136.32 170.608 136.544 170.625 136.928C170.625 138.24 170.503 138.688 171.01 146.032C171.343 150.832 171.203 149.488 171.308 150.288C169.667 150.838 167.982 151.271 166.268 151.584C165.13 151.808 165.935 152.128 165.97 152.128ZM171.5 163.2C170.202 163.837 168.77 164.213 167.3 164.304C167.226 164.304 167.155 164.331 167.102 164.379C167.05 164.427 167.02 164.492 167.02 164.56C167.02 164.628 167.05 164.693 167.102 164.741C167.155 164.789 167.226 164.816 167.3 164.816C168.122 165.087 169.001 165.184 169.87 165.101C170.739 165.018 171.576 164.757 172.319 164.337C173.063 163.917 173.693 163.35 174.163 162.676C174.633 162.003 174.931 161.241 175.035 160.448C175.044 160.416 175.046 160.382 175.041 160.348C175.036 160.315 175.024 160.283 175.005 160.254C174.987 160.225 174.962 160.2 174.932 160.18C174.903 160.159 174.87 160.145 174.834 160.136C174.798 160.128 174.761 160.126 174.725 160.131C174.688 160.135 174.653 160.147 174.622 160.164C174.59 160.181 174.562 160.203 174.54 160.23C174.518 160.257 174.502 160.288 174.493 160.32C173.784 161.501 172.753 162.493 171.5 163.2ZM93.0652 39.8083C97.5627 53.5523 113.47 52.8803 115.325 53.9043C115.325 54.0643 118.965 66.8803 120.435 68.6403C121.258 69.6163 123.235 69.2323 124.548 69.0083C127.628 68.4483 131.198 68.2723 133.805 66.3683C134.47 65.8723 134.085 63.8563 133.91 63.1683C133.353 60.2914 132.581 57.4528 131.6 54.6723C131.214 53.8334 130.887 52.973 130.62 52.0963C131.828 51.1182 133.141 50.2551 134.54 49.5203C136.849 48.0821 138.903 46.3283 140.63 44.3203C143.972 39.8447 145.482 34.436 144.897 29.0436C144.311 23.6512 141.667 18.6197 137.428 14.8323C124.46 3.20029 101.01 6.99229 93.3977 21.6643C90.7902 26.7523 91.2977 34.4643 93.0652 39.8083ZM133 65.6003C130.673 67.3123 127.243 67.5363 124.25 68.0963C123.445 68.2563 121.538 68.6883 121.03 68.0963C120.04 66.7895 119.328 65.324 118.93 63.7763C123.463 63.1922 127.897 62.0847 132.125 60.4803C132.697 62.1369 132.992 63.8631 133 65.6003ZM131.933 59.8243C127.461 60.5862 123.07 61.6997 118.808 63.1523C118.356 61.2953 117.771 59.4674 117.058 57.6803C121.579 57.2473 126.013 56.2459 130.235 54.7043C130.941 56.3956 131.526 58.1273 131.985 59.8883L131.933 59.8243ZM94.5002 22.1603C101.833 8.30429 124.25 4.80029 136.5 15.7603C140.482 19.3308 142.973 24.0618 143.541 29.1342C144.11 34.2067 142.721 39.3013 139.615 43.5363C136.588 47.4403 130.463 50.1283 129.518 51.5363C129.185 52.0323 129.798 53.2963 130.183 54.1923C128.188 54.5443 126 54.9763 124.04 55.3763C123.515 53.1843 121.065 44.3363 120.155 42.2563C119.805 41.4243 119.49 41.4883 118.563 41.7283C113.453 41.7283 107.835 40.5443 106.033 36.1443C105.815 35.6285 105.662 35.0917 105.578 34.5443C105.333 32.2403 107.328 29.5523 109.533 29.7443C109.218 31.5043 109.533 34.8643 111.178 35.8723C112.823 36.8803 114.678 35.2803 114.678 33.8403C114.584 32.8019 114.215 31.8 113.602 30.9217C112.989 30.0434 112.151 29.3151 111.16 28.8003C111.435 28.2291 111.843 27.7194 112.355 27.3066C112.867 26.8938 113.471 26.5878 114.125 26.4097C114.78 26.2316 115.468 26.1858 116.144 26.2753C116.82 26.3649 117.466 26.5877 118.038 26.9283C116.655 29.3923 118.038 35.0403 120.488 33.7123C122.938 32.3843 122.133 29.1203 120.61 27.3123C119.875 26.4323 119.718 26.6723 120.085 26.4163C122.938 24.5123 126.175 26.7203 127.54 29.6163C129.5 33.6003 125.3 38.5123 122.64 40.0003C122.575 40.0364 122.529 40.0945 122.511 40.1621C122.492 40.2296 122.505 40.3009 122.544 40.3603C122.583 40.4197 122.647 40.4623 122.721 40.4788C122.795 40.4953 122.873 40.4844 122.938 40.4483C126.193 38.7043 130.305 33.5683 128.433 29.2483C126.56 24.9283 121.853 23.2643 118.878 25.8403C118.129 25.3704 117.274 25.0601 116.376 24.9323C115.478 24.8046 114.561 24.8626 113.691 25.1021C112.821 25.3416 112.021 25.7565 111.35 26.3163C110.679 26.876 110.153 27.5663 109.813 28.3363C106.558 27.9523 103.81 31.4243 104.178 34.5763C104.375 35.9694 104.951 37.2951 105.853 38.4326C106.755 39.57 107.954 40.483 109.34 41.0883C110.985 41.8083 116.83 43.1203 119.14 42.5123C119.945 44.1123 122.868 53.5043 123.393 55.4723C115.623 57.0723 117.198 57.8243 116.813 56.7843C116.358 55.4883 116.078 53.5843 115.693 53.4563C106.033 51.4563 97.3177 49.9843 94.0627 39.5043C92.4702 34.4323 92.0502 26.9123 94.5002 22.1603ZM110.74 30.0643C111.403 30.4945 111.958 31.05 112.365 31.6933C112.773 32.3365 113.024 33.0524 113.103 33.7923C113.103 34.2243 112.035 35.3923 111.353 34.1123C110.83 32.8198 110.644 31.4338 110.81 30.0643H110.74ZM119 27.6163C120.4 28.8643 121.275 31.7763 119.753 32.6243C119.225 31.8944 118.883 31.0654 118.753 30.1986C118.623 29.3318 118.707 28.4493 119 27.6163ZM66.5002 88.6883C73.6227 86.6563 82.2502 88.4163 85.5752 95.6163C91.3327 107.808 76.1077 114.016 76.2652 114.656C76.6152 116.256 77.2452 119.056 77.5077 120.672C77.5286 120.808 77.6076 120.931 77.7274 121.013C77.8472 121.096 77.9979 121.131 78.1465 121.112C78.295 121.093 78.4291 121.021 78.5194 120.911C78.6096 120.802 78.6486 120.664 78.6277 120.528C78.4177 118.928 78.1902 116.624 77.9452 114.96C80.4195 114.053 82.709 112.771 84.7177 111.168C97.0727 97.8403 83.2827 81.0243 65.6602 86.2883C62.8698 87.0322 60.4018 88.5518 58.5987 90.6361C56.7956 92.7205 55.7467 95.2663 55.5977 97.9203C55.0377 104.224 60.5327 109.664 69.4052 108.96C69.5389 108.939 69.6601 108.875 69.7474 108.78C69.8347 108.685 69.8826 108.564 69.8826 108.44C69.8826 108.316 69.8347 108.196 69.7474 108.101C69.6601 108.006 69.5389 107.942 69.4052 107.92C61.5302 108.288 57.3127 103.12 58.0652 98.1603C58.2395 95.9813 59.1422 93.9039 60.651 92.2096C62.1598 90.5154 64.2017 89.2861 66.5002 88.6883ZM197.208 46.9443C197.356 46.9804 197.514 46.961 197.647 46.8905C197.78 46.82 197.877 46.7041 197.916 46.5683C197.956 46.4325 197.935 46.2879 197.858 46.1664C197.78 46.0449 197.654 45.9564 197.505 45.9203C189.928 43.9683 187.74 37.8403 190.19 33.3443C191.144 31.3363 192.751 29.6452 194.792 28.5003C196.833 27.3554 199.21 26.8122 201.6 26.9443C214.76 27.2483 220.535 38.3203 215.6 46.2243C212.328 51.6323 207.953 53.0883 202.353 53.7603C202.176 53.783 202.012 53.8578 201.886 53.9732C201.759 54.0887 201.678 54.2386 201.653 54.4003C201.46 55.8723 201.04 58.7683 200.725 60.4483C200.695 60.5819 200.724 60.7211 200.806 60.8351C200.888 60.9491 201.016 61.0287 201.163 61.0563C201.309 61.0839 201.461 61.0572 201.586 60.9822C201.711 60.9072 201.798 60.7899 201.828 60.6563C202.23 58.9283 202.773 56.8963 203.14 55.1843C205.799 55.0536 208.414 54.5126 210.875 53.5843C216.808 50.3843 220.413 45.3283 219.94 38.9283C218.838 23.9043 194.863 18.5283 187.968 32.5283C185.29 38.2243 188.545 45.1523 197.208 46.9443ZM294.438 122.016C294.237 119.05 293.08 116.205 291.113 113.84C289.22 111.893 286.911 110.321 284.329 109.22C281.747 108.12 278.946 107.514 276.098 107.44C273.199 107.317 270.33 108.021 267.887 109.455C265.445 110.888 263.55 112.979 262.465 115.44C259.718 121.248 263.025 128.016 271.653 129.936C271.73 129.968 271.813 129.984 271.897 129.983C271.982 129.982 272.065 129.964 272.141 129.93C272.217 129.897 272.284 129.849 272.337 129.789C272.39 129.729 272.429 129.66 272.45 129.585C272.47 129.51 272.473 129.432 272.457 129.356C272.441 129.281 272.408 129.209 272.359 129.146C272.309 129.084 272.246 129.032 272.172 128.994C272.098 128.957 272.017 128.934 271.933 128.928C264.408 126.848 262.168 120.928 264.635 116.352C265.589 114.344 267.196 112.653 269.237 111.508C271.278 110.363 273.655 109.82 276.045 109.952C278.472 110.014 280.86 110.525 283.065 111.455C285.27 112.384 287.246 113.713 288.873 115.36C290.512 117.316 291.486 119.67 291.673 122.128C292.915 136.24 276.29 136.288 276.133 137.408C275.923 139.008 275.538 141.824 275.205 143.456C275.175 143.59 275.204 143.729 275.286 143.843C275.368 143.957 275.496 144.037 275.643 144.064C275.789 144.092 275.941 144.065 276.066 143.99C276.191 143.915 276.278 143.798 276.308 143.664C276.728 141.952 277.253 139.904 277.62 138.192C280.284 138.056 282.903 137.515 285.373 136.592C291.218 133.456 294.91 128.48 294.438 122.016ZM85.2952 132.8C86.0477 129.952 83.7902 126.96 81.5502 127.2C80.0974 127.057 78.6345 127.019 77.1752 127.088C73.3777 127.92 71.5927 132.464 75.1627 134.688C79.2577 137.184 84.5602 135.456 85.2952 132.8ZM82.5827 132.48C81.9612 132.954 81.2 133.249 80.3952 133.328C75.6352 133.936 74.6202 130.128 77.8227 128.88L81.5852 128.24C83.2127 128.368 83.5802 131.552 82.5827 132.4V132.48ZM199.273 66.5603C195.195 65.2003 190.785 69.4083 193.673 72.9603C196.56 76.5123 202.283 76.5123 203.928 74.1443C205.573 71.7763 204.575 68.1923 202.37 67.7443C202.178 67.6643 200.655 67.0243 199.273 66.5603ZM201.478 72.9603C200.695 73.2038 199.856 73.2582 199.044 73.118C198.231 72.9778 197.472 72.6479 196.84 72.1603C196.323 71.8208 195.898 71.3774 195.598 70.8643C195.09 69.5683 196.91 68.2403 198.24 68.1603L202.02 68.6563C203.49 69.3763 202.755 72.5123 201.478 73.0083V72.9603ZM276.798 150.848C276.448 150.704 274.645 150.016 273.718 149.696C269.623 148.336 265.23 152.544 268.118 156.096C271.005 159.648 276.71 159.648 278.373 157.28C280.035 154.912 279.02 151.296 276.798 150.848ZM275.905 156.144C275.122 156.386 274.284 156.44 273.472 156.3C272.66 156.16 271.9 155.831 271.268 155.344C270.755 154.994 270.331 154.546 270.025 154.032C269.535 152.752 271.338 151.424 272.668 151.344L276.448 151.84C277.918 152.512 277.183 155.632 275.905 156.144Z" fill="white"/>
<path fill-rule="evenodd" clip-rule="evenodd" d="M262.5 239.104C259 223.36 245.385 199.104 229.04 192.912L225.75 186.624C225.727 186.579 225.693 186.538 225.651 186.506C225.609 186.473 225.559 186.449 225.506 186.436C225.453 186.422 225.398 186.419 225.343 186.427C225.288 186.434 225.236 186.453 225.19 186.48L221.69 188.544C220.579 181.753 217.184 175.446 211.978 170.496C215.618 165.36 221.445 163.792 227.465 163.552C232.453 163.36 236.128 163.088 239.015 159.184C244.738 151.472 243.39 143.952 236.67 136.784C226.433 125.872 222.408 129.136 217.42 123.104C207.935 111.776 205.783 95.0245 191.818 86.3045C173.968 75.2485 164.343 84.1605 160.598 86.9125C155.12 83.8725 142.905 84.9285 137.655 89.0405C133.193 92.5285 127.278 97.0405 124.985 102.08C120.103 112.72 120.628 125.312 113.488 134.96C111.738 137.36 108.745 138.976 106.628 141.248C103.721 144.58 101.249 148.21 99.2603 152.064C96.6703 156.544 94.6928 161.52 97.0553 166.16C100.223 172.368 107.31 178.288 114.87 177.84C119.245 177.568 125.038 175.168 129.15 176.752C131.6 177.68 132.545 179.84 134.4 181.648C138.6 185.92 148.4 187.216 153.825 184.256C147.858 191.2 138.758 190.96 122.885 198.96C98.5254 211.216 89.6353 225.136 87.0278 239.392C86.0304 243.828 85.2943 248.309 84.8228 252.816C83.3178 276.064 91.0353 305.536 116.06 310.416C122.92 311.76 130.778 312.624 137.568 311.072C150.43 308.144 165.778 300.224 177.048 293.792C182.298 290.8 201.723 278.816 210.753 277.248C211.296 281.519 212.474 285.701 214.253 289.68C221.48 303.264 233.048 311.296 249.253 307.808C259.753 305.552 262.745 295.328 263.025 285.536C268.293 275.2 264.11 246.624 262.5 239.104ZM201.95 164.192C205.065 164.72 207.2 167.392 209.51 169.568C215.618 175.152 219.818 181.136 221.078 188.768C216.02 191.712 212.73 193.568 212.66 193.664C212.59 193.76 210.158 188.096 208.688 187.408C206.489 186.41 204.494 185.073 202.79 183.456C201.478 182.128 199.868 179.792 200.078 178.032C201.008 177.58 202.023 177.292 203.07 177.184V176.192C197.663 176.336 195.808 180.848 195.318 181.856C194.968 182.576 194.478 183.296 193.358 183.184C192.238 183.072 191.835 181.888 192.255 180.832C192.675 179.776 193.69 175.136 200.848 174.128C200.937 174.117 201.024 174.089 201.102 174.047C201.18 174.005 201.248 173.95 201.302 173.883C201.357 173.817 201.396 173.742 201.419 173.662C201.442 173.582 201.447 173.498 201.434 173.416C201.421 173.335 201.391 173.256 201.345 173.184C201.299 173.113 201.238 173.051 201.166 173.001C201.094 172.951 201.012 172.915 200.924 172.894C200.836 172.874 200.745 172.869 200.655 172.88C199.157 173.055 197.705 173.472 196.368 174.112C195.165 174.649 194.098 175.409 193.234 176.342C192.369 177.276 191.726 178.364 191.345 179.536C190.505 181.728 187.565 180.752 188.265 178.864C188.97 177.028 190.018 175.317 191.363 173.808C192.856 172.507 194.651 171.528 196.613 170.944C198.153 170.368 199.465 170.64 199.815 170.176C200.165 169.712 199.343 168.16 198.923 167.696C196.665 165.232 190.173 167.36 187.688 164.608C186.095 162.8 189.438 162.736 190.785 162.576C194.565 162.192 198.153 163.536 201.95 164.192ZM208.373 203.84C203.37 205.331 198.267 206.523 193.095 207.408C194.845 198.304 196.035 190.496 195.86 187.664C199.938 188.384 204.61 188.896 209.72 189.664C211.103 191.76 211.855 193.52 212.188 194.016L208.793 195.984C208.618 196.192 208.653 195.328 208.373 203.84ZM189.368 250.064C190.143 253.137 190.692 256.253 191.013 259.392C183.838 258.976 178.36 259.056 175.665 258.96C175.77 254.464 175.823 253.072 175.91 252.128C180.327 251.105 184.828 250.415 189.368 250.064ZM161.84 210.656C171.768 210.721 181.683 209.982 191.468 208.448C188.353 223.808 183.61 242.272 181.37 245.968C176.225 233.136 176.75 233.088 161.84 210.656ZM182.84 245.76C185.675 239.952 189.98 222.624 192.85 208.192C198.074 207.297 203.225 206.079 208.268 204.544C207.725 221.824 207.568 243.392 208.705 260.72C205.38 260.448 200.55 260.064 195.86 259.728C195.563 257.136 194.39 248.112 193.393 245.744C193.13 245.104 192.815 244.848 191.643 244.816C188.716 244.934 185.803 245.249 182.928 245.76H182.84ZM189.088 184.72C187.315 183.773 185.9 182.356 185.028 180.656C185.838 180.969 186.683 181.2 187.548 181.344C187.876 181.682 188.299 181.931 188.771 182.063C189.244 182.196 189.747 182.207 190.225 182.096C191.013 181.872 190.505 181.776 190.925 182.784C191.087 183.191 191.358 183.552 191.715 183.836C192.071 184.119 192.501 184.315 192.963 184.405C193.426 184.494 193.905 184.475 194.357 184.348C194.809 184.221 195.218 183.992 195.545 183.68C196.228 183.12 196.28 182.448 197.103 181.008C197.908 180.864 198.695 180.672 199.465 180.464C201.548 185.456 208.075 187.872 208.53 188.24C200.848 187.2 194.04 186.544 189.175 184.72H189.088ZM155.54 182.8C159.74 178.352 158.883 175.168 154.56 172.016C145.81 165.744 146.895 167.424 143.22 160.416C138.898 149.04 142.625 131.12 145.828 119.456C146.703 116.256 152.67 112.832 157.01 113.344C163.03 114.048 160.51 116.944 165.655 118.592C166.549 118.831 167.472 118.96 168.403 118.976C168.458 118.992 168.516 118.998 168.574 118.993C168.631 118.988 168.687 118.973 168.738 118.949C168.789 118.924 168.835 118.891 168.872 118.85C168.909 118.81 168.937 118.763 168.954 118.712C168.971 118.662 168.978 118.609 168.972 118.556C168.967 118.504 168.951 118.453 168.924 118.406C168.897 118.359 168.86 118.317 168.816 118.284C168.772 118.25 168.72 118.224 168.665 118.208C165.936 116.712 163.42 114.911 161.175 112.848C162.243 108.864 164.955 106.688 170.048 106.656C173.548 106.656 176.313 109.088 178.798 111.168C181.808 113.68 185.045 120.464 184.8 124.192C184.247 128.512 185.354 132.874 187.933 136.528C189.683 139.312 192.973 141.728 194.933 144.08C196.018 145.392 195.388 151.248 194.758 153.824C193.935 156.08 192.185 160.384 191.783 161.36C184.468 161.6 184.783 165.184 188.283 166.72C185.01 170.304 177.013 174.288 182.735 179.312C183.96 181.664 185.92 184.88 188.545 185.856C190.408 186.547 192.335 187.082 194.303 187.456C194.688 189.936 193.428 198.144 191.503 207.696C181.459 209.224 171.286 209.926 161.105 209.792C154.788 200.336 148.505 191.376 146.913 189.936C150.449 188.293 153.453 185.833 155.628 182.8H155.54ZM143.605 191.232C147.105 190.032 145.355 190.24 146.195 190.832C147.035 191.424 152.81 199.792 159.513 209.728C151.568 209.616 142.625 209.072 139.248 208.72C140.263 207.984 137.638 195.344 136.623 193.744C139.16 192.816 141.505 192 143.693 191.232H143.605ZM135.328 194.24C136.767 198.952 137.745 203.771 138.25 208.64C130.699 207.651 123.292 205.896 116.165 203.408C122.272 199.837 128.714 196.769 135.415 194.24H135.328ZM136.92 309.92C130.358 311.424 122.675 310.544 116.06 309.248C105.718 307.216 98.5603 300.896 93.9053 292.8C86.5028 280 84.2978 260.976 86.5553 247.648C87.0103 244.976 87.5878 242.336 88.0779 239.648C90.8604 224.4 100.993 212.912 115.133 204.224C129.01 208.88 138.338 210.512 160.143 210.624C175.245 233.024 175.578 235.264 179.9 246.224C178.57 246.448 172.41 247.584 171.36 248.368C170.94 248.672 170.94 249.28 171.36 258.896C155.435 259.184 139.86 261.456 125.213 270.096C123.463 258.56 125.475 255.072 129.553 248.464C135.958 238.08 134.803 236.16 130.76 230.256C130.094 229.459 129.617 228.544 129.36 227.568C129.36 227.184 127.61 226.656 130.078 230.624C133.578 236.448 134.523 237.824 128.328 247.824C123.795 255.152 121.94 258.912 124.67 270.432C123.445 271.184 122.045 272.032 120.698 273.024C118.639 274.35 116.707 275.832 114.923 277.456C114.888 277.518 114.881 277.59 114.904 277.656C114.927 277.722 114.978 277.777 115.045 277.808C115.113 277.84 115.191 277.846 115.263 277.825C115.335 277.804 115.396 277.758 115.43 277.696C115.973 276.816 125.02 271.296 127.453 270.16C141.033 263.904 156.048 258.496 180.635 259.984C180.326 269.497 181.403 279.004 183.838 288.256C171.203 295.552 153.248 306.208 137.008 309.92H136.92ZM184.923 287.616C182.675 278.593 181.681 269.347 181.965 260.096C208.53 261.696 200.2 261.184 208.775 261.696C209.09 266.368 209.563 271.44 210.263 276.096C203.403 277.264 191.065 284.144 185.01 287.616H184.923ZM248.518 306.656C233.065 310 222.093 302.288 215.128 289.232C207.428 274.832 208.705 212.288 209.143 196.352L225.138 187.296C246.733 229.936 249.323 233.968 254.17 248.096C260.435 266.096 268.695 302.4 248.605 306.656H248.518ZM262.623 282.176C262.217 273.609 260.774 265.109 258.318 256.832C252.77 237.104 246.768 227.216 230.16 195.296L230.65 195.056C245.315 202.224 257.74 224.48 260.995 239.344C262.78 247.104 266.193 272.48 262.71 282.176H262.623Z" fill="white"/>
</svg>
