<svg width="643" height="450" viewBox="0 0 643 450" fill="none" xmlns="http://www.w3.org/2000/svg">
<g clip-path="url(#clip0_54_572)">
<rect x="178" y="74" width="341" height="315" rx="24" fill="white"/>
<path d="M227.159 344.373V350.938C227.159 351.669 226.934 352.255 226.483 352.697C226.033 353.13 225.438 353.347 224.699 353.347C223.951 353.347 223.352 353.126 222.901 352.684C222.451 352.234 222.226 351.622 222.226 350.849H223.386C223.394 351.282 223.505 351.635 223.717 351.907C223.938 352.179 224.265 352.315 224.699 352.315C225.132 352.315 225.455 352.187 225.667 351.932C225.88 351.669 225.986 351.337 225.986 350.938V344.373H227.159ZM229.011 349.74C229.011 349.026 229.155 348.401 229.444 347.866C229.733 347.322 230.128 346.901 230.629 346.604C231.139 346.306 231.704 346.158 232.325 346.158C232.937 346.158 233.468 346.289 233.918 346.553C234.369 346.816 234.704 347.148 234.925 347.547V346.272H236.098V353.258H234.925V351.958C234.696 352.366 234.352 352.705 233.893 352.977C233.442 353.241 232.915 353.373 232.312 353.373C231.692 353.373 231.131 353.22 230.629 352.914C230.128 352.608 229.733 352.179 229.444 351.626C229.155 351.074 229.011 350.445 229.011 349.74ZM234.925 349.752C234.925 349.226 234.819 348.767 234.607 348.376C234.394 347.985 234.105 347.687 233.74 347.483C233.383 347.271 232.988 347.165 232.554 347.165C232.121 347.165 231.726 347.267 231.369 347.471C231.012 347.675 230.727 347.972 230.515 348.363C230.302 348.754 230.196 349.213 230.196 349.74C230.196 350.275 230.302 350.742 230.515 351.142C230.727 351.533 231.012 351.834 231.369 352.047C231.726 352.251 232.121 352.353 232.554 352.353C232.988 352.353 233.383 352.251 233.74 352.047C234.105 351.834 234.394 351.533 234.607 351.142C234.819 350.742 234.925 350.279 234.925 349.752ZM241.462 346.145C242.311 346.145 243 346.404 243.527 346.923C244.054 347.432 244.317 348.172 244.317 349.141V353.258H243.17V349.306C243.17 348.609 242.996 348.078 242.647 347.713C242.299 347.339 241.823 347.152 241.219 347.152C240.608 347.152 240.119 347.343 239.754 347.726C239.397 348.108 239.218 348.665 239.218 349.395V353.258H238.058V346.272H239.218V347.267C239.448 346.91 239.758 346.634 240.149 346.438C240.548 346.243 240.986 346.145 241.462 346.145Z" fill="#60789D"/>
<path d="M285.068 344.373V345.316H281.206V348.312H284.342V349.255H281.206V353.258H280.046V344.373H285.068ZM292.843 349.497C292.843 349.718 292.83 349.952 292.804 350.199H287.221C287.264 350.887 287.498 351.426 287.922 351.817C288.356 352.2 288.878 352.391 289.49 352.391C289.992 352.391 290.408 352.276 290.739 352.047C291.079 351.809 291.317 351.494 291.453 351.104H292.703C292.516 351.775 292.142 352.323 291.581 352.748C291.02 353.164 290.323 353.373 289.49 353.373C288.827 353.373 288.233 353.224 287.706 352.926C287.187 352.629 286.779 352.208 286.482 351.664C286.185 351.112 286.036 350.475 286.036 349.752C286.036 349.03 286.18 348.397 286.469 347.853C286.758 347.309 287.162 346.893 287.68 346.604C288.207 346.306 288.81 346.158 289.49 346.158C290.153 346.158 290.739 346.302 291.249 346.591C291.759 346.88 292.15 347.279 292.422 347.789C292.703 348.291 292.843 348.86 292.843 349.497ZM291.645 349.255C291.645 348.813 291.547 348.435 291.351 348.121C291.156 347.798 290.888 347.556 290.548 347.394C290.217 347.224 289.847 347.139 289.439 347.139C288.853 347.139 288.352 347.326 287.935 347.7C287.527 348.074 287.294 348.592 287.234 349.255H291.645ZM295.534 347.573C295.772 347.156 296.12 346.816 296.579 346.553C297.038 346.289 297.561 346.158 298.147 346.158C298.776 346.158 299.341 346.306 299.842 346.604C300.344 346.901 300.739 347.322 301.028 347.866C301.317 348.401 301.461 349.026 301.461 349.74C301.461 350.445 301.317 351.074 301.028 351.626C300.739 352.179 300.339 352.608 299.83 352.914C299.328 353.22 298.767 353.373 298.147 353.373C297.544 353.373 297.012 353.241 296.554 352.977C296.103 352.714 295.763 352.378 295.534 351.97V353.258H294.374V343.825H295.534V347.573ZM300.276 349.74C300.276 349.213 300.169 348.754 299.957 348.363C299.745 347.972 299.456 347.675 299.09 347.471C298.733 347.267 298.338 347.165 297.905 347.165C297.48 347.165 297.085 347.271 296.719 347.483C296.362 347.687 296.073 347.989 295.853 348.388C295.64 348.779 295.534 349.234 295.534 349.752C295.534 350.279 295.64 350.742 295.853 351.142C296.073 351.533 296.362 351.834 296.719 352.047C297.085 352.251 297.48 352.353 297.905 352.353C298.338 352.353 298.733 352.251 299.09 352.047C299.456 351.834 299.745 351.533 299.957 351.142C300.169 350.742 300.276 350.275 300.276 349.74Z" fill="#60789D"/>
<path d="M347.33 344.437V353.258H346.17V346.68L343.238 353.258H342.422L339.478 346.668V353.258H338.318V344.437H339.567L342.83 351.728L346.094 344.437H347.33ZM348.864 349.74C348.864 349.026 349.008 348.401 349.297 347.866C349.586 347.322 349.981 346.901 350.483 346.604C350.993 346.306 351.558 346.158 352.178 346.158C352.79 346.158 353.321 346.289 353.771 346.553C354.222 346.816 354.558 347.148 354.778 347.547V346.272H355.951V353.258H354.778V351.958C354.549 352.366 354.205 352.705 353.746 352.977C353.296 353.241 352.769 353.373 352.165 353.373C351.545 353.373 350.984 353.22 350.483 352.914C349.981 352.608 349.586 352.179 349.297 351.626C349.008 351.074 348.864 350.445 348.864 349.74ZM354.778 349.752C354.778 349.226 354.672 348.767 354.46 348.376C354.247 347.985 353.958 347.687 353.593 347.483C353.236 347.271 352.841 347.165 352.408 347.165C351.974 347.165 351.579 347.267 351.222 347.471C350.865 347.675 350.58 347.972 350.368 348.363C350.156 348.754 350.049 349.213 350.049 349.74C350.049 350.275 350.156 350.742 350.368 351.142C350.58 351.533 350.865 351.834 351.222 352.047C351.579 352.251 351.974 352.353 352.408 352.353C352.841 352.353 353.236 352.251 353.593 352.047C353.958 351.834 354.247 351.533 354.46 351.142C354.672 350.742 354.778 350.279 354.778 349.752ZM359.071 347.407C359.275 347.008 359.564 346.697 359.938 346.476C360.321 346.255 360.784 346.145 361.328 346.145V347.343H361.022C359.721 347.343 359.071 348.049 359.071 349.459V353.258H357.911V346.272H359.071V347.407Z" fill="#60789D"/>
<path d="M402.752 351.282H398.877L398.163 353.258H396.939L400.151 344.424H401.49L404.689 353.258H403.466L402.752 351.282ZM402.42 350.339L400.814 345.852L399.208 350.339H402.42ZM407.249 347.56C407.479 347.161 407.819 346.829 408.269 346.566C408.728 346.294 409.259 346.158 409.862 346.158C410.483 346.158 411.044 346.306 411.545 346.604C412.055 346.901 412.454 347.322 412.743 347.866C413.032 348.401 413.177 349.026 413.177 349.74C413.177 350.445 413.032 351.074 412.743 351.626C412.454 352.179 412.055 352.608 411.545 352.914C411.044 353.22 410.483 353.373 409.862 353.373C409.268 353.373 408.741 353.241 408.282 352.977C407.831 352.705 407.487 352.37 407.249 351.97V356.572H406.089V346.272H407.249V347.56ZM411.991 349.74C411.991 349.213 411.885 348.754 411.673 348.363C411.46 347.972 411.171 347.675 410.806 347.471C410.449 347.267 410.054 347.165 409.62 347.165C409.195 347.165 408.8 347.271 408.435 347.483C408.078 347.687 407.789 347.989 407.568 348.388C407.356 348.779 407.249 349.234 407.249 349.752C407.249 350.279 407.356 350.742 407.568 351.142C407.789 351.533 408.078 351.834 408.435 352.047C408.8 352.251 409.195 352.353 409.62 352.353C410.054 352.353 410.449 352.251 410.806 352.047C411.171 351.834 411.46 351.533 411.673 351.142C411.885 350.742 411.991 350.275 411.991 349.74ZM415.863 347.407C416.067 347.008 416.356 346.697 416.73 346.476C417.113 346.255 417.576 346.145 418.12 346.145V347.343H417.814C416.514 347.343 415.863 348.049 415.863 349.459V353.258H414.704V346.272H415.863V347.407Z" fill="#60789D"/>
<path d="M463.874 344.437V353.258H462.714V346.68L459.782 353.258H458.966L456.022 346.668V353.258H454.862V344.437H456.111L459.374 351.728L462.638 344.437H463.874ZM465.408 349.74C465.408 349.026 465.552 348.401 465.841 347.866C466.13 347.322 466.525 346.901 467.027 346.604C467.537 346.306 468.102 346.158 468.722 346.158C469.334 346.158 469.865 346.289 470.315 346.553C470.766 346.816 471.101 347.148 471.322 347.547V346.272H472.495V353.258H471.322V351.958C471.093 352.366 470.749 352.705 470.29 352.977C469.84 353.241 469.313 353.373 468.709 353.373C468.089 353.373 467.528 353.22 467.027 352.914C466.525 352.608 466.13 352.179 465.841 351.626C465.552 351.074 465.408 350.445 465.408 349.74ZM471.322 349.752C471.322 349.226 471.216 348.767 471.004 348.376C470.791 347.985 470.502 347.687 470.137 347.483C469.78 347.271 469.385 347.165 468.951 347.165C468.518 347.165 468.123 347.267 467.766 347.471C467.409 347.675 467.124 347.972 466.912 348.363C466.7 348.754 466.593 349.213 466.593 349.74C466.593 350.275 466.7 350.742 466.912 351.142C467.124 351.533 467.409 351.834 467.766 352.047C468.123 352.251 468.518 352.353 468.951 352.353C469.385 352.353 469.78 352.251 470.137 352.047C470.502 351.834 470.791 351.533 471.004 351.142C471.216 350.742 471.322 350.279 471.322 349.752ZM480.472 346.272L476.265 356.547H475.067L476.444 353.181L473.627 346.272H474.914L477.107 351.932L479.274 346.272H480.472Z" fill="#60789D"/>
<path d="M178 262.847L181.794 256.905C185.587 250.963 193.175 239.079 200.762 240.248C208.35 241.416 215.937 255.637 223.525 249.245C231.112 242.852 238.7 215.846 246.287 207.215C253.875 198.584 261.462 208.329 269.05 204.626C276.637 200.923 284.225 183.773 291.812 188.709C299.4 193.645 306.987 220.668 314.575 221.918C322.162 223.167 329.75 198.643 337.337 186.04C344.925 173.436 352.512 172.753 360.1 179.273C367.687 185.793 375.275 199.516 382.862 200.996C390.449 202.477 398.037 191.715 405.624 193.508C413.212 195.3 420.799 209.648 428.387 217.013C435.974 224.379 443.562 224.764 451.149 222.467C458.737 220.17 466.324 215.19 473.912 201.689C481.499 188.187 489.087 166.163 496.674 155.403C504.262 144.644 511.849 145.148 515.643 145.4L519.437 145.653" stroke="#50B720" stroke-width="1.52493"/>
<path d="M181.794 257.666L178 263.608V320.122H519.437V146.414L515.643 146.161C511.849 145.909 504.262 145.405 496.674 156.164C489.087 166.924 481.499 188.948 473.912 202.45C466.324 215.951 458.737 220.93 451.149 223.228C443.562 225.525 435.974 225.14 428.387 217.774C420.799 210.409 413.212 196.061 405.624 194.269C398.037 192.476 390.449 203.238 382.862 201.757C375.275 200.277 367.687 186.554 360.1 180.034C352.512 173.514 344.925 174.197 337.337 186.801C329.75 199.404 322.162 223.928 314.575 222.679C306.987 221.429 299.4 194.406 291.812 189.47C284.225 184.534 276.637 201.684 269.05 205.387C261.462 209.09 253.875 199.345 246.287 207.976C238.7 216.607 231.112 243.613 223.525 250.006C215.937 256.398 208.35 242.177 200.762 241.009C193.175 239.84 185.587 251.724 181.794 257.666Z" fill="url(#paint0_linear_54_572)"/>
<line x1="407.901" y1="144.877" x2="407.901" y2="320.604" stroke="#BEC3E1" stroke-opacity="0.7" stroke-width="0.910498" stroke-dasharray="2.73 2.73"/>
<rect x="382.861" y="162.177" width="48.2564" height="18.21" rx="5.46299" fill="#50B720"/>
<path d="M397.331 173.196C397.331 173.47 397.263 173.726 397.126 173.967C396.995 174.207 396.798 174.409 396.536 174.573C396.279 174.737 395.973 174.835 395.618 174.868V175.532H395.086V174.868C394.572 174.819 394.157 174.658 393.84 174.385C393.523 174.112 393.365 173.751 393.365 173.303H394.365C394.381 173.516 394.449 173.694 394.569 173.836C394.69 173.972 394.862 174.06 395.086 174.098V172.295C394.72 172.202 394.422 172.109 394.192 172.016C393.963 171.918 393.766 171.765 393.602 171.558C393.444 171.35 393.365 171.066 393.365 170.705C393.365 170.252 393.523 169.878 393.84 169.583C394.157 169.282 394.572 169.107 395.086 169.058V168.394H395.618V169.058C396.099 169.102 396.484 169.255 396.774 169.517C397.069 169.774 397.235 170.129 397.274 170.582H396.274C396.257 170.413 396.192 170.263 396.077 170.132C395.962 169.995 395.81 169.902 395.618 169.853V171.623C395.984 171.711 396.282 171.803 396.512 171.902C396.741 171.995 396.935 172.145 397.093 172.352C397.252 172.555 397.331 172.836 397.331 173.196ZM394.315 170.656C394.315 170.88 394.381 171.055 394.512 171.181C394.649 171.306 394.84 171.407 395.086 171.484V169.829C394.851 169.856 394.662 169.941 394.52 170.083C394.384 170.225 394.315 170.416 394.315 170.656ZM395.618 174.098C395.859 174.06 396.047 173.964 396.184 173.811C396.32 173.653 396.389 173.464 396.389 173.246C396.389 173.027 396.32 172.858 396.184 172.738C396.053 172.612 395.864 172.511 395.618 172.434V174.098ZM399.702 171.697C399.134 171.413 398.85 170.965 398.85 170.353C398.85 170.058 398.924 169.788 399.071 169.542C399.219 169.296 399.44 169.102 399.735 168.96C400.03 168.812 400.391 168.739 400.817 168.739C401.237 168.739 401.595 168.812 401.89 168.96C402.191 169.102 402.415 169.296 402.562 169.542C402.71 169.788 402.783 170.058 402.783 170.353C402.783 170.659 402.704 170.929 402.546 171.164C402.393 171.394 402.188 171.571 401.931 171.697C402.243 171.812 402.488 172 402.669 172.262C402.849 172.519 402.939 172.822 402.939 173.172C402.939 173.527 402.849 173.841 402.669 174.114C402.488 174.387 402.237 174.598 401.915 174.745C401.593 174.893 401.227 174.966 400.817 174.966C400.407 174.966 400.041 174.893 399.719 174.745C399.402 174.598 399.153 174.387 398.973 174.114C398.793 173.841 398.703 173.527 398.703 173.172C398.703 172.817 398.793 172.511 398.973 172.254C399.153 171.997 399.396 171.812 399.702 171.697ZM401.89 170.468C401.89 170.162 401.795 169.927 401.603 169.763C401.412 169.599 401.15 169.517 400.817 169.517C400.489 169.517 400.23 169.599 400.038 169.763C399.847 169.927 399.752 170.165 399.752 170.476C399.752 170.749 399.85 170.973 400.047 171.148C400.249 171.317 400.505 171.402 400.817 171.402C401.128 171.402 401.385 171.314 401.587 171.14C401.789 170.965 401.89 170.741 401.89 170.468ZM400.817 172.107C400.456 172.107 400.161 172.197 399.932 172.377C399.708 172.552 399.596 172.806 399.596 173.139C399.596 173.45 399.705 173.705 399.924 173.901C400.142 174.092 400.44 174.188 400.817 174.188C401.188 174.188 401.481 174.09 401.694 173.893C401.912 173.696 402.021 173.445 402.021 173.139C402.021 172.811 401.909 172.557 401.685 172.377C401.467 172.197 401.177 172.107 400.817 172.107ZM404.42 174.876C404.251 174.876 404.108 174.819 403.994 174.704C403.879 174.59 403.822 174.447 403.822 174.278C403.822 174.109 403.879 173.967 403.994 173.852C404.108 173.737 404.251 173.68 404.42 173.68C404.584 173.68 404.723 173.737 404.838 173.852C404.953 173.967 405.01 174.109 405.01 174.278C405.01 174.447 404.953 174.59 404.838 174.704C404.723 174.819 404.584 174.876 404.42 174.876ZM407.06 173.196C407.115 173.47 407.232 173.677 407.413 173.819C407.593 173.961 407.836 174.032 408.142 174.032C408.53 174.032 408.814 173.879 408.994 173.573C409.174 173.267 409.265 172.746 409.265 172.008C409.133 172.194 408.948 172.339 408.707 172.443C408.472 172.541 408.216 172.59 407.937 172.59C407.582 172.59 407.26 172.519 406.97 172.377C406.681 172.23 406.451 172.014 406.282 171.73C406.118 171.44 406.036 171.09 406.036 170.681C406.036 170.08 406.211 169.602 406.56 169.247C406.915 168.886 407.402 168.706 408.019 168.706C408.762 168.706 409.289 168.954 409.601 169.452C409.917 169.943 410.076 170.7 410.076 171.721C410.076 172.426 410.016 173.003 409.896 173.45C409.781 173.898 409.579 174.237 409.289 174.467C409 174.696 408.598 174.811 408.085 174.811C407.5 174.811 407.049 174.658 406.732 174.352C406.416 174.046 406.238 173.661 406.2 173.196H407.06ZM408.101 171.803C408.429 171.803 408.685 171.702 408.871 171.5C409.062 171.293 409.158 171.019 409.158 170.681C409.158 170.304 409.057 170.012 408.855 169.804C408.658 169.591 408.388 169.484 408.044 169.484C407.699 169.484 407.426 169.594 407.224 169.812C407.027 170.025 406.929 170.307 406.929 170.656C406.929 170.989 407.025 171.265 407.216 171.484C407.413 171.697 407.708 171.803 408.101 171.803ZM411.098 171.754C411.098 170.809 411.257 170.072 411.573 169.542C411.896 169.006 412.448 168.739 413.229 168.739C414.01 168.739 414.559 169.006 414.876 169.542C415.198 170.072 415.359 170.809 415.359 171.754C415.359 172.71 415.198 173.459 414.876 174C414.559 174.535 414.01 174.803 413.229 174.803C412.448 174.803 411.896 174.535 411.573 174C411.257 173.459 411.098 172.71 411.098 171.754ZM414.442 171.754C414.442 171.312 414.411 170.938 414.351 170.632C414.297 170.326 414.182 170.077 414.007 169.886C413.832 169.689 413.573 169.591 413.229 169.591C412.885 169.591 412.625 169.689 412.45 169.886C412.275 170.077 412.158 170.326 412.098 170.632C412.043 170.938 412.016 171.312 412.016 171.754C412.016 172.213 412.043 172.598 412.098 172.91C412.153 173.221 412.267 173.472 412.442 173.664C412.622 173.855 412.885 173.95 413.229 173.95C413.573 173.95 413.832 173.855 414.007 173.664C414.188 173.472 414.305 173.221 414.36 172.91C414.414 172.598 414.442 172.213 414.442 171.754ZM416.348 171.754C416.348 170.809 416.506 170.072 416.823 169.542C417.145 169.006 417.697 168.739 418.478 168.739C419.26 168.739 419.809 169.006 420.125 169.542C420.448 170.072 420.609 170.809 420.609 171.754C420.609 172.71 420.448 173.459 420.125 174C419.809 174.535 419.26 174.803 418.478 174.803C417.697 174.803 417.145 174.535 416.823 174C416.506 173.459 416.348 172.71 416.348 171.754ZM419.691 171.754C419.691 171.312 419.661 170.938 419.601 170.632C419.546 170.326 419.432 170.077 419.257 169.886C419.082 169.689 418.823 169.591 418.478 169.591C418.134 169.591 417.875 169.689 417.7 169.886C417.525 170.077 417.408 170.326 417.348 170.632C417.293 170.938 417.266 171.312 417.266 171.754C417.266 172.213 417.293 172.598 417.348 172.91C417.402 173.221 417.517 173.472 417.692 173.664C417.872 173.855 418.134 173.95 418.478 173.95C418.823 173.95 419.082 173.855 419.257 173.664C419.437 173.472 419.555 173.221 419.609 172.91C419.664 172.598 419.691 172.213 419.691 171.754Z" fill="white"/>
<g filter="url(#filter0_d_54_572)">
<circle cx="408.357" cy="194.955" r="9.10498" fill="white"/>
</g>
<circle cx="408.357" cy="194.955" r="6.06999" fill="#FEA41D"/>
<path d="M276.336 102.832L272.56 110.112V114H270.32V110.112L266.528 102.832H269.056L271.456 107.936L273.84 102.832H276.336ZM281.563 114.144C280.71 114.144 279.942 113.957 279.259 113.584C278.577 113.2 278.038 112.661 277.643 111.968C277.259 111.275 277.067 110.475 277.067 109.568C277.067 108.661 277.265 107.861 277.659 107.168C278.065 106.475 278.614 105.941 279.307 105.568C280.001 105.184 280.774 104.992 281.627 104.992C282.481 104.992 283.254 105.184 283.947 105.568C284.641 105.941 285.185 106.475 285.579 107.168C285.985 107.861 286.187 108.661 286.187 109.568C286.187 110.475 285.979 111.275 285.563 111.968C285.158 112.661 284.603 113.2 283.899 113.584C283.206 113.957 282.427 114.144 281.563 114.144ZM281.563 112.192C281.969 112.192 282.347 112.096 282.699 111.904C283.062 111.701 283.35 111.403 283.563 111.008C283.777 110.613 283.883 110.133 283.883 109.568C283.883 108.725 283.659 108.08 283.211 107.632C282.774 107.173 282.235 106.944 281.595 106.944C280.955 106.944 280.417 107.173 279.979 107.632C279.553 108.08 279.339 108.725 279.339 109.568C279.339 110.411 279.547 111.061 279.963 111.52C280.39 111.968 280.923 112.192 281.563 112.192ZM296.199 105.136V114H293.943V112.88C293.655 113.264 293.276 113.568 292.807 113.792C292.348 114.005 291.847 114.112 291.303 114.112C290.609 114.112 289.996 113.968 289.463 113.68C288.929 113.381 288.508 112.949 288.199 112.384C287.9 111.808 287.751 111.125 287.751 110.336V105.136H289.991V110.016C289.991 110.72 290.167 111.264 290.519 111.648C290.871 112.021 291.351 112.208 291.959 112.208C292.577 112.208 293.063 112.021 293.415 111.648C293.767 111.264 293.943 110.72 293.943 110.016V105.136H296.199ZM300.649 106.512C300.937 106.043 301.31 105.675 301.769 105.408C302.238 105.141 302.771 105.008 303.369 105.008V107.36H302.777C302.073 107.36 301.539 107.525 301.177 107.856C300.825 108.187 300.649 108.763 300.649 109.584V114H298.409V105.136H300.649V106.512ZM310.93 102.832V114H308.69V102.832H310.93ZM318.055 105.008C319.111 105.008 319.964 105.344 320.615 106.016C321.266 106.677 321.591 107.605 321.591 108.8V114H319.351V109.104C319.351 108.4 319.175 107.861 318.823 107.488C318.471 107.104 317.991 106.912 317.383 106.912C316.764 106.912 316.274 107.104 315.911 107.488C315.559 107.861 315.383 108.4 315.383 109.104V114H313.143V105.136H315.383V106.24C315.682 105.856 316.06 105.557 316.519 105.344C316.988 105.12 317.5 105.008 318.055 105.008ZM323.145 109.568C323.145 108.651 323.332 107.851 323.705 107.168C324.079 106.475 324.596 105.941 325.257 105.568C325.919 105.184 326.676 104.992 327.529 104.992C328.628 104.992 329.535 105.269 330.249 105.824C330.975 106.368 331.46 107.136 331.705 108.128H329.289C329.161 107.744 328.943 107.445 328.633 107.232C328.335 107.008 327.961 106.896 327.513 106.896C326.873 106.896 326.367 107.131 325.993 107.6C325.62 108.059 325.433 108.715 325.433 109.568C325.433 110.411 325.62 111.067 325.993 111.536C326.367 111.995 326.873 112.224 327.513 112.224C328.42 112.224 329.012 111.819 329.289 111.008H331.705C331.46 111.968 330.975 112.731 330.249 113.296C329.524 113.861 328.617 114.144 327.529 114.144C326.676 114.144 325.919 113.957 325.257 113.584C324.596 113.2 324.079 112.667 323.705 111.984C323.332 111.291 323.145 110.485 323.145 109.568ZM337.282 114.144C336.429 114.144 335.661 113.957 334.978 113.584C334.296 113.2 333.757 112.661 333.362 111.968C332.978 111.275 332.786 110.475 332.786 109.568C332.786 108.661 332.984 107.861 333.378 107.168C333.784 106.475 334.333 105.941 335.026 105.568C335.72 105.184 336.493 104.992 337.346 104.992C338.2 104.992 338.973 105.184 339.666 105.568C340.36 105.941 340.904 106.475 341.298 107.168C341.704 107.861 341.906 108.661 341.906 109.568C341.906 110.475 341.698 111.275 341.282 111.968C340.877 112.661 340.322 113.2 339.618 113.584C338.925 113.957 338.146 114.144 337.282 114.144ZM337.282 112.192C337.688 112.192 338.066 112.096 338.418 111.904C338.781 111.701 339.069 111.403 339.282 111.008C339.496 110.613 339.602 110.133 339.602 109.568C339.602 108.725 339.378 108.08 338.93 107.632C338.493 107.173 337.954 106.944 337.314 106.944C336.674 106.944 336.136 107.173 335.698 107.632C335.272 108.08 335.058 108.725 335.058 109.568C335.058 110.411 335.266 111.061 335.682 111.52C336.109 111.968 336.642 112.192 337.282 112.192ZM354.557 105.008C355.645 105.008 356.52 105.344 357.181 106.016C357.853 106.677 358.189 107.605 358.189 108.8V114H355.949V109.104C355.949 108.411 355.773 107.883 355.421 107.52C355.069 107.147 354.589 106.96 353.981 106.96C353.373 106.96 352.888 107.147 352.525 107.52C352.173 107.883 351.997 108.411 351.997 109.104V114H349.757V109.104C349.757 108.411 349.581 107.883 349.229 107.52C348.877 107.147 348.397 106.96 347.789 106.96C347.171 106.96 346.68 107.147 346.317 107.52C345.965 107.883 345.789 108.411 345.789 109.104V114H343.549V105.136H345.789V106.208C346.077 105.835 346.445 105.541 346.893 105.328C347.352 105.115 347.853 105.008 348.397 105.008C349.091 105.008 349.709 105.157 350.253 105.456C350.797 105.744 351.219 106.16 351.517 106.704C351.805 106.192 352.221 105.781 352.765 105.472C353.32 105.163 353.917 105.008 354.557 105.008ZM368.555 109.376C368.555 109.696 368.534 109.984 368.491 110.24H362.011C362.064 110.88 362.288 111.381 362.683 111.744C363.078 112.107 363.563 112.288 364.139 112.288C364.971 112.288 365.563 111.931 365.915 111.216H368.331C368.075 112.069 367.584 112.773 366.859 113.328C366.134 113.872 365.243 114.144 364.187 114.144C363.334 114.144 362.566 113.957 361.883 113.584C361.211 113.2 360.683 112.661 360.299 111.968C359.926 111.275 359.739 110.475 359.739 109.568C359.739 108.651 359.926 107.845 360.299 107.152C360.672 106.459 361.195 105.925 361.867 105.552C362.539 105.179 363.312 104.992 364.187 104.992C365.03 104.992 365.782 105.173 366.443 105.536C367.115 105.899 367.632 106.416 367.995 107.088C368.368 107.749 368.555 108.512 368.555 109.376ZM366.235 108.736C366.224 108.16 366.016 107.701 365.611 107.36C365.206 107.008 364.71 106.832 364.123 106.832C363.568 106.832 363.099 107.003 362.715 107.344C362.342 107.675 362.112 108.139 362.027 108.736H366.235ZM375.138 104.08C374.744 104.08 374.413 103.957 374.146 103.712C373.89 103.456 373.762 103.141 373.762 102.768C373.762 102.395 373.89 102.085 374.146 101.84C374.413 101.584 374.744 101.456 375.138 101.456C375.533 101.456 375.858 101.584 376.114 101.84C376.381 102.085 376.514 102.395 376.514 102.768C376.514 103.141 376.381 103.456 376.114 103.712C375.858 103.957 375.533 104.08 375.138 104.08ZM376.242 105.136V114H374.002V105.136H376.242ZM383.368 105.008C384.424 105.008 385.277 105.344 385.928 106.016C386.578 106.677 386.904 107.605 386.904 108.8V114H384.664V109.104C384.664 108.4 384.488 107.861 384.136 107.488C383.784 107.104 383.304 106.912 382.696 106.912C382.077 106.912 381.586 107.104 381.224 107.488C380.872 107.861 380.696 108.4 380.696 109.104V114H378.456V105.136H380.696V106.24C380.994 105.856 381.373 105.557 381.832 105.344C382.301 105.12 382.813 105.008 383.368 105.008ZM393.294 111.472C394.318 110.619 395.134 109.909 395.742 109.344C396.35 108.768 396.857 108.171 397.262 107.552C397.668 106.933 397.87 106.325 397.87 105.728C397.87 105.184 397.742 104.757 397.486 104.448C397.23 104.139 396.836 103.984 396.302 103.984C395.769 103.984 395.358 104.165 395.07 104.528C394.782 104.88 394.633 105.365 394.622 105.984H392.446C392.489 104.704 392.868 103.733 393.582 103.072C394.308 102.411 395.225 102.08 396.334 102.08C397.55 102.08 398.484 102.405 399.134 103.056C399.785 103.696 400.11 104.544 400.11 105.6C400.11 106.432 399.886 107.227 399.438 107.984C398.99 108.741 398.478 109.403 397.902 109.968C397.326 110.523 396.574 111.195 395.646 111.984H400.366V113.84H392.462V112.176L393.294 111.472ZM401.778 108.016C401.778 106.171 402.108 104.725 402.77 103.68C403.442 102.635 404.551 102.112 406.098 102.112C407.644 102.112 408.748 102.635 409.41 103.68C410.082 104.725 410.418 106.171 410.418 108.016C410.418 109.872 410.082 111.328 409.41 112.384C408.748 113.44 407.644 113.968 406.098 113.968C404.551 113.968 403.442 113.44 402.77 112.384C402.108 111.328 401.778 109.872 401.778 108.016ZM408.21 108.016C408.21 107.227 408.156 106.565 408.05 106.032C407.954 105.488 407.751 105.045 407.442 104.704C407.143 104.363 406.695 104.192 406.098 104.192C405.5 104.192 405.047 104.363 404.738 104.704C404.439 105.045 404.236 105.488 404.13 106.032C404.034 106.565 403.986 107.227 403.986 108.016C403.986 108.827 404.034 109.509 404.13 110.064C404.226 110.608 404.428 111.051 404.738 111.392C405.047 111.723 405.5 111.888 406.098 111.888C406.695 111.888 407.148 111.723 407.458 111.392C407.767 111.051 407.97 110.608 408.066 110.064C408.162 109.509 408.21 108.827 408.21 108.016ZM412.825 111.472C413.849 110.619 414.665 109.909 415.273 109.344C415.881 108.768 416.388 108.171 416.793 107.552C417.199 106.933 417.401 106.325 417.401 105.728C417.401 105.184 417.273 104.757 417.017 104.448C416.761 104.139 416.367 103.984 415.833 103.984C415.3 103.984 414.889 104.165 414.601 104.528C414.313 104.88 414.164 105.365 414.153 105.984H411.977C412.02 104.704 412.399 103.733 413.113 103.072C413.839 102.411 414.756 102.08 415.865 102.08C417.081 102.08 418.015 102.405 418.665 103.056C419.316 103.696 419.641 104.544 419.641 105.6C419.641 106.432 419.417 107.227 418.969 107.984C418.521 108.741 418.009 109.403 417.433 109.968C416.857 110.523 416.105 111.195 415.177 111.984H419.897V113.84H411.993V112.176L412.825 111.472ZM422.013 111.472C423.037 110.619 423.853 109.909 424.461 109.344C425.069 108.768 425.576 108.171 425.981 107.552C426.386 106.933 426.589 106.325 426.589 105.728C426.589 105.184 426.461 104.757 426.205 104.448C425.949 104.139 425.554 103.984 425.021 103.984C424.488 103.984 424.077 104.165 423.789 104.528C423.501 104.88 423.352 105.365 423.341 105.984H421.165C421.208 104.704 421.586 103.733 422.301 103.072C423.026 102.411 423.944 102.08 425.053 102.08C426.269 102.08 427.202 102.405 427.853 103.056C428.504 103.696 428.829 104.544 428.829 105.6C428.829 106.432 428.605 107.227 428.157 107.984C427.709 108.741 427.197 109.403 426.621 109.968C426.045 110.523 425.293 111.195 424.365 111.984H429.085V113.84H421.181V112.176L422.013 111.472Z" fill="#0A0E63"/>
</g>
<g filter="url(#filter1_d_54_572)">
<rect x="4" y="2" width="195" height="208" rx="8" fill="white"/>
</g>
<circle cx="20" cy="172" r="4" fill="#FEA41D"/>
<path d="M30.2758 174.896H33.0958V176H28.9078V167.66H30.2758V174.896ZM33.7838 172.664C33.7838 172 33.9198 171.412 34.1918 170.9C34.4718 170.388 34.8478 169.992 35.3198 169.712C35.7998 169.424 36.3278 169.28 36.9038 169.28C37.4238 169.28 37.8758 169.384 38.2598 169.592C38.6518 169.792 38.9638 170.044 39.1958 170.348V169.388H40.5758V176H39.1958V175.016C38.9638 175.328 38.6478 175.588 38.2478 175.796C37.8478 176.004 37.3918 176.108 36.8798 176.108C36.3118 176.108 35.7918 175.964 35.3198 175.676C34.8478 175.38 34.4718 174.972 34.1918 174.452C33.9198 173.924 33.7838 173.328 33.7838 172.664ZM39.1958 172.688C39.1958 172.232 39.0998 171.836 38.9078 171.5C38.7238 171.164 38.4798 170.908 38.1758 170.732C37.8718 170.556 37.5438 170.468 37.1918 170.468C36.8398 170.468 36.5118 170.556 36.2078 170.732C35.9038 170.9 35.6558 171.152 35.4638 171.488C35.2798 171.816 35.1878 172.208 35.1878 172.664C35.1878 173.12 35.2798 173.52 35.4638 173.864C35.6558 174.208 35.9038 174.472 36.2078 174.656C36.5198 174.832 36.8478 174.92 37.1918 174.92C37.5438 174.92 37.8718 174.832 38.1758 174.656C38.4798 174.48 38.7238 174.224 38.9078 173.888C39.0998 173.544 39.1958 173.144 39.1958 172.688ZM45.7087 169.28C46.2287 169.28 46.6927 169.388 47.1007 169.604C47.5167 169.82 47.8407 170.14 48.0727 170.564C48.3047 170.988 48.4207 171.5 48.4207 172.1V176H47.0647V172.304C47.0647 171.712 46.9167 171.26 46.6207 170.948C46.3247 170.628 45.9207 170.468 45.4087 170.468C44.8967 170.468 44.4887 170.628 44.1847 170.948C43.8887 171.26 43.7407 171.712 43.7407 172.304V176H42.3727V169.388H43.7407V170.144C43.9647 169.872 44.2487 169.66 44.5927 169.508C44.9447 169.356 45.3167 169.28 45.7087 169.28ZM49.7096 172.664C49.7096 172 49.8456 171.412 50.1176 170.9C50.3976 170.388 50.7736 169.992 51.2456 169.712C51.7256 169.424 52.2576 169.28 52.8416 169.28C53.2736 169.28 53.6976 169.376 54.1136 169.568C54.5376 169.752 54.8736 170 55.1216 170.312V167.12H56.5016V176H55.1216V175.004C54.8976 175.324 54.5856 175.588 54.1856 175.796C53.7936 176.004 53.3416 176.108 52.8296 176.108C52.2536 176.108 51.7256 175.964 51.2456 175.676C50.7736 175.38 50.3976 174.972 50.1176 174.452C49.8456 173.924 49.7096 173.328 49.7096 172.664ZM55.1216 172.688C55.1216 172.232 55.0256 171.836 54.8336 171.5C54.6496 171.164 54.4056 170.908 54.1016 170.732C53.7976 170.556 53.4696 170.468 53.1176 170.468C52.7656 170.468 52.4376 170.556 52.1336 170.732C51.8296 170.9 51.5816 171.152 51.3896 171.488C51.2056 171.816 51.1136 172.208 51.1136 172.664C51.1136 173.12 51.2056 173.52 51.3896 173.864C51.5816 174.208 51.8296 174.472 52.1336 174.656C52.4456 174.832 52.7736 174.92 53.1176 174.92C53.4696 174.92 53.7976 174.832 54.1016 174.656C54.4056 174.48 54.6496 174.224 54.8336 173.888C55.0256 173.544 55.1216 173.144 55.1216 172.688ZM67.2476 170.144C67.2476 170.568 67.1476 170.968 66.9476 171.344C66.7476 171.72 66.4276 172.028 65.9876 172.268C65.5476 172.5 64.9836 172.616 64.2956 172.616H62.7836V176H61.4156V167.66H64.2956C64.9356 167.66 65.4756 167.772 65.9156 167.996C66.3636 168.212 66.6956 168.508 66.9116 168.884C67.1356 169.26 67.2476 169.68 67.2476 170.144ZM64.2956 171.5C64.8156 171.5 65.2036 171.384 65.4596 171.152C65.7156 170.912 65.8436 170.576 65.8436 170.144C65.8436 169.232 65.3276 168.776 64.2956 168.776H62.7836V171.5H64.2956ZM71.4203 176.108C70.7963 176.108 70.2323 175.968 69.7283 175.688C69.2243 175.4 68.8283 175 68.5403 174.488C68.2523 173.968 68.1083 173.368 68.1083 172.688C68.1083 172.016 68.2563 171.42 68.5523 170.9C68.8483 170.38 69.2523 169.98 69.7643 169.7C70.2763 169.42 70.8483 169.28 71.4803 169.28C72.1123 169.28 72.6843 169.42 73.1963 169.7C73.7083 169.98 74.1123 170.38 74.4083 170.9C74.7043 171.42 74.8523 172.016 74.8523 172.688C74.8523 173.36 74.7003 173.956 74.3963 174.476C74.0923 174.996 73.6763 175.4 73.1483 175.688C72.6283 175.968 72.0523 176.108 71.4203 176.108ZM71.4203 174.92C71.7723 174.92 72.1003 174.836 72.4043 174.668C72.7163 174.5 72.9683 174.248 73.1603 173.912C73.3523 173.576 73.4483 173.168 73.4483 172.688C73.4483 172.208 73.3563 171.804 73.1723 171.476C72.9883 171.14 72.7443 170.888 72.4403 170.72C72.1363 170.552 71.8083 170.468 71.4563 170.468C71.1043 170.468 70.7763 170.552 70.4723 170.72C70.1763 170.888 69.9403 171.14 69.7643 171.476C69.5883 171.804 69.5003 172.208 69.5003 172.688C69.5003 173.4 69.6803 173.952 70.0403 174.344C70.4083 174.728 70.8683 174.92 71.4203 174.92ZM77.5727 170.348C77.7727 170.012 78.0367 169.752 78.3647 169.568C78.7007 169.376 79.0967 169.28 79.5527 169.28V170.696H79.2047C78.6687 170.696 78.2607 170.832 77.9807 171.104C77.7087 171.376 77.5727 171.848 77.5727 172.52V176H76.2047V169.388H77.5727V170.348ZM82.4062 170.504V174.164C82.4062 174.412 82.4622 174.592 82.5742 174.704C82.6942 174.808 82.8942 174.86 83.1742 174.86H84.0142V176H82.9342C82.3182 176 81.8462 175.856 81.5182 175.568C81.1902 175.28 81.0262 174.812 81.0262 174.164V170.504H80.2462V169.388H81.0262V167.744H82.4062V169.388H84.0142V170.504H82.4062ZM88.047 170.504H86.823V176H85.443V170.504H84.663V169.388H85.443V168.92C85.443 168.16 85.643 167.608 86.043 167.264C86.451 166.912 87.087 166.736 87.951 166.736V167.876C87.535 167.876 87.243 167.956 87.075 168.116C86.907 168.268 86.823 168.536 86.823 168.92V169.388H88.047V170.504ZM92.1274 176.108C91.5034 176.108 90.9394 175.968 90.4354 175.688C89.9314 175.4 89.5354 175 89.2474 174.488C88.9594 173.968 88.8154 173.368 88.8154 172.688C88.8154 172.016 88.9634 171.42 89.2594 170.9C89.5554 170.38 89.9594 169.98 90.4714 169.7C90.9834 169.42 91.5554 169.28 92.1874 169.28C92.8194 169.28 93.3914 169.42 93.9034 169.7C94.4154 169.98 94.8194 170.38 95.1154 170.9C95.4114 171.42 95.5594 172.016 95.5594 172.688C95.5594 173.36 95.4074 173.956 95.1034 174.476C94.7994 174.996 94.3834 175.4 93.8554 175.688C93.3354 175.968 92.7594 176.108 92.1274 176.108ZM92.1274 174.92C92.4794 174.92 92.8074 174.836 93.1114 174.668C93.4234 174.5 93.6754 174.248 93.8674 173.912C94.0594 173.576 94.1554 173.168 94.1554 172.688C94.1554 172.208 94.0634 171.804 93.8794 171.476C93.6954 171.14 93.4514 170.888 93.1474 170.72C92.8434 170.552 92.5154 170.468 92.1634 170.468C91.8114 170.468 91.4834 170.552 91.1794 170.72C90.8834 170.888 90.6474 171.14 90.4714 171.476C90.2954 171.804 90.2074 172.208 90.2074 172.688C90.2074 173.4 90.3874 173.952 90.7474 174.344C91.1154 174.728 91.5754 174.92 92.1274 174.92ZM98.2797 167.12V176H96.9117V167.12H98.2797ZM100.772 168.512C100.524 168.512 100.316 168.428 100.148 168.26C99.9798 168.092 99.8958 167.884 99.8958 167.636C99.8958 167.388 99.9798 167.18 100.148 167.012C100.316 166.844 100.524 166.76 100.772 166.76C101.012 166.76 101.216 166.844 101.384 167.012C101.552 167.18 101.636 167.388 101.636 167.636C101.636 167.884 101.552 168.092 101.384 168.26C101.216 168.428 101.012 168.512 100.772 168.512ZM101.444 169.388V176H100.076V169.388H101.444ZM106.108 176.108C105.484 176.108 104.92 175.968 104.416 175.688C103.912 175.4 103.516 175 103.228 174.488C102.94 173.968 102.796 173.368 102.796 172.688C102.796 172.016 102.944 171.42 103.24 170.9C103.536 170.38 103.94 169.98 104.452 169.7C104.964 169.42 105.536 169.28 106.168 169.28C106.8 169.28 107.372 169.42 107.884 169.7C108.396 169.98 108.8 170.38 109.096 170.9C109.392 171.42 109.54 172.016 109.54 172.688C109.54 173.36 109.388 173.956 109.084 174.476C108.78 174.996 108.364 175.4 107.836 175.688C107.316 175.968 106.74 176.108 106.108 176.108ZM106.108 174.92C106.46 174.92 106.788 174.836 107.092 174.668C107.404 174.5 107.656 174.248 107.848 173.912C108.04 173.576 108.136 173.168 108.136 172.688C108.136 172.208 108.044 171.804 107.86 171.476C107.676 171.14 107.432 170.888 107.128 170.72C106.824 170.552 106.496 170.468 106.144 170.468C105.792 170.468 105.464 170.552 105.16 170.72C104.864 170.888 104.628 171.14 104.452 171.476C104.276 171.804 104.188 172.208 104.188 172.688C104.188 173.4 104.368 173.952 104.728 174.344C105.096 174.728 105.556 174.92 106.108 174.92Z" fill="#60789D"/>
<circle cx="120" cy="172" r="4" fill="#353DE1"/>
<path d="M133.928 174.296H130.436L129.836 176H128.408L131.396 167.648H132.98L135.968 176H134.528L133.928 174.296ZM133.544 173.18L132.188 169.304L130.82 173.18H133.544ZM138.635 170.36C138.867 170.056 139.183 169.8 139.583 169.592C139.983 169.384 140.435 169.28 140.939 169.28C141.515 169.28 142.039 169.424 142.511 169.712C142.991 169.992 143.367 170.388 143.639 170.9C143.911 171.412 144.047 172 144.047 172.664C144.047 173.328 143.911 173.924 143.639 174.452C143.367 174.972 142.991 175.38 142.511 175.676C142.039 175.964 141.515 176.108 140.939 176.108C140.435 176.108 139.987 176.008 139.595 175.808C139.203 175.6 138.883 175.344 138.635 175.04V179.144H137.267V169.388H138.635V170.36ZM142.655 172.664C142.655 172.208 142.559 171.816 142.367 171.488C142.183 171.152 141.935 170.9 141.623 170.732C141.319 170.556 140.991 170.468 140.639 170.468C140.295 170.468 139.967 170.556 139.655 170.732C139.351 170.908 139.103 171.164 138.911 171.5C138.727 171.836 138.635 172.232 138.635 172.688C138.635 173.144 138.727 173.544 138.911 173.888C139.103 174.224 139.351 174.48 139.655 174.656C139.967 174.832 140.295 174.92 140.639 174.92C140.991 174.92 141.319 174.832 141.623 174.656C141.935 174.472 142.183 174.208 142.367 173.864C142.559 173.52 142.655 173.12 142.655 172.664ZM146.768 170.348C146.968 170.012 147.232 169.752 147.56 169.568C147.896 169.376 148.292 169.28 148.748 169.28V170.696H148.4C147.864 170.696 147.456 170.832 147.176 171.104C146.904 171.376 146.768 171.848 146.768 172.52V176H145.4V169.388H146.768V170.348ZM151.601 170.504V174.164C151.601 174.412 151.657 174.592 151.769 174.704C151.889 174.808 152.089 174.86 152.369 174.86H153.209V176H152.129C151.513 176 151.041 175.856 150.713 175.568C150.385 175.28 150.221 174.812 150.221 174.164V170.504H149.441V169.388H150.221V167.744H151.601V169.388H153.209V170.504H151.601ZM162.474 169.28C162.994 169.28 163.458 169.388 163.866 169.604C164.282 169.82 164.606 170.14 164.838 170.564C165.078 170.988 165.198 171.5 165.198 172.1V176H163.842V172.304C163.842 171.712 163.694 171.26 163.398 170.948C163.102 170.628 162.698 170.468 162.186 170.468C161.674 170.468 161.266 170.628 160.962 170.948C160.666 171.26 160.518 171.712 160.518 172.304V176H159.162V172.304C159.162 171.712 159.014 171.26 158.718 170.948C158.422 170.628 158.018 170.468 157.506 170.468C156.994 170.468 156.586 170.628 156.282 170.948C155.986 171.26 155.838 171.712 155.838 172.304V176H154.47V169.388H155.838V170.144C156.062 169.872 156.346 169.66 156.69 169.508C157.034 169.356 157.402 169.28 157.794 169.28C158.322 169.28 158.794 169.392 159.21 169.616C159.626 169.84 159.946 170.164 160.17 170.588C160.37 170.188 160.682 169.872 161.106 169.64C161.53 169.4 161.986 169.28 162.474 169.28ZM172.999 172.532C172.999 172.78 172.983 173.004 172.951 173.204H167.899C167.939 173.732 168.135 174.156 168.487 174.476C168.839 174.796 169.271 174.956 169.783 174.956C170.519 174.956 171.039 174.648 171.343 174.032H172.819C172.619 174.64 172.255 175.14 171.727 175.532C171.207 175.916 170.559 176.108 169.783 176.108C169.151 176.108 168.583 175.968 168.079 175.688C167.583 175.4 167.191 175 166.903 174.488C166.623 173.968 166.483 173.368 166.483 172.688C166.483 172.008 166.619 171.412 166.891 170.9C167.171 170.38 167.559 169.98 168.055 169.7C168.559 169.42 169.135 169.28 169.783 169.28C170.407 169.28 170.963 169.416 171.451 169.688C171.939 169.96 172.319 170.344 172.591 170.84C172.863 171.328 172.999 171.892 172.999 172.532ZM171.571 172.1C171.563 171.596 171.383 171.192 171.031 170.888C170.679 170.584 170.243 170.432 169.723 170.432C169.251 170.432 168.847 170.584 168.511 170.888C168.175 171.184 167.975 171.588 167.911 172.1H171.571ZM177.681 169.28C178.201 169.28 178.665 169.388 179.073 169.604C179.489 169.82 179.813 170.14 180.045 170.564C180.277 170.988 180.393 171.5 180.393 172.1V176H179.037V172.304C179.037 171.712 178.889 171.26 178.593 170.948C178.297 170.628 177.893 170.468 177.381 170.468C176.869 170.468 176.461 170.628 176.157 170.948C175.861 171.26 175.713 171.712 175.713 172.304V176H174.345V169.388H175.713V170.144C175.937 169.872 176.221 169.66 176.565 169.508C176.917 169.356 177.289 169.28 177.681 169.28ZM183.734 170.504V174.164C183.734 174.412 183.79 174.592 183.902 174.704C184.022 174.808 184.222 174.86 184.502 174.86H185.342V176H184.262C183.646 176 183.174 175.856 182.846 175.568C182.518 175.28 182.354 174.812 182.354 174.164V170.504H181.574V169.388H182.354V167.744H183.734V169.388H185.342V170.504H183.734ZM189.003 176.108C188.483 176.108 188.015 176.016 187.599 175.832C187.191 175.64 186.867 175.384 186.627 175.064C186.387 174.736 186.259 174.372 186.243 173.972H187.659C187.683 174.252 187.815 174.488 188.055 174.68C188.303 174.864 188.611 174.956 188.979 174.956C189.363 174.956 189.659 174.884 189.867 174.74C190.083 174.588 190.191 174.396 190.191 174.164C190.191 173.916 190.071 173.732 189.831 173.612C189.599 173.492 189.227 173.36 188.715 173.216C188.219 173.08 187.815 172.948 187.503 172.82C187.191 172.692 186.919 172.496 186.687 172.232C186.463 171.968 186.351 171.62 186.351 171.188C186.351 170.836 186.455 170.516 186.663 170.228C186.871 169.932 187.167 169.7 187.551 169.532C187.943 169.364 188.391 169.28 188.895 169.28C189.647 169.28 190.251 169.472 190.707 169.856C191.171 170.232 191.419 170.748 191.451 171.404H190.083C190.059 171.108 189.939 170.872 189.723 170.696C189.507 170.52 189.215 170.432 188.847 170.432C188.487 170.432 188.211 170.5 188.019 170.636C187.827 170.772 187.731 170.952 187.731 171.176C187.731 171.352 187.795 171.5 187.923 171.62C188.051 171.74 188.207 171.836 188.391 171.908C188.575 171.972 188.847 172.056 189.207 172.16C189.687 172.288 190.079 172.42 190.383 172.556C190.695 172.684 190.963 172.876 191.187 173.132C191.411 173.388 191.527 173.728 191.535 174.152C191.535 174.528 191.431 174.864 191.223 175.16C191.015 175.456 190.719 175.688 190.335 175.856C189.959 176.024 189.515 176.108 189.003 176.108Z" fill="#60789D"/>
<path d="M146.824 90C146.824 123.137 119.776 150 86.4118 150C53.0473 150 26 123.137 26 90C26 56.8629 53.0473 30 86.4118 30C119.776 30 146.824 56.8629 146.824 90ZM38.02 90C38.02 116.544 59.6857 138.062 86.4118 138.062C113.138 138.062 134.804 116.544 134.804 90C134.804 63.4561 113.138 41.9381 86.4118 41.9381C59.6857 41.9381 38.02 63.4561 38.02 90Z" fill="#EDEFFE"/>
<path d="M32.2877 95.5339C28.9891 95.8712 26.0087 93.4696 26.0002 90.1539C25.9771 81.2418 27.9538 72.4096 31.8175 64.3103C35.6933 56.1857 41.3462 49.0534 48.335 43.4183C50.8951 41.354 54.6076 42.1324 56.4276 44.8717C58.2639 47.6354 57.4701 51.3395 54.9422 53.4887C49.7893 57.8698 45.6035 63.2934 42.68 69.4217C39.7601 75.5426 38.1856 82.1859 38.0323 88.9126C37.9567 92.234 35.5927 95.196 32.2877 95.5339Z" fill="#FEA41D"/>
<path d="M99.4273 142.442C100.223 145.65 98.2632 148.926 94.9909 149.392C86.5899 150.589 78.0057 150.017 69.8027 147.688C59.6739 144.811 50.4785 139.354 43.1292 131.858C35.7798 124.361 30.5319 115.087 27.9063 104.954C25.7827 96.7583 25.4343 88.232 26.8563 79.9334C27.4153 76.6715 30.7437 74.7989 33.9362 75.6707C37.1446 76.5468 38.9903 79.8628 38.5134 83.1543C37.6061 89.4157 37.9497 95.8139 39.547 101.978C41.6502 110.095 45.8539 117.525 51.741 123.529C57.6281 129.534 64.9938 133.906 73.1074 136.21C79.3062 137.97 85.7769 138.477 92.1397 137.724C95.4073 137.337 98.6347 139.249 99.4273 142.442Z" fill="#353DE1"/>
<path d="M86.4118 35.969C86.4118 32.6724 89.0906 29.9696 92.3714 30.2925C106.205 31.6541 119.213 37.7252 129.129 47.5736C140.459 58.8258 146.824 74.087 146.824 90C146.824 105.913 140.459 121.174 129.129 132.426C119.213 142.275 106.205 148.346 92.3714 149.708C89.0906 150.03 86.4118 147.328 86.4118 144.031C86.4118 140.734 89.0942 138.1 92.3661 137.697C103.005 136.387 112.97 131.593 120.63 123.985C129.705 114.972 134.804 102.747 134.804 90C134.804 77.2532 129.705 65.0284 120.63 56.0151C112.97 48.407 103.005 43.613 92.366 42.3031C89.0941 41.9003 86.4118 39.2656 86.4118 35.969Z" fill="#E9156E"/>
<g filter="url(#filter2_d_54_572)">
<path d="M145.294 96.6037L155.382 93.4546V99.7529L145.294 96.6037Z" fill="white"/>
</g>
<g filter="url(#filter3_d_54_572)">
<rect x="153.701" y="86.6038" width="72.299" height="20" rx="8" fill="white" shape-rendering="crispEdges"/>
<path d="M166.444 98.8848C166.444 99.1728 166.372 99.4488 166.228 99.7128C166.084 99.9708 165.871 100.187 165.589 100.361C165.313 100.535 164.98 100.634 164.59 100.658V101.387H164.104V100.658C163.558 100.61 163.114 100.436 162.772 100.136C162.43 99.8298 162.256 99.4428 162.25 98.9748H163.123C163.147 99.2268 163.24 99.4458 163.402 99.6318C163.57 99.8178 163.804 99.9348 164.104 99.9828V97.7328C163.702 97.6308 163.378 97.5258 163.132 97.4178C162.886 97.3098 162.676 97.1418 162.502 96.9138C162.328 96.6858 162.241 96.3798 162.241 95.9958C162.241 95.5098 162.409 95.1078 162.745 94.7898C163.087 94.4718 163.54 94.2948 164.104 94.2588V93.5118H164.59V94.2588C165.1 94.3008 165.511 94.4658 165.823 94.7538C166.135 95.0358 166.315 95.4048 166.363 95.8608H165.49C165.46 95.6508 165.367 95.4618 165.211 95.2938C165.055 95.1198 164.848 95.0058 164.59 94.9518V97.1478C164.986 97.2498 165.307 97.3548 165.553 97.4628C165.805 97.5648 166.015 97.7298 166.183 97.9578C166.357 98.1858 166.444 98.4948 166.444 98.8848ZM163.078 95.9508C163.078 96.2448 163.165 96.4698 163.339 96.6258C163.513 96.7818 163.768 96.9108 164.104 97.0128V94.9338C163.792 94.9638 163.543 95.0658 163.357 95.2398C163.171 95.4078 163.078 95.6448 163.078 95.9508ZM164.59 99.9918C164.914 99.9558 165.166 99.8388 165.346 99.6408C165.532 99.4428 165.625 99.2058 165.625 98.9298C165.625 98.6358 165.535 98.4108 165.355 98.2548C165.175 98.0928 164.92 97.9638 164.59 97.8678V99.9918ZM167.641 94.8438V94.0968H169.333V100.604H168.505V94.8438H167.641ZM170.74 97.2828C170.74 96.2508 170.908 95.4468 171.244 94.8708C171.58 94.2888 172.168 93.9978 173.008 93.9978C173.842 93.9978 174.427 94.2888 174.763 94.8708C175.099 95.4468 175.267 96.2508 175.267 97.2828C175.267 98.3328 175.099 99.1488 174.763 99.7308C174.427 100.313 173.842 100.604 173.008 100.604C172.168 100.604 171.58 100.313 171.244 99.7308C170.908 99.1488 170.74 98.3328 170.74 97.2828ZM174.457 97.2828C174.457 96.7608 174.421 96.3198 174.349 95.9598C174.283 95.5938 174.142 95.2998 173.926 95.0778C173.716 94.8558 173.41 94.7448 173.008 94.7448C172.6 94.7448 172.288 94.8558 172.072 95.0778C171.862 95.2998 171.721 95.5938 171.649 95.9598C171.583 96.3198 171.55 96.7608 171.55 97.2828C171.55 97.8228 171.583 98.2758 171.649 98.6418C171.721 99.0078 171.862 99.3018 172.072 99.5238C172.288 99.7458 172.6 99.8568 173.008 99.8568C173.41 99.8568 173.716 99.7458 173.926 99.5238C174.142 99.3018 174.283 99.0078 174.349 98.6418C174.421 98.2758 174.457 97.8228 174.457 97.2828ZM176.391 97.2828C176.391 96.2508 176.559 95.4468 176.895 94.8708C177.231 94.2888 177.819 93.9978 178.659 93.9978C179.493 93.9978 180.078 94.2888 180.414 94.8708C180.75 95.4468 180.918 96.2508 180.918 97.2828C180.918 98.3328 180.75 99.1488 180.414 99.7308C180.078 100.313 179.493 100.604 178.659 100.604C177.819 100.604 177.231 100.313 176.895 99.7308C176.559 99.1488 176.391 98.3328 176.391 97.2828ZM180.108 97.2828C180.108 96.7608 180.072 96.3198 180 95.9598C179.934 95.5938 179.793 95.2998 179.577 95.0778C179.367 94.8558 179.061 94.7448 178.659 94.7448C178.251 94.7448 177.939 94.8558 177.723 95.0778C177.513 95.2998 177.372 95.5938 177.3 95.9598C177.234 96.3198 177.201 96.7608 177.201 97.2828C177.201 97.8228 177.234 98.2758 177.3 98.6418C177.372 99.0078 177.513 99.3018 177.723 99.5238C177.939 99.7458 178.251 99.8568 178.659 99.8568C179.061 99.8568 179.367 99.7458 179.577 99.5238C179.793 99.3018 179.934 99.0078 180 98.6418C180.072 98.2758 180.108 97.8228 180.108 97.2828ZM185.396 94.3308V100.604H184.577V94.3308H185.396ZM189.195 95.5818C189.795 95.5818 190.281 95.7648 190.653 96.1308C191.025 96.4908 191.211 97.0128 191.211 97.6968V100.604H190.401V97.8138C190.401 97.3218 190.278 96.9468 190.032 96.6888C189.786 96.4248 189.45 96.2928 189.024 96.2928C188.592 96.2928 188.247 96.4278 187.989 96.6978C187.737 96.9678 187.611 97.3608 187.611 97.8768V100.604H186.792V95.6718H187.611V96.3738C187.773 96.1218 187.992 95.9268 188.268 95.7888C188.55 95.6508 188.859 95.5818 189.195 95.5818ZM194.385 99.8478L195.915 95.6718H196.788L194.853 100.604H193.899L191.964 95.6718H192.846L194.385 99.8478ZM202.094 97.9488C202.094 98.1048 202.085 98.2698 202.067 98.4438H198.125C198.155 98.9298 198.32 99.3108 198.62 99.5868C198.926 99.8568 199.295 99.9918 199.727 99.9918C200.081 99.9918 200.375 99.9108 200.609 99.7488C200.849 99.5808 201.017 99.3588 201.113 99.0828H201.995C201.863 99.5568 201.599 99.9438 201.203 100.244C200.807 100.538 200.315 100.685 199.727 100.685C199.259 100.685 198.839 100.58 198.467 100.37C198.101 100.16 197.813 99.8628 197.603 99.4788C197.393 99.0888 197.288 98.6388 197.288 98.1288C197.288 97.6188 197.39 97.1718 197.594 96.7878C197.798 96.4038 198.083 96.1098 198.449 95.9058C198.821 95.6958 199.247 95.5908 199.727 95.5908C200.195 95.5908 200.609 95.6928 200.969 95.8968C201.329 96.1008 201.605 96.3828 201.797 96.7428C201.995 97.0968 202.094 97.4988 202.094 97.9488ZM201.248 97.7778C201.248 97.4658 201.179 97.1988 201.041 96.9768C200.903 96.7488 200.714 96.5778 200.474 96.4638C200.24 96.3438 199.979 96.2838 199.691 96.2838C199.277 96.2838 198.923 96.4158 198.629 96.6798C198.341 96.9438 198.176 97.3098 198.134 97.7778H201.248ZM204.921 100.685C204.543 100.685 204.204 100.622 203.904 100.496C203.604 100.364 203.367 100.184 203.193 99.9558C203.019 99.7218 202.923 99.4548 202.905 99.1548H203.751C203.775 99.4008 203.889 99.6018 204.093 99.7578C204.303 99.9138 204.576 99.9918 204.912 99.9918C205.224 99.9918 205.47 99.9228 205.65 99.7848C205.83 99.6468 205.92 99.4728 205.92 99.2628C205.92 99.0468 205.824 98.8878 205.632 98.7858C205.44 98.6778 205.143 98.5728 204.741 98.4708C204.375 98.3748 204.075 98.2788 203.841 98.1828C203.613 98.0808 203.415 97.9338 203.247 97.7418C203.085 97.5438 203.004 97.2858 203.004 96.9678C203.004 96.7158 203.079 96.4848 203.229 96.2748C203.379 96.0648 203.592 95.8998 203.868 95.7798C204.144 95.6538 204.459 95.5908 204.813 95.5908C205.359 95.5908 205.8 95.7288 206.136 96.0048C206.472 96.2808 206.652 96.6588 206.676 97.1388H205.857C205.839 96.8808 205.734 96.6738 205.542 96.5178C205.356 96.3618 205.104 96.2838 204.786 96.2838C204.492 96.2838 204.258 96.3468 204.084 96.4728C203.91 96.5988 203.823 96.7638 203.823 96.9678C203.823 97.1298 203.874 97.2648 203.976 97.3728C204.084 97.4748 204.216 97.5588 204.372 97.6248C204.534 97.6848 204.756 97.7538 205.038 97.8318C205.392 97.9278 205.68 98.0238 205.902 98.1198C206.124 98.2098 206.313 98.3478 206.469 98.5338C206.631 98.7198 206.715 98.9628 206.721 99.2628C206.721 99.5328 206.646 99.7758 206.496 99.9918C206.346 100.208 206.133 100.379 205.857 100.505C205.587 100.625 205.275 100.685 204.921 100.685ZM208.876 96.3468V99.2538C208.876 99.4938 208.927 99.6648 209.029 99.7668C209.131 99.8628 209.308 99.9108 209.56 99.9108H210.163V100.604H209.425C208.969 100.604 208.627 100.499 208.399 100.289C208.171 100.079 208.057 99.7338 208.057 99.2538V96.3468H207.418V95.6718H208.057V94.4298H208.876V95.6718H210.163V96.3468H208.876ZM215.655 97.9488C215.655 98.1048 215.646 98.2698 215.628 98.4438H211.686C211.716 98.9298 211.881 99.3108 212.181 99.5868C212.487 99.8568 212.856 99.9918 213.288 99.9918C213.642 99.9918 213.936 99.9108 214.17 99.7488C214.41 99.5808 214.578 99.3588 214.674 99.0828H215.556C215.424 99.5568 215.16 99.9438 214.764 100.244C214.368 100.538 213.876 100.685 213.288 100.685C212.82 100.685 212.4 100.58 212.028 100.37C211.662 100.16 211.374 99.8628 211.164 99.4788C210.954 99.0888 210.849 98.6388 210.849 98.1288C210.849 97.6188 210.951 97.1718 211.155 96.7878C211.359 96.4038 211.644 96.1098 212.01 95.9058C212.382 95.6958 212.808 95.5908 213.288 95.5908C213.756 95.5908 214.17 95.6928 214.53 95.8968C214.89 96.1008 215.166 96.3828 215.358 96.7428C215.556 97.0968 215.655 97.4988 215.655 97.9488ZM214.809 97.7778C214.809 97.4658 214.74 97.1988 214.602 96.9768C214.464 96.7488 214.275 96.5778 214.035 96.4638C213.801 96.3438 213.54 96.2838 213.252 96.2838C212.838 96.2838 212.484 96.4158 212.19 96.6798C211.902 96.9438 211.737 97.3098 211.695 97.7778H214.809ZM216.43 98.1198C216.43 97.6158 216.532 97.1748 216.736 96.7968C216.94 96.4128 217.219 96.1158 217.573 95.9058C217.933 95.6958 218.335 95.5908 218.779 95.5908C219.163 95.5908 219.52 95.6808 219.85 95.8608C220.18 96.0348 220.432 96.2658 220.606 96.5538V93.9438H221.434V100.604H220.606V99.6768C220.444 99.9708 220.204 100.214 219.886 100.406C219.568 100.592 219.196 100.685 218.77 100.685C218.332 100.685 217.933 100.577 217.573 100.361C217.219 100.145 216.94 99.8418 216.736 99.4518C216.532 99.0618 216.43 98.6178 216.43 98.1198ZM220.606 98.1288C220.606 97.7568 220.531 97.4328 220.381 97.1568C220.231 96.8808 220.027 96.6708 219.769 96.5268C219.517 96.3768 219.238 96.3018 218.932 96.3018C218.626 96.3018 218.347 96.3738 218.095 96.5178C217.843 96.6618 217.642 96.8718 217.492 97.1478C217.342 97.4238 217.267 97.7478 217.267 98.1198C217.267 98.4978 217.342 98.8278 217.492 99.1098C217.642 99.3858 217.843 99.5988 218.095 99.7488C218.347 99.8928 218.626 99.9648 218.932 99.9648C219.238 99.9648 219.517 99.8928 219.769 99.7488C220.027 99.5988 220.231 99.3858 220.381 99.1098C220.531 98.8278 220.606 98.5008 220.606 98.1288Z" fill="#106021"/>
</g>
<rect x="302" y="349" width="341" height="101" rx="24" fill="white"/>
<path d="M411.752 390.728V388.968L416.984 381.48H419.592V388.776H421V390.728H419.592V393H417.352V390.728H411.752ZM417.496 383.88L414.216 388.776H417.496V383.88ZM428.735 385.432C429.023 385.005 429.417 384.659 429.919 384.392C430.431 384.125 431.012 383.992 431.663 383.992C432.42 383.992 433.103 384.179 433.711 384.552C434.329 384.925 434.815 385.459 435.167 386.152C435.529 386.835 435.711 387.629 435.711 388.536C435.711 389.443 435.529 390.248 435.167 390.952C434.815 391.645 434.329 392.184 433.711 392.568C433.103 392.952 432.42 393.144 431.663 393.144C431.001 393.144 430.42 393.016 429.919 392.76C429.428 392.493 429.033 392.152 428.735 391.736V393H426.495V381.16H428.735V385.432ZM433.423 388.536C433.423 388.003 433.311 387.544 433.087 387.16C432.873 386.765 432.585 386.467 432.223 386.264C431.871 386.061 431.487 385.96 431.071 385.96C430.665 385.96 430.281 386.067 429.919 386.28C429.567 386.483 429.279 386.781 429.055 387.176C428.841 387.571 428.735 388.035 428.735 388.568C428.735 389.101 428.841 389.565 429.055 389.96C429.279 390.355 429.567 390.659 429.919 390.872C430.281 391.075 430.665 391.176 431.071 391.176C431.487 391.176 431.871 391.069 432.223 390.856C432.585 390.643 432.873 390.339 433.087 389.944C433.311 389.549 433.423 389.08 433.423 388.536ZM445.578 388.376C445.578 388.696 445.557 388.984 445.514 389.24H439.034C439.088 389.88 439.312 390.381 439.706 390.744C440.101 391.107 440.586 391.288 441.162 391.288C441.994 391.288 442.586 390.931 442.938 390.216H445.354C445.098 391.069 444.608 391.773 443.882 392.328C443.157 392.872 442.266 393.144 441.21 393.144C440.357 393.144 439.589 392.957 438.906 392.584C438.234 392.2 437.706 391.661 437.322 390.968C436.949 390.275 436.762 389.475 436.762 388.568C436.762 387.651 436.949 386.845 437.322 386.152C437.696 385.459 438.218 384.925 438.89 384.552C439.562 384.179 440.336 383.992 441.21 383.992C442.053 383.992 442.805 384.173 443.466 384.536C444.138 384.899 444.656 385.416 445.018 386.088C445.392 386.749 445.578 387.512 445.578 388.376ZM443.258 387.736C443.248 387.16 443.04 386.701 442.634 386.36C442.229 386.008 441.733 385.832 441.146 385.832C440.592 385.832 440.122 386.003 439.738 386.344C439.365 386.675 439.136 387.139 439.05 387.736H443.258ZM446.637 388.536C446.637 387.64 446.813 386.845 447.165 386.152C447.528 385.459 448.019 384.925 448.637 384.552C449.256 384.179 449.944 383.992 450.701 383.992C451.277 383.992 451.827 384.12 452.349 384.376C452.872 384.621 453.288 384.952 453.597 385.368V381.16H455.869V393H453.597V391.688C453.32 392.125 452.931 392.477 452.429 392.744C451.928 393.011 451.347 393.144 450.685 393.144C449.939 393.144 449.256 392.952 448.637 392.568C448.019 392.184 447.528 391.645 447.165 390.952C446.813 390.248 446.637 389.443 446.637 388.536ZM453.613 388.568C453.613 388.024 453.507 387.56 453.293 387.176C453.08 386.781 452.792 386.483 452.429 386.28C452.067 386.067 451.677 385.96 451.261 385.96C450.845 385.96 450.461 386.061 450.109 386.264C449.757 386.467 449.469 386.765 449.245 387.16C449.032 387.544 448.925 388.003 448.925 388.536C448.925 389.069 449.032 389.539 449.245 389.944C449.469 390.339 449.757 390.643 450.109 390.856C450.472 391.069 450.856 391.176 451.261 391.176C451.677 391.176 452.067 391.075 452.429 390.872C452.792 390.659 453.08 390.36 453.293 389.976C453.507 389.581 453.613 389.112 453.613 388.568ZM460.297 385.512C460.585 385.043 460.958 384.675 461.417 384.408C461.886 384.141 462.42 384.008 463.017 384.008V386.36H462.425C461.721 386.36 461.188 386.525 460.825 386.856C460.473 387.187 460.297 387.763 460.297 388.584V393H458.057V384.136H460.297V385.512ZM468.462 393.144C467.609 393.144 466.841 392.957 466.158 392.584C465.475 392.2 464.937 391.661 464.542 390.968C464.158 390.275 463.966 389.475 463.966 388.568C463.966 387.661 464.163 386.861 464.558 386.168C464.963 385.475 465.513 384.941 466.206 384.568C466.899 384.184 467.673 383.992 468.526 383.992C469.379 383.992 470.153 384.184 470.846 384.568C471.539 384.941 472.083 385.475 472.478 386.168C472.883 386.861 473.086 387.661 473.086 388.568C473.086 389.475 472.878 390.275 472.462 390.968C472.057 391.661 471.502 392.2 470.798 392.584C470.105 392.957 469.326 393.144 468.462 393.144ZM468.462 391.192C468.867 391.192 469.246 391.096 469.598 390.904C469.961 390.701 470.249 390.403 470.462 390.008C470.675 389.613 470.782 389.133 470.782 388.568C470.782 387.725 470.558 387.08 470.11 386.632C469.673 386.173 469.134 385.944 468.494 385.944C467.854 385.944 467.315 386.173 466.878 386.632C466.451 387.08 466.238 387.725 466.238 388.568C466.238 389.411 466.446 390.061 466.862 390.52C467.289 390.968 467.822 391.192 468.462 391.192ZM478.665 393.144C477.812 393.144 477.044 392.957 476.361 392.584C475.678 392.2 475.14 391.661 474.745 390.968C474.361 390.275 474.169 389.475 474.169 388.568C474.169 387.661 474.366 386.861 474.761 386.168C475.166 385.475 475.716 384.941 476.409 384.568C477.102 384.184 477.876 383.992 478.729 383.992C479.582 383.992 480.356 384.184 481.049 384.568C481.742 384.941 482.286 385.475 482.681 386.168C483.086 386.861 483.289 387.661 483.289 388.568C483.289 389.475 483.081 390.275 482.665 390.968C482.26 391.661 481.705 392.2 481.001 392.584C480.308 392.957 479.529 393.144 478.665 393.144ZM478.665 391.192C479.07 391.192 479.449 391.096 479.801 390.904C480.164 390.701 480.452 390.403 480.665 390.008C480.878 389.613 480.985 389.133 480.985 388.568C480.985 387.725 480.761 387.08 480.313 386.632C479.876 386.173 479.337 385.944 478.697 385.944C478.057 385.944 477.518 386.173 477.081 386.632C476.654 387.08 476.441 387.725 476.441 388.568C476.441 389.411 476.649 390.061 477.065 390.52C477.492 390.968 478.025 391.192 478.665 391.192ZM495.94 384.008C497.028 384.008 497.903 384.344 498.564 385.016C499.236 385.677 499.572 386.605 499.572 387.8V393H497.332V388.104C497.332 387.411 497.156 386.883 496.804 386.52C496.452 386.147 495.972 385.96 495.364 385.96C494.756 385.96 494.271 386.147 493.908 386.52C493.556 386.883 493.38 387.411 493.38 388.104V393H491.14V388.104C491.14 387.411 490.964 386.883 490.612 386.52C490.26 386.147 489.78 385.96 489.172 385.96C488.553 385.96 488.063 386.147 487.7 386.52C487.348 386.883 487.172 387.411 487.172 388.104V393H484.932V384.136H487.172V385.208C487.46 384.835 487.828 384.541 488.276 384.328C488.735 384.115 489.236 384.008 489.78 384.008C490.473 384.008 491.092 384.157 491.636 384.456C492.18 384.744 492.601 385.16 492.9 385.704C493.188 385.192 493.604 384.781 494.148 384.472C494.703 384.163 495.3 384.008 495.94 384.008ZM513.11 381.832V383.64H510.134V393H507.894V383.64H504.918V381.832H513.11ZM522.985 388.376C522.985 388.696 522.963 388.984 522.921 389.24H516.441C516.494 389.88 516.718 390.381 517.113 390.744C517.507 391.107 517.993 391.288 518.569 391.288C519.401 391.288 519.993 390.931 520.345 390.216H522.761C522.505 391.069 522.014 391.773 521.289 392.328C520.563 392.872 519.673 393.144 518.617 393.144C517.763 393.144 516.995 392.957 516.313 392.584C515.641 392.2 515.113 391.661 514.729 390.968C514.355 390.275 514.169 389.475 514.169 388.568C514.169 387.651 514.355 386.845 514.729 386.152C515.102 385.459 515.625 384.925 516.297 384.552C516.969 384.179 517.742 383.992 518.617 383.992C519.459 383.992 520.211 384.173 520.873 384.536C521.545 384.899 522.062 385.416 522.425 386.088C522.798 386.749 522.985 387.512 522.985 388.376ZM520.665 387.736C520.654 387.16 520.446 386.701 520.041 386.36C519.635 386.008 519.139 385.832 518.553 385.832C517.998 385.832 517.529 386.003 517.145 386.344C516.771 386.675 516.542 387.139 516.457 387.736H520.665ZM526.86 385.512C527.148 385.043 527.521 384.675 527.98 384.408C528.449 384.141 528.982 384.008 529.58 384.008V386.36H528.988C528.284 386.36 527.75 386.525 527.388 386.856C527.036 387.187 526.86 387.763 526.86 388.584V393H524.62V384.136H526.86V385.512ZM533.328 385.512C533.616 385.043 533.99 384.675 534.448 384.408C534.918 384.141 535.451 384.008 536.048 384.008V386.36H535.456C534.752 386.36 534.219 386.525 533.856 386.856C533.504 387.187 533.328 387.763 533.328 388.584V393H531.088V384.136H533.328V385.512ZM536.981 388.536C536.981 387.64 537.157 386.845 537.509 386.152C537.872 385.459 538.357 384.925 538.965 384.552C539.584 384.179 540.272 383.992 541.029 383.992C541.69 383.992 542.266 384.125 542.757 384.392C543.258 384.659 543.658 384.995 543.957 385.4V384.136H546.213V393H543.957V391.704C543.669 392.12 543.269 392.467 542.757 392.744C542.256 393.011 541.674 393.144 541.013 393.144C540.266 393.144 539.584 392.952 538.965 392.568C538.357 392.184 537.872 391.645 537.509 390.952C537.157 390.248 536.981 389.443 536.981 388.536ZM543.957 388.568C543.957 388.024 543.85 387.56 543.637 387.176C543.424 386.781 543.136 386.483 542.773 386.28C542.41 386.067 542.021 385.96 541.605 385.96C541.189 385.96 540.805 386.061 540.453 386.264C540.101 386.467 539.813 386.765 539.589 387.16C539.376 387.544 539.269 388.003 539.269 388.536C539.269 389.069 539.376 389.539 539.589 389.944C539.813 390.339 540.101 390.643 540.453 390.856C540.816 391.069 541.2 391.176 541.605 391.176C542.021 391.176 542.41 391.075 542.773 390.872C543.136 390.659 543.424 390.36 543.637 389.976C543.85 389.581 543.957 389.112 543.957 388.568ZM547.825 388.568C547.825 387.651 548.012 386.851 548.385 386.168C548.758 385.475 549.276 384.941 549.937 384.568C550.598 384.184 551.356 383.992 552.209 383.992C553.308 383.992 554.214 384.269 554.929 384.824C555.654 385.368 556.14 386.136 556.385 387.128H553.969C553.841 386.744 553.622 386.445 553.313 386.232C553.014 386.008 552.641 385.896 552.193 385.896C551.553 385.896 551.046 386.131 550.673 386.6C550.3 387.059 550.113 387.715 550.113 388.568C550.113 389.411 550.3 390.067 550.673 390.536C551.046 390.995 551.553 391.224 552.193 391.224C553.1 391.224 553.692 390.819 553.969 390.008H556.385C556.14 390.968 555.654 391.731 554.929 392.296C554.204 392.861 553.297 393.144 552.209 393.144C551.356 393.144 550.598 392.957 549.937 392.584C549.276 392.2 548.758 391.667 548.385 390.984C548.012 390.291 547.825 389.485 547.825 388.568ZM566.266 388.376C566.266 388.696 566.245 388.984 566.202 389.24H559.722C559.775 389.88 559.999 390.381 560.394 390.744C560.789 391.107 561.274 391.288 561.85 391.288C562.682 391.288 563.274 390.931 563.626 390.216H566.042C565.786 391.069 565.295 391.773 564.57 392.328C563.845 392.872 562.954 393.144 561.898 393.144C561.045 393.144 560.277 392.957 559.594 392.584C558.922 392.2 558.394 391.661 558.01 390.968C557.637 390.275 557.45 389.475 557.45 388.568C557.45 387.651 557.637 386.845 558.01 386.152C558.383 385.459 558.906 384.925 559.578 384.552C560.25 384.179 561.023 383.992 561.898 383.992C562.741 383.992 563.493 384.173 564.154 384.536C564.826 384.899 565.343 385.416 565.706 386.088C566.079 386.749 566.266 387.512 566.266 388.376ZM563.946 387.736C563.935 387.16 563.727 386.701 563.322 386.36C562.917 386.008 562.421 385.832 561.834 385.832C561.279 385.832 560.81 386.003 560.426 386.344C560.053 386.675 559.823 387.139 559.738 387.736H563.946Z" fill="#0A0E63"/>
<path d="M417.804 415.588C417.804 416.004 417.696 416.396 417.48 416.764C417.272 417.124 416.96 417.424 416.544 417.664C416.136 417.896 415.652 418.032 415.092 418.072V419.044H414.324V418.06C413.524 417.988 412.88 417.748 412.392 417.34C411.904 416.924 411.652 416.364 411.636 415.66H413.436C413.484 416.236 413.78 416.584 414.324 416.704V414.412C413.748 414.268 413.284 414.124 412.932 413.98C412.58 413.836 412.276 413.604 412.02 413.284C411.764 412.964 411.636 412.528 411.636 411.976C411.636 411.28 411.884 410.712 412.38 410.272C412.884 409.832 413.532 409.58 414.324 409.516V408.544H415.092V409.516C415.86 409.58 416.472 409.812 416.928 410.212C417.392 410.612 417.652 411.164 417.708 411.868H415.896C415.872 411.636 415.788 411.436 415.644 411.268C415.508 411.092 415.324 410.968 415.092 410.896V413.164C415.692 413.316 416.164 413.464 416.508 413.608C416.86 413.744 417.164 413.972 417.42 414.292C417.676 414.604 417.804 415.036 417.804 415.588ZM413.388 411.892C413.388 412.156 413.468 412.372 413.628 412.54C413.788 412.7 414.02 412.832 414.324 412.936V410.86C414.036 410.9 413.808 411.008 413.64 411.184C413.472 411.36 413.388 411.596 413.388 411.892ZM415.092 416.728C415.396 416.672 415.632 416.548 415.8 416.356C415.976 416.164 416.064 415.932 416.064 415.66C416.064 415.396 415.98 415.184 415.812 415.024C415.644 414.864 415.404 414.732 415.092 414.628V416.728ZM424.024 411.436C423.944 411.1 423.804 410.848 423.604 410.68C423.412 410.512 423.132 410.428 422.764 410.428C422.212 410.428 421.804 410.652 421.54 411.1C421.284 411.54 421.152 412.26 421.144 413.26C421.336 412.94 421.616 412.692 421.984 412.516C422.352 412.332 422.752 412.24 423.184 412.24C423.704 412.24 424.164 412.352 424.564 412.576C424.964 412.8 425.276 413.128 425.5 413.56C425.724 413.984 425.836 414.496 425.836 415.096C425.836 415.664 425.72 416.172 425.488 416.62C425.264 417.06 424.932 417.404 424.492 417.652C424.052 417.9 423.528 418.024 422.92 418.024C422.088 418.024 421.432 417.84 420.952 417.472C420.48 417.104 420.148 416.592 419.956 415.936C419.772 415.272 419.68 414.456 419.68 413.488C419.68 412.024 419.932 410.92 420.436 410.176C420.94 409.424 421.736 409.048 422.824 409.048C423.664 409.048 424.316 409.276 424.78 409.732C425.244 410.188 425.512 410.756 425.584 411.436H424.024ZM422.8 413.62C422.376 413.62 422.02 413.744 421.732 413.992C421.444 414.24 421.3 414.6 421.3 415.072C421.3 415.544 421.432 415.916 421.696 416.188C421.968 416.46 422.348 416.596 422.836 416.596C423.268 416.596 423.608 416.464 423.856 416.2C424.112 415.936 424.24 415.58 424.24 415.132C424.24 414.668 424.116 414.3 423.868 414.028C423.628 413.756 423.272 413.62 422.8 413.62ZM428.099 418.084C427.795 418.084 427.543 417.992 427.343 417.808C427.151 417.616 427.055 417.38 427.055 417.1C427.055 416.82 427.151 416.588 427.343 416.404C427.543 416.212 427.795 416.116 428.099 416.116C428.395 416.116 428.639 416.212 428.831 416.404C429.023 416.588 429.119 416.82 429.119 417.1C429.119 417.38 429.023 417.616 428.831 417.808C428.639 417.992 428.395 418.084 428.099 418.084ZM430.281 413.512C430.281 412.128 430.529 411.044 431.025 410.26C431.529 409.476 432.361 409.084 433.521 409.084C434.681 409.084 435.509 409.476 436.005 410.26C436.509 411.044 436.761 412.128 436.761 413.512C436.761 414.904 436.509 415.996 436.005 416.788C435.509 417.58 434.681 417.976 433.521 417.976C432.361 417.976 431.529 417.58 431.025 416.788C430.529 415.996 430.281 414.904 430.281 413.512ZM435.105 413.512C435.105 412.92 435.065 412.424 434.985 412.024C434.913 411.616 434.761 411.284 434.529 411.028C434.305 410.772 433.969 410.644 433.521 410.644C433.073 410.644 432.733 410.772 432.501 411.028C432.277 411.284 432.125 411.616 432.045 412.024C431.973 412.424 431.937 412.92 431.937 413.512C431.937 414.12 431.973 414.632 432.045 415.048C432.117 415.456 432.269 415.788 432.501 416.044C432.733 416.292 433.073 416.416 433.521 416.416C433.969 416.416 434.309 416.292 434.541 416.044C434.773 415.788 434.925 415.456 434.997 415.048C435.069 414.632 435.105 414.12 435.105 413.512ZM438.038 413.512C438.038 412.128 438.286 411.044 438.782 410.26C439.286 409.476 440.118 409.084 441.278 409.084C442.438 409.084 443.266 409.476 443.762 410.26C444.266 411.044 444.518 412.128 444.518 413.512C444.518 414.904 444.266 415.996 443.762 416.788C443.266 417.58 442.438 417.976 441.278 417.976C440.118 417.976 439.286 417.58 438.782 416.788C438.286 415.996 438.038 414.904 438.038 413.512ZM442.862 413.512C442.862 412.92 442.822 412.424 442.742 412.024C442.67 411.616 442.518 411.284 442.286 411.028C442.062 410.772 441.726 410.644 441.278 410.644C440.83 410.644 440.49 410.772 440.258 411.028C440.034 411.284 439.882 411.616 439.802 412.024C439.73 412.424 439.694 412.92 439.694 413.512C439.694 414.12 439.73 414.632 439.802 415.048C439.874 415.456 440.026 415.788 440.258 416.044C440.49 416.292 440.83 416.416 441.278 416.416C441.726 416.416 442.066 416.292 442.298 416.044C442.53 415.788 442.682 415.456 442.754 415.048C442.826 414.632 442.862 414.12 442.862 413.512ZM445.796 413.512C445.796 412.128 446.044 411.044 446.54 410.26C447.044 409.476 447.876 409.084 449.036 409.084C450.196 409.084 451.024 409.476 451.52 410.26C452.024 411.044 452.276 412.128 452.276 413.512C452.276 414.904 452.024 415.996 451.52 416.788C451.024 417.58 450.196 417.976 449.036 417.976C447.876 417.976 447.044 417.58 446.54 416.788C446.044 415.996 445.796 414.904 445.796 413.512ZM450.62 413.512C450.62 412.92 450.58 412.424 450.5 412.024C450.428 411.616 450.276 411.284 450.044 411.028C449.82 410.772 449.484 410.644 449.036 410.644C448.588 410.644 448.248 410.772 448.016 411.028C447.792 411.284 447.64 411.616 447.56 412.024C447.488 412.424 447.452 412.92 447.452 413.512C447.452 414.12 447.488 414.632 447.56 415.048C447.632 415.456 447.784 415.788 448.016 416.044C448.248 416.292 448.588 416.416 449.036 416.416C449.484 416.416 449.824 416.292 450.056 416.044C450.288 415.788 450.44 415.456 450.512 415.048C450.584 414.632 450.62 414.12 450.62 413.512ZM459.653 412.732H458.489V418H456.785V412.732H456.029V411.352H456.785V411.016C456.785 410.2 457.017 409.6 457.481 409.216C457.945 408.832 458.645 408.652 459.581 408.676V410.092C459.173 410.084 458.889 410.152 458.729 410.296C458.569 410.44 458.489 410.7 458.489 411.076V411.352H459.653V412.732ZM462.422 412.384C462.638 412.032 462.918 411.756 463.262 411.556C463.614 411.356 464.014 411.256 464.462 411.256V413.02H464.018C463.49 413.02 463.09 413.144 462.818 413.392C462.554 413.64 462.422 414.072 462.422 414.688V418H460.742V411.352H462.422V412.384ZM468.546 418.108C467.906 418.108 467.33 417.968 466.818 417.688C466.306 417.4 465.902 416.996 465.606 416.476C465.318 415.956 465.174 415.356 465.174 414.676C465.174 413.996 465.322 413.396 465.618 412.876C465.922 412.356 466.334 411.956 466.854 411.676C467.374 411.388 467.954 411.244 468.594 411.244C469.234 411.244 469.814 411.388 470.334 411.676C470.854 411.956 471.262 412.356 471.558 412.876C471.862 413.396 472.014 413.996 472.014 414.676C472.014 415.356 471.858 415.956 471.546 416.476C471.242 416.996 470.826 417.4 470.298 417.688C469.778 417.968 469.194 418.108 468.546 418.108ZM468.546 416.644C468.85 416.644 469.134 416.572 469.398 416.428C469.67 416.276 469.886 416.052 470.046 415.756C470.206 415.46 470.286 415.1 470.286 414.676C470.286 414.044 470.118 413.56 469.782 413.224C469.454 412.88 469.05 412.708 468.57 412.708C468.09 412.708 467.686 412.88 467.358 413.224C467.038 413.56 466.878 414.044 466.878 414.676C466.878 415.308 467.034 415.796 467.346 416.14C467.666 416.476 468.066 416.644 468.546 416.644ZM481.502 411.256C482.318 411.256 482.974 411.508 483.47 412.012C483.974 412.508 484.226 413.204 484.226 414.1V418H482.546V414.328C482.546 413.808 482.414 413.412 482.15 413.14C481.886 412.86 481.526 412.72 481.07 412.72C480.614 412.72 480.25 412.86 479.978 413.14C479.714 413.412 479.582 413.808 479.582 414.328V418H477.902V414.328C477.902 413.808 477.77 413.412 477.506 413.14C477.242 412.86 476.882 412.72 476.426 412.72C475.962 412.72 475.594 412.86 475.322 413.14C475.058 413.412 474.926 413.808 474.926 414.328V418H473.246V411.352H474.926V412.156C475.142 411.876 475.418 411.656 475.754 411.496C476.098 411.336 476.474 411.256 476.882 411.256C477.402 411.256 477.866 411.368 478.274 411.592C478.682 411.808 478.998 412.12 479.222 412.528C479.438 412.144 479.75 411.836 480.158 411.604C480.574 411.372 481.022 411.256 481.502 411.256ZM494.656 415.588C494.656 416.004 494.548 416.396 494.332 416.764C494.124 417.124 493.812 417.424 493.396 417.664C492.988 417.896 492.504 418.032 491.944 418.072V419.044H491.176V418.06C490.376 417.988 489.732 417.748 489.244 417.34C488.756 416.924 488.504 416.364 488.488 415.66H490.288C490.336 416.236 490.632 416.584 491.176 416.704V414.412C490.6 414.268 490.136 414.124 489.784 413.98C489.432 413.836 489.128 413.604 488.872 413.284C488.616 412.964 488.488 412.528 488.488 411.976C488.488 411.28 488.736 410.712 489.232 410.272C489.736 409.832 490.384 409.58 491.176 409.516V408.544H491.944V409.516C492.712 409.58 493.324 409.812 493.78 410.212C494.244 410.612 494.504 411.164 494.56 411.868H492.748C492.724 411.636 492.64 411.436 492.496 411.268C492.36 411.092 492.176 410.968 491.944 410.896V413.164C492.544 413.316 493.016 413.464 493.36 413.608C493.712 413.744 494.016 413.972 494.272 414.292C494.528 414.604 494.656 415.036 494.656 415.588ZM490.24 411.892C490.24 412.156 490.32 412.372 490.48 412.54C490.64 412.7 490.872 412.832 491.176 412.936V410.86C490.888 410.9 490.66 411.008 490.492 411.184C490.324 411.36 490.24 411.596 490.24 411.892ZM491.944 416.728C492.248 416.672 492.484 416.548 492.652 416.356C492.828 416.164 492.916 415.932 492.916 415.66C492.916 415.396 492.832 415.184 492.664 415.024C492.496 414.864 492.256 414.732 491.944 414.628V416.728ZM496.135 410.8V409.252H499.027V418H497.299V410.8H496.135ZM500.687 413.512C500.687 412.128 500.935 411.044 501.431 410.26C501.935 409.476 502.767 409.084 503.927 409.084C505.087 409.084 505.915 409.476 506.411 410.26C506.915 411.044 507.167 412.128 507.167 413.512C507.167 414.904 506.915 415.996 506.411 416.788C505.915 417.58 505.087 417.976 503.927 417.976C502.767 417.976 501.935 417.58 501.431 416.788C500.935 415.996 500.687 414.904 500.687 413.512ZM505.511 413.512C505.511 412.92 505.471 412.424 505.391 412.024C505.319 411.616 505.167 411.284 504.935 411.028C504.711 410.772 504.375 410.644 503.927 410.644C503.479 410.644 503.139 410.772 502.907 411.028C502.683 411.284 502.531 411.616 502.451 412.024C502.379 412.424 502.343 412.92 502.343 413.512C502.343 414.12 502.379 414.632 502.451 415.048C502.523 415.456 502.675 415.788 502.907 416.044C503.139 416.292 503.479 416.416 503.927 416.416C504.375 416.416 504.715 416.292 504.947 416.044C505.179 415.788 505.331 415.456 505.403 415.048C505.475 414.632 505.511 414.12 505.511 413.512ZM509.381 418.084C509.077 418.084 508.825 417.992 508.625 417.808C508.433 417.616 508.337 417.38 508.337 417.1C508.337 416.82 508.433 416.588 508.625 416.404C508.825 416.212 509.077 416.116 509.381 416.116C509.677 416.116 509.921 416.212 510.113 416.404C510.305 416.588 510.401 416.82 510.401 417.1C510.401 417.38 510.305 417.616 510.113 417.808C509.921 417.992 509.677 418.084 509.381 418.084ZM511.562 413.512C511.562 412.128 511.81 411.044 512.306 410.26C512.81 409.476 513.642 409.084 514.802 409.084C515.962 409.084 516.79 409.476 517.286 410.26C517.79 411.044 518.042 412.128 518.042 413.512C518.042 414.904 517.79 415.996 517.286 416.788C516.79 417.58 515.962 417.976 514.802 417.976C513.642 417.976 512.81 417.58 512.306 416.788C511.81 415.996 511.562 414.904 511.562 413.512ZM516.386 413.512C516.386 412.92 516.346 412.424 516.266 412.024C516.194 411.616 516.042 411.284 515.81 411.028C515.586 410.772 515.25 410.644 514.802 410.644C514.354 410.644 514.014 410.772 513.782 411.028C513.558 411.284 513.406 411.616 513.326 412.024C513.254 412.424 513.218 412.92 513.218 413.512C513.218 414.12 513.254 414.632 513.326 415.048C513.398 415.456 513.55 415.788 513.782 416.044C514.014 416.292 514.354 416.416 514.802 416.416C515.25 416.416 515.59 416.292 515.822 416.044C516.054 415.788 516.206 415.456 516.278 415.048C516.35 414.632 516.386 414.12 516.386 413.512ZM519.32 413.512C519.32 412.128 519.568 411.044 520.064 410.26C520.568 409.476 521.4 409.084 522.56 409.084C523.72 409.084 524.548 409.476 525.044 410.26C525.548 411.044 525.8 412.128 525.8 413.512C525.8 414.904 525.548 415.996 525.044 416.788C524.548 417.58 523.72 417.976 522.56 417.976C521.4 417.976 520.568 417.58 520.064 416.788C519.568 415.996 519.32 414.904 519.32 413.512ZM524.144 413.512C524.144 412.92 524.104 412.424 524.024 412.024C523.952 411.616 523.8 411.284 523.568 411.028C523.344 410.772 523.008 410.644 522.56 410.644C522.112 410.644 521.772 410.772 521.54 411.028C521.316 411.284 521.164 411.616 521.084 412.024C521.012 412.424 520.976 412.92 520.976 413.512C520.976 414.12 521.012 414.632 521.084 415.048C521.156 415.456 521.308 415.788 521.54 416.044C521.772 416.292 522.112 416.416 522.56 416.416C523.008 416.416 523.348 416.292 523.58 416.044C523.812 415.788 523.964 415.456 524.036 415.048C524.108 414.632 524.144 414.12 524.144 413.512ZM527.077 413.512C527.077 412.128 527.325 411.044 527.821 410.26C528.325 409.476 529.157 409.084 530.317 409.084C531.477 409.084 532.305 409.476 532.801 410.26C533.305 411.044 533.557 412.128 533.557 413.512C533.557 414.904 533.305 415.996 532.801 416.788C532.305 417.58 531.477 417.976 530.317 417.976C529.157 417.976 528.325 417.58 527.821 416.788C527.325 415.996 527.077 414.904 527.077 413.512ZM531.901 413.512C531.901 412.92 531.861 412.424 531.781 412.024C531.709 411.616 531.557 411.284 531.325 411.028C531.101 410.772 530.765 410.644 530.317 410.644C529.869 410.644 529.529 410.772 529.297 411.028C529.073 411.284 528.921 411.616 528.841 412.024C528.769 412.424 528.733 412.92 528.733 413.512C528.733 414.12 528.769 414.632 528.841 415.048C528.913 415.456 529.065 415.788 529.297 416.044C529.529 416.292 529.869 416.416 530.317 416.416C530.765 416.416 531.105 416.292 531.337 416.044C531.569 415.788 531.721 415.456 531.793 415.048C531.865 414.632 531.901 414.12 531.901 413.512Z" fill="#60789D"/>
<path d="M395 399.5C395 418.554 379.554 434 360.5 434C341.446 434 326 418.554 326 399.5C326 380.446 341.446 365 360.5 365C379.554 365 395 380.446 395 399.5ZM333.243 399.5C333.243 414.554 345.446 426.757 360.5 426.757C375.554 426.757 387.757 414.554 387.757 399.5C387.757 384.446 375.554 372.243 360.5 372.243C345.446 372.243 333.243 384.446 333.243 399.5Z" fill="#EDEFFE"/>
<path d="M338.666 421.334C337.251 422.749 337.241 425.059 338.795 426.317C342.31 429.162 346.359 431.295 350.718 432.584C356.237 434.216 362.078 434.441 367.706 433.239C373.335 432.037 378.574 429.445 382.945 425.701C387.316 421.956 390.681 417.177 392.733 411.8C394.785 406.422 395.459 400.617 394.694 394.912C393.928 389.208 391.748 383.785 388.351 379.139C384.954 374.492 380.448 370.769 375.245 368.31C371.136 366.367 366.694 365.261 362.178 365.041C360.18 364.944 358.649 366.674 358.762 368.671C358.874 370.667 360.59 372.17 362.584 372.323C365.891 372.577 369.133 373.432 372.149 374.858C376.26 376.801 379.82 379.742 382.504 383.413C385.187 387.084 386.91 391.368 387.515 395.875C388.12 400.382 387.587 404.969 385.966 409.218C384.345 413.466 381.686 417.242 378.233 420.2C374.779 423.158 370.64 425.206 366.193 426.156C361.746 427.105 357.132 426.928 352.772 425.638C349.572 424.692 346.584 423.17 343.95 421.157C342.36 419.943 340.08 419.92 338.666 421.334Z" fill="url(#paint1_linear_54_572)"/>
<path d="M349 410.68H373V386.68H349V410.68Z" fill="black"/>
<circle cx="603" cy="399" r="16" fill="#EAEBF8"/>
<path d="M597.667 399H608.333" stroke="#2D33BF" stroke-width="2" stroke-linecap="round" stroke-linejoin="round"/>
<path d="M603.667 394.333L608.333 399L603.667 403.667" stroke="#2D33BF" stroke-width="2" stroke-linecap="round" stroke-linejoin="round"/>
<defs>
<filter id="filter0_d_54_572" x="387.871" y="177.503" width="40.9724" height="40.9724" filterUnits="userSpaceOnUse" color-interpolation-filters="sRGB">
<feFlood flood-opacity="0" result="BackgroundImageFix"/>
<feColorMatrix in="SourceAlpha" type="matrix" values="0 0 0 0 0 0 0 0 0 0 0 0 0 0 0 0 0 0 127 0" result="hardAlpha"/>
<feOffset dy="3.03499"/>
<feGaussianBlur stdDeviation="5.69061"/>
<feComposite in2="hardAlpha" operator="out"/>
<feColorMatrix type="matrix" values="0 0 0 0 0.364706 0 0 0 0 0.831373 0 0 0 0 0.145098 0 0 0 0.3 0"/>
<feBlend mode="normal" in2="BackgroundImageFix" result="effect1_dropShadow_54_572"/>
<feBlend mode="normal" in="SourceGraphic" in2="effect1_dropShadow_54_572" result="shape"/>
</filter>
<filter id="filter1_d_54_572" x="0" y="0" width="203" height="216" filterUnits="userSpaceOnUse" color-interpolation-filters="sRGB">
<feFlood flood-opacity="0" result="BackgroundImageFix"/>
<feColorMatrix in="SourceAlpha" type="matrix" values="0 0 0 0 0 0 0 0 0 0 0 0 0 0 0 0 0 0 127 0" result="hardAlpha"/>
<feOffset dy="2"/>
<feGaussianBlur stdDeviation="2"/>
<feComposite in2="hardAlpha" operator="out"/>
<feColorMatrix type="matrix" values="0 0 0 0 0 0 0 0 0 0 0 0 0 0 0 0 0 0 0.25 0"/>
<feBlend mode="normal" in2="BackgroundImageFix" result="effect1_dropShadow_54_572"/>
<feBlend mode="normal" in="SourceGraphic" in2="effect1_dropShadow_54_572" result="shape"/>
</filter>
<filter id="filter2_d_54_572" x="131.294" y="79.4546" width="40.0884" height="36.2983" filterUnits="userSpaceOnUse" color-interpolation-filters="sRGB">
<feFlood flood-opacity="0" result="BackgroundImageFix"/>
<feColorMatrix in="SourceAlpha" type="matrix" values="0 0 0 0 0 0 0 0 0 0 0 0 0 0 0 0 0 0 127 0" result="hardAlpha"/>
<feOffset dx="1" dy="1"/>
<feGaussianBlur stdDeviation="7.5"/>
<feComposite in2="hardAlpha" operator="out"/>
<feColorMatrix type="matrix" values="0 0 0 0 0.820833 0 0 0 0 0.0376216 0 0 0 0 0.364269 0 0 0 1 0"/>
<feBlend mode="normal" in2="BackgroundImageFix" result="effect1_dropShadow_54_572"/>
<feBlend mode="normal" in="SourceGraphic" in2="effect1_dropShadow_54_572" result="shape"/>
</filter>
<filter id="filter3_d_54_572" x="133.701" y="71.6038" width="112.299" height="60" filterUnits="userSpaceOnUse" color-interpolation-filters="sRGB">
<feFlood flood-opacity="0" result="BackgroundImageFix"/>
<feColorMatrix in="SourceAlpha" type="matrix" values="0 0 0 0 0 0 0 0 0 0 0 0 0 0 0 0 0 0 127 0" result="hardAlpha"/>
<feOffset dy="5"/>
<feGaussianBlur stdDeviation="10"/>
<feComposite in2="hardAlpha" operator="out"/>
<feColorMatrix type="matrix" values="0 0 0 0 0.913725 0 0 0 0 0.0862745 0 0 0 0 0.435294 0 0 0 0.1 0"/>
<feBlend mode="normal" in2="BackgroundImageFix" result="effect1_dropShadow_54_572"/>
<feBlend mode="normal" in="SourceGraphic" in2="effect1_dropShadow_54_572" result="shape"/>
</filter>
<linearGradient id="paint0_linear_54_572" x1="348.718" y1="146.067" x2="348.718" y2="320.122" gradientUnits="userSpaceOnUse">
<stop stop-color="#5DD425" stop-opacity="0.44"/>
<stop offset="1" stop-color="#5DD425" stop-opacity="0"/>
</linearGradient>
<linearGradient id="paint1_linear_54_572" x1="361" y1="372.5" x2="308.5" y2="467.5" gradientUnits="userSpaceOnUse">
<stop stop-color="#119DF9"/>
<stop offset="1" stop-color="#29CEF9"/>
</linearGradient>
<clipPath id="clip0_54_572">
<rect x="178" y="74" width="341" height="315" rx="24" fill="white"/>
</clipPath>
</defs>
</svg>
