<svg width="200" height="200" viewBox="0 0 200 200" fill="none" xmlns="http://www.w3.org/2000/svg">
<path d="M194.91 116.87C190.96 117.67 183.28 117.26 181 116.96C180.93 116.16 181.05 108.49 180.95 106.76C180.95 106.67 180.8 106.62 180.8 106.62C175.143 106.222 169.469 106.109 163.8 106.28C163.8 99.5601 163.8 92.7601 163.65 85.9701C163.651 85.9453 163.646 85.9206 163.635 85.898C163.625 85.8754 163.609 85.8556 163.59 85.8401C163.571 85.8245 163.548 85.8138 163.523 85.8086C163.499 85.8034 163.474 85.8039 163.45 85.8101C153.04 85.4501 145.45 85.6001 145.39 85.7101C145.28 86.4301 145.1 93.1701 145.16 94.7101C142.105 91.3513 138.413 88.6322 134.3 86.7101C133.325 86.3965 132.416 85.9049 131.62 85.2601C131.393 85.0575 131.221 84.801 131.12 84.5144C131.019 84.2277 130.991 83.9202 131.04 83.6201C131.91 80.3001 137.1 78.6201 138.62 77.4701C139.558 76.8438 140.362 76.038 140.987 75.0992C141.612 74.1603 142.044 73.107 142.26 72.0001C142.319 70.9318 142.016 69.8747 141.4 69.0001C140.75 68.0001 141.78 67.8101 142.49 67.1901C141.833 67.2005 141.185 67.3505 140.59 67.6301C140.818 67.2678 140.948 66.8524 140.968 66.4247C140.987 65.9969 140.895 65.5715 140.7 65.1901C140.75 65.5101 140.721 65.8375 140.617 66.1441C140.512 66.4507 140.335 66.7273 140.1 66.9501C140.155 66.1376 139.909 65.3333 139.41 64.6901C136.84 61.3401 131.41 60.6201 127.48 60.4001C127.58 52.4001 127.48 31.5401 127.48 29.2201C136.48 29.6201 145.48 30.0601 154.56 30.4201C153.92 44.5101 153.76 58.6901 154.17 72.8501C154.171 72.8744 154.178 72.898 154.191 72.9189C154.203 72.9398 154.22 72.9575 154.241 72.9703C154.261 72.983 154.285 72.9906 154.309 72.9923C154.333 72.9941 154.358 72.9899 154.38 72.9801C158.92 73.1501 170.19 73.5401 171.29 73.5701C171.75 79.7801 171.88 86.1001 171.79 92.4101C171.792 92.4561 171.813 92.4994 171.846 92.531C171.88 92.5626 171.924 92.5802 171.97 92.5801C176.495 92.8704 181.033 92.8904 185.56 92.6401C185.71 92.6401 185.72 92.3901 185.56 92.3901C183.27 92.3901 174.33 92.3901 172.15 92.2401C172.315 85.952 172.141 79.6596 171.63 73.3901C167.52 72.7301 155.74 72.7401 154.47 72.7101C154.19 58.6001 154.26 44.4101 154.91 30.2501C154.91 30.2041 154.892 30.1597 154.861 30.1262C154.829 30.0928 154.786 30.0727 154.74 30.0701C154.64 30.0701 127.35 28.9301 127.25 28.9801C127.214 28.9874 127.181 29.0077 127.159 29.0372C127.137 29.0667 127.127 29.1034 127.13 29.1401V60.4101C125.03 60.6701 125.83 62.5201 125.3 63.5501C125.07 63.9801 124.88 63.8001 124.51 64.0501C123.51 64.7001 123.6 69.0501 123.64 70.2001C122.64 72.7901 121.86 76.5301 123.74 78.5901C124.07 78.9501 124.65 79.2501 124.83 79.7201C124.863 79.8795 124.862 80.0443 124.826 80.2031C124.789 80.3619 124.719 80.511 124.62 80.6401C124.238 81.3469 123.652 81.9224 122.939 82.2916C122.225 82.6608 121.417 82.8066 120.62 82.7101C114.34 82.2101 111.71 83.1801 110.34 83.5701C106.223 85.4368 102.342 87.7866 98.7799 90.5701C98.6125 90.7634 98.5008 90.9986 98.4567 91.2505C98.4127 91.5024 98.438 91.7615 98.5299 92.0001C97.5299 92.4101 96.5299 93.0001 95.5899 93.4701C94.9999 91.5701 92.3199 82.4001 92.1699 82.0001C92.7768 81.6207 93.2924 81.1119 93.6799 80.5101C94.6799 80.5101 94.8999 80.5701 94.9699 80.4201C95.7399 78.7101 96.2399 76.8801 97.0699 75.1901C97.9899 75.1901 107.44 74.7101 111.23 74.3801C111.23 74.3801 116.57 75.3801 116.84 75.4701C116.825 75.679 116.857 75.8886 116.935 76.083C117.013 76.2775 117.134 76.4516 117.289 76.5923C117.444 76.733 117.63 76.8365 117.831 76.8951C118.032 76.9536 118.243 76.9656 118.45 76.9301C119.57 76.8001 120.23 75.7901 120.68 74.8701C121.225 73.826 121.516 72.6679 121.53 71.4901C121.53 69.1901 120.31 68.4101 119.37 68.4901C119.123 68.479 118.88 68.5521 118.68 68.6975C118.48 68.8429 118.335 69.0518 118.27 69.2901C117.59 69.1701 113.34 68.3501 113.27 68.2901C110.91 65.8101 104.79 60.4301 104.79 60.4101C104.63 54.7401 104.84 39.5901 104.9 37.8601C104.897 37.8132 104.878 37.7688 104.844 37.7355C104.811 37.7023 104.767 37.6825 104.72 37.6801C93.2299 37.9001 90.3999 37.3101 90.4099 37.8301C90.5399 40.7201 90.5199 49.4001 90.4699 49.3701C83.0599 44.4601 71.1999 33.2401 71.3999 33.3701C71.2799 32.9801 70.7099 31.4201 70.5399 31.0301C70.5399 30.9701 64.9099 29.2501 63.7199 29.0301C63.1756 29.0236 62.6398 29.1654 62.1699 29.4401C60.6831 30.4431 59.4171 31.7397 58.4499 33.2501C49.5899 45.1301 46.2599 58.8001 48.0999 71.0001C48.291 72.7142 48.7079 74.3954 49.3399 76.0001C49.5925 76.5086 49.9682 76.946 50.4327 77.2726C50.8972 77.5991 51.4359 77.8045 51.9999 77.8701C52.9999 78.0901 57.8499 78.6201 58.9999 78.3401C59.69 77.9295 60.3576 77.4822 60.9999 77.0001C63.9999 77.0601 72.3499 76.6201 73.5499 76.5601C73.2599 82.1601 73.2999 96.5001 73.3599 98.0501C68.6499 97.9501 56.6699 97.9501 55.3599 97.9101C55.3599 95.2101 55.5799 92.2601 55.4599 89.5201C55.2999 89.2701 54.9999 89.2601 54.7399 89.2401C52.4899 89.1101 42.9999 88.8101 40.8499 89.0001C40.4199 89.0001 40.9399 88.8701 40.8499 100.52H24.2999C24.2522 100.52 24.2064 100.539 24.1726 100.573C24.1389 100.607 24.1199 100.652 24.1199 100.7C24.1199 108.23 23.9799 115.83 24.1199 123.42H9.7199C9.68543 123.42 9.65236 123.434 9.62798 123.458C9.6036 123.483 9.5899 123.516 9.5899 123.55C9.5899 123.585 9.6036 123.618 9.62798 123.642C9.65236 123.666 9.68543 123.68 9.7199 123.68C19.4799 123.8 29.2899 123.9 39.0899 123.86C39.2799 123.86 39.3399 124.55 39.2899 111.19C45.2899 111.19 51.2899 111.34 57.3599 111.19C57.3599 115.69 57.2299 120.19 57.2899 124.69C55.518 123.863 53.5045 123.714 51.6299 124.27C47.2699 125.42 48.1199 128.69 47.9999 129.18C47.7799 129.86 47.1399 129.68 46.4099 129.87C45.5799 130.097 44.826 130.543 44.2263 131.16C43.6267 131.777 43.2032 132.544 42.9999 133.38C40.9999 133.29 39.7399 133.38 38.7699 135.11C38.2389 134.505 37.578 134.028 36.8365 133.714C36.0951 133.401 35.2924 133.259 34.4884 133.299C33.6844 133.34 32.8999 133.561 32.1936 133.948C31.4874 134.334 30.8776 134.875 30.4099 135.53C28.6499 134.95 27.0899 136.53 26.3299 138.12C25.0499 140.85 27.1799 142.36 27.3299 142.76L21.7299 142.69C21.5899 142.69 21.5899 142.9 21.7299 142.91C23.6399 142.91 41.6499 143.6 84.7299 142.98C79.9699 153.4 79.3499 170.98 79.0699 182.38C79.6296 182.626 80.2082 182.827 80.7999 182.98C80.7999 183.75 80.8599 184.55 80.8599 185.56C79.9699 186.07 77.1799 187.73 77.0299 187.92C76.8799 188.11 76.7599 188.82 77.2099 188.92C79.3949 188.978 81.5814 188.918 83.7599 188.74C83.6307 186.905 83.8686 185.062 84.4599 183.32C85.7028 183.341 86.9456 183.277 88.1799 183.13C94.5299 168.93 95.3799 161.63 97.5499 156.75C99.6999 155.14 105.01 149.43 107.5 147.15C107.889 143.369 107.942 139.561 107.66 135.77C107.66 135.6 107.87 135.45 108.03 135.77C108.35 136.44 108.72 138.87 108.37 145.45C108.23 148.17 107.28 153.67 109.65 160.96C111.765 166.687 115.067 171.901 119.34 176.26L127.61 184.6C128.169 184.499 128.72 184.359 129.26 184.18C129.31 184.24 130.83 186.18 130.91 186.18C130.899 186.737 130.726 187.279 130.412 187.739C130.097 188.2 129.655 188.558 129.14 188.77C128.84 188.89 128.99 189.77 129.22 189.77C130.286 189.83 131.354 189.83 132.42 189.77C133.259 188.823 134.034 187.821 134.74 186.77C134.74 186.61 132.74 183.98 132.38 182.61C132.778 182.341 133.155 182.044 133.51 181.72C129.808 173.206 126.544 164.508 123.73 155.66C125.56 152.47 128.83 146.29 129.29 142.83C151.17 143.83 169.68 145.1 191.03 142.96C191.19 142.96 191.19 142.7 191.03 142.71L188.5 142.93C187.926 141.399 187.022 140.012 185.852 138.87C184.682 137.727 183.275 136.857 181.73 136.32C179.26 135.51 178.81 136.45 178.07 135.44C177.105 133.963 175.678 132.846 174.013 132.264C172.347 131.681 170.535 131.666 168.86 132.22C169.22 128.29 166.39 124.61 161.98 125.11C162.467 123.564 162.397 121.895 161.782 120.395C161.166 118.895 160.043 117.658 158.61 116.9C158.975 115.744 159.018 114.51 158.734 113.331C158.451 112.153 157.851 111.074 157 110.21C156.547 109.609 155.922 109.159 155.207 108.922C154.493 108.684 153.723 108.67 153 108.88C151.961 106.985 150.684 105.231 149.2 103.66C149.53 103.233 149.834 102.785 150.11 102.32C148.873 99.6176 147.271 97.0975 145.35 94.8301C145.35 94.8301 145.65 86.5501 145.67 85.8301C150.27 85.7301 162.04 86.1001 163.32 86.0801C163.32 91.3601 163.37 104.92 163.42 106.42C163.422 106.451 163.431 106.481 163.448 106.507C163.464 106.534 163.486 106.556 163.513 106.571C163.539 106.587 163.569 106.596 163.6 106.598C163.631 106.599 163.662 106.593 163.69 106.58C171.99 106.32 178.76 106.82 180.64 106.85C180.64 108.59 180.33 116.38 180.64 117.14C180.64 117.23 184.24 117.97 191.43 117.61C192.21 117.53 195.58 117.44 194.91 116.87ZM83.5099 185.47C82.7199 185.38 81.9234 185.36 81.1299 185.41C81.1299 185.31 81.0399 183.41 81.0099 183.03C82.0404 183.188 83.0785 183.291 84.1199 183.34C83.9999 183.66 83.5299 185.43 83.5099 185.47ZM132.09 182.83L133.16 184.83C132.84 185.01 131.8 185.68 131.16 186.06C131.16 185.96 129.57 184.06 129.53 184.06C130.41 183.707 131.265 183.297 132.09 182.83ZM120.84 83.2301C121.176 83.2203 121.511 83.1802 121.84 83.1101C122.411 83.0674 122.967 82.9024 123.469 82.6264C123.971 82.3503 124.408 81.9697 124.75 81.5101C127.13 78.0801 122.2 79.9101 123.3 73.3901C123.85 70.7312 124.84 68.1828 126.23 65.8501C127.001 66.833 127.966 67.6466 129.066 68.2401C130.165 68.8337 131.375 69.1945 132.62 69.3001C133.44 69.3001 132.69 71.2201 133.03 72.8701C133.28 74.0401 134.57 73.1801 135.32 73.8701C135.55 74.0928 135.712 74.3767 135.787 74.6885C135.861 75.0002 135.845 75.3268 135.74 75.6295C135.635 75.9323 135.445 76.1987 135.194 76.3972C134.942 76.5958 134.639 76.7182 134.32 76.7501C133.806 77.9523 133.365 79.1846 133 80.4401C131.775 81.2719 130.925 82.5496 130.63 84.0001C130.711 84.475 130.903 84.9241 131.19 85.3114C131.476 85.6987 131.85 86.0134 132.28 86.2301C130.833 87.8135 128.861 88.8189 126.73 89.0601C125.57 89.2592 124.378 89.1417 123.28 88.7201C121.22 87.8101 120.47 85.4301 120.84 83.2301ZM91.7399 81.9301C91.8199 82.4401 94.6699 91.8701 95.2699 93.8501C95.6999 94.2001 97.5899 92.6401 98.5999 92.3501C99.1024 96.2264 100.706 99.8773 103.22 102.87C98.2199 107.01 94.5699 107.54 93.9599 107.56C93.3558 107.587 92.754 107.47 92.2043 107.218C91.6547 106.966 91.1733 106.586 90.7999 106.11C89.3263 104.329 88.4144 102.15 88.1799 99.8501C87.2799 94.1201 87.5599 88.1201 87.6499 82.2701C87.7918 82.3217 87.9461 82.3293 88.0924 82.2919C88.2387 82.2544 88.3703 82.1736 88.4699 82.0601C88.9899 82.9401 89.6499 82.7801 90.0099 82.1901C90.7699 83.2901 91.8299 81.7101 92.0799 80.4401C92.0799 80.4401 92.9199 80.5101 93.3299 80.5201C92.9399 81.2901 91.7099 81.7401 91.7399 81.9301ZM88.8999 78.7601C88.8999 78.6201 89.1999 78.4501 89.3199 78.4401C89.4446 78.4441 89.5636 78.4927 89.6554 78.5772C89.7472 78.6616 89.8056 78.7762 89.8199 78.9001C89.8199 79.0601 90.0599 79.1401 90.1299 78.9901C90.1866 78.8795 90.2686 78.7838 90.3692 78.7108C90.4699 78.6378 90.5863 78.5897 90.7091 78.5702C90.8319 78.5507 90.9575 78.5604 91.0758 78.5987C91.1941 78.6369 91.3017 78.7025 91.3899 78.7901C92.5599 79.7901 90.9999 82.6401 90.3899 82.1801C90.2699 82.0901 90.0699 82.0301 90.1499 81.3301C90.1499 81.1601 89.8899 81.1901 89.8299 81.3301C89.8299 82.1201 89.5199 82.3301 89.2799 82.3301C89.0399 82.3301 88.8799 82.1201 88.7699 81.9601C88.7105 81.7136 88.7105 81.4566 88.7699 81.2101C88.7699 81.0101 88.4899 80.9201 88.4499 81.1301C88.3999 81.385 88.3123 81.631 88.1899 81.8601C88.1529 81.9063 88.1042 81.9417 88.0489 81.9626C87.9935 81.9835 87.9336 81.9891 87.8753 81.9789C87.817 81.9687 87.7626 81.943 87.7177 81.9045C87.6727 81.866 87.639 81.8161 87.6199 81.7601C87.4121 80.7934 87.4465 79.7903 87.7199 78.8401C87.7526 78.7378 87.8145 78.6473 87.898 78.5798C87.9815 78.5122 88.083 78.4706 88.1899 78.4601C88.3399 78.4601 88.5499 78.7101 88.5499 78.7401C88.5799 79.0001 88.9099 79.0001 88.8999 78.7601ZM94.6499 80.1101C93.9299 80.1101 93.0599 80.1101 92.1199 80.1801C92.3299 78.3501 90.7499 77.8301 90.0399 78.5401C89.9765 78.4207 89.8838 78.3194 89.7706 78.2455C89.6574 78.1716 89.5273 78.1276 89.3925 78.1176C89.2577 78.1076 89.1225 78.132 88.9997 78.1884C88.8768 78.2448 88.7702 78.3314 88.6899 78.4401C88.6295 78.3688 88.5555 78.3104 88.4721 78.2681C88.3888 78.2259 88.2979 78.2008 88.2047 78.1943C88.1115 78.1878 88.0179 78.1999 87.9295 78.2301C87.8411 78.2603 87.7596 78.3079 87.6899 78.3701C87.2999 78.6901 87.2699 79.3701 87.2099 80.0101H83.9099C83.7099 79.4301 82.6499 76.7801 82.4599 76.1101L96.5999 75.2401C96.3099 76.0001 95.0599 79.2801 94.6499 80.1101ZM121 72.8901C120.63 74.3001 119.88 76.6401 118 76.5801C117.767 76.5375 117.557 76.4136 117.407 76.2305C117.256 76.0474 117.176 75.8169 117.18 75.5801C117.362 75.608 117.548 75.608 117.73 75.5801C118.54 74.9871 119.16 74.1713 119.516 73.2321C119.871 72.293 119.945 71.2708 119.73 70.2901C119.73 70.1001 119.54 69.5001 119.41 69.4801L118.41 69.3201C119.54 67.8901 121.81 69.3701 121 72.8901ZM90.7599 38.0001C90.8699 38.0001 100.03 38.1201 104.55 38.1001C104.23 45.4201 104.16 52.8401 104.47 60.2301C100.08 56.5901 95.3599 53.0801 90.7299 49.5901C90.7399 49.5001 90.8399 40.0001 90.7599 38.0001ZM50.3599 76.6801C49.3599 75.6301 49.0799 74.0501 48.8199 72.6801C46.6899 61.6801 49.0299 50.1001 54.4599 40.3501C55.3199 38.7901 59.2999 32.1401 62.2999 29.8501C63.5199 28.9101 65.0699 30.1401 65.7599 31.4201C66.9599 33.6501 67.1399 43.4901 66.9199 46.7001C65.1385 46.0382 63.1953 45.9473 61.3599 46.4401C51.9499 49.1401 52.7499 63.5001 63.3599 63.5601C62.6399 65.5601 59.6399 72.8701 54.3599 76.7901C53.791 77.255 53.0738 77.4997 52.3394 77.4795C51.605 77.4593 50.9024 77.1756 50.3599 76.6801ZM58.7799 78.1001C58.5899 78.0401 54.5999 77.9301 53.0799 77.7801C54.4522 77.2987 55.6732 76.464 56.6199 75.3601C62.8799 69.2401 65.7099 59.2301 66.9099 50.5701C67.6969 44.6574 67.5857 38.6596 66.5799 32.7801C66.3612 31.6226 65.8125 30.553 64.9999 29.7001C65.7099 29.9301 70.0799 31.2801 70.3299 31.3001C73.4799 39.3701 73.6899 48.5401 71.7499 57.0201C71.3499 58.6101 70.8299 60.1901 70.3199 61.7501C68.1899 68.5901 64.9299 74.4101 58.7799 78.1001ZM61.2899 76.7701C72.9899 67.5901 75.2899 45.4901 71.5799 33.8601C84.0599 46.9201 100.58 55.6201 113 68.6101C113.08 68.6901 118.3 69.6701 119.35 69.8401C119.621 70.8181 119.598 71.8541 119.285 72.8194C118.972 73.7847 118.383 74.6369 117.59 75.2701C117.15 75.0901 111.31 74.0501 111.23 74.0401C107.93 74.0701 62.7999 76.6901 61.2899 76.7701ZM39.0799 110.82C39.0506 110.82 39.0217 110.828 38.9961 110.842C38.9706 110.857 38.9492 110.877 38.9341 110.903C38.919 110.928 38.9107 110.956 38.91 110.986C38.9092 111.015 38.9161 111.044 38.9299 111.07C38.9299 115.12 38.7899 119.38 38.9299 123.53C35.2499 123.44 25.5199 123.41 24.4999 123.41C24.6199 117.62 24.4999 102.49 24.4999 100.86H41.0299C41.0587 100.861 41.0873 100.854 41.113 100.841C41.1386 100.828 41.1605 100.809 41.1765 100.784C41.1925 100.76 41.2021 100.733 41.2045 100.704C41.2068 100.675 41.2018 100.646 41.1899 100.62C41.2999 96.9701 41.1899 93.1201 41.1099 89.3501C44.7399 89.2101 53.8499 89.6801 54.7799 89.7401C55.4699 89.7401 55.0499 89.2301 55.0699 98.1901C55.0699 98.2701 55.2399 98.3701 55.2799 98.3701C61.2799 98.7901 67.3899 98.3701 73.4999 98.4401C74.1899 98.6701 73.4299 96.6101 73.8399 76.6101L82.1599 76.1401C82.3999 76.8001 83.4699 79.5401 83.6499 80.3001C83.6636 80.3436 83.69 80.382 83.7256 80.4105C83.7612 80.439 83.8045 80.4563 83.8499 80.4601H87.2799C87.1861 81.0541 87.2805 81.6625 87.5499 82.2001C86.6199 96.5701 87.8299 100.2 87.9299 100.56C86.8648 100.22 85.7187 100.23 84.6601 100.59C83.6015 100.951 82.6866 101.641 82.0499 102.56C81.3611 102.057 80.5385 101.769 79.6862 101.734C78.834 101.699 77.9904 101.917 77.2623 102.361C76.5342 102.806 75.9543 103.456 75.5961 104.23C75.2378 105.004 75.1174 105.867 75.2499 106.71C75.2499 107.14 74.8499 107.23 74.4799 107.25C70.3199 107.07 67.6799 110.25 68.2399 113.37C67.6236 113.848 67.1928 114.526 67.0213 115.286C66.8498 116.047 66.9483 116.844 67.2999 117.54C65.9099 118.14 64.2999 119.1 64.2999 120.8C64.248 121.291 64.3873 121.784 64.689 122.175C64.9907 122.566 65.4316 122.826 65.9199 122.9C66.3899 122.96 66.9199 122.9 67.3199 123.23C67.5068 123.612 67.8014 123.931 68.1674 124.148C68.5335 124.365 68.9549 124.47 69.3799 124.45C69.3985 124.764 69.3492 125.079 69.2353 125.372C69.1214 125.665 68.9456 125.931 68.7199 126.15C68.7199 126.15 67.6499 125.9 67.1799 125.72C66.7285 125.551 66.2313 125.551 65.7799 125.72C65.2522 125.925 64.6742 125.962 64.1247 125.826C63.5753 125.69 63.0812 125.387 62.7099 124.96C62.1199 123.96 61.0599 122.27 59.7099 123.36C59.5476 123.502 59.4209 123.68 59.3399 123.88C59.3399 125.69 58.2899 125.12 57.7799 124.88C57.9099 120.26 57.8799 115.65 57.8899 111.03C57.7499 110.76 58.6599 110.78 39.0799 110.82ZM84.9999 142.49C83.5699 142.49 45.3699 142.94 27.6699 142.76C27.3499 141.76 25.9099 140.87 26.4499 138.91C26.9899 136.95 28.6599 135.22 30.5099 135.91C30.5512 135.924 30.5964 135.923 30.6369 135.907C30.6774 135.89 30.7104 135.859 30.7299 135.82C31.1604 135.221 31.718 134.725 32.3628 134.367C33.0076 134.009 33.7237 133.798 34.4596 133.749C35.1956 133.7 35.9332 133.815 36.6196 134.085C37.306 134.355 37.9242 134.773 38.4299 135.31C38.6399 135.49 38.7099 135.76 38.9899 135.39C39.6599 133.78 41.5599 133.55 43.2199 133.72C43.2606 133.718 43.2996 133.703 43.3318 133.678C43.364 133.653 43.3877 133.619 43.3999 133.58C43.5911 132.55 44.1621 131.629 44.9999 131C45.8801 130.448 46.8759 130.105 47.9099 130C48.0617 129.849 48.1796 129.668 48.2555 129.468C48.3313 129.268 48.3635 129.054 48.3499 128.84C48.3142 127.972 48.5693 127.117 49.0747 126.411C49.5801 125.704 50.3069 125.187 51.1399 124.94C54.9299 123.76 58.1399 125.69 58.6499 125.61C59.1599 125.53 59.3699 125.12 59.4199 124.61C59.4199 124.31 59.3699 123.52 60.4199 123.41C61.4699 123.3 61.7999 124.62 62.2699 125.23C62.6272 125.66 63.0974 125.981 63.6274 126.157C64.1575 126.334 64.7263 126.359 65.2699 126.23C65.9599 126.12 66.1799 125.87 66.9299 126.16C67.4789 126.334 68.0459 126.444 68.6199 126.49C68.9511 126.228 69.2096 125.885 69.3707 125.495C69.5317 125.105 69.59 124.679 69.5399 124.26C69.5392 124.237 69.5334 124.215 69.5228 124.195C69.5122 124.175 69.4973 124.157 69.479 124.144C69.4607 124.13 69.4395 124.121 69.4172 124.117C69.3948 124.113 69.3718 124.114 69.3499 124.12C69.0875 124.174 68.8156 124.161 68.56 124.08C68.3045 124 68.0738 123.855 67.8899 123.66C67.5799 123.32 67.4499 122.89 66.9699 122.73C66.4899 122.57 65.9699 122.67 65.5399 122.53C65.2678 122.388 65.0322 122.184 64.8513 121.936C64.6705 121.688 64.5492 121.401 64.497 121.098C64.4448 120.796 64.463 120.485 64.5502 120.191C64.6374 119.896 64.7913 119.626 64.9999 119.4C65.6807 118.625 66.5531 118.042 67.5299 117.71C67.5639 117.691 67.5892 117.66 67.6004 117.622C67.6116 117.585 67.6078 117.545 67.5899 117.51C67.1985 116.861 67.0675 116.087 67.2233 115.345C67.3792 114.603 67.8103 113.947 68.4299 113.51C68.4568 113.494 68.478 113.47 68.4906 113.441C68.5031 113.413 68.5064 113.381 68.4999 113.35C67.8599 110.41 70.4999 107.69 73.4999 107.53C74.8999 107.61 75.8099 107.4 75.4999 105.81C75.5487 105.13 75.7615 104.472 76.1203 103.892C76.4791 103.312 76.973 102.827 77.5599 102.48C78.9999 101.57 80.8199 102.16 82.1799 102.82C82.7915 101.908 83.6832 101.219 84.7205 100.859C85.7578 100.498 86.8843 100.484 87.9299 100.82C87.9899 100.82 89.0599 107.18 93.2499 107.91C93.8099 108.01 96.9999 108.08 103.04 103.63C102.49 105.35 99.9799 114.54 99.5299 117.18C99.4099 117.93 100.02 118.31 100.53 118.65C98.0499 122.48 89.1599 133.58 84.9999 142.49ZM157.51 111.39C158.048 112.207 158.391 113.137 158.513 114.109C158.634 115.08 158.531 116.066 158.21 116.99C158.195 117.033 158.196 117.08 158.212 117.122C158.229 117.164 158.26 117.199 158.3 117.22C163.36 119.94 161.58 125.22 161.58 125.22C160.785 125.411 160.046 125.784 159.42 126.31C159.32 126.41 159.42 126.56 159.58 126.47C160.29 125.915 161.13 125.55 162.021 125.41C162.912 125.27 163.823 125.36 164.67 125.67C165.993 126.205 167.095 127.176 167.793 128.421C168.491 129.666 168.744 131.112 168.51 132.52C174.75 131 177.51 135.21 177.72 135.52C178.36 136.44 178.59 136.32 179.72 136.36C183.46 136.53 186.72 139.61 188.27 142.98C168.73 144.45 149.08 143.28 129.5 142.42C131.058 137.082 131.899 131.56 132 126C132.379 125.935 132.753 125.845 133.12 125.73C133.378 125.26 133.566 124.754 133.68 124.23C134.68 119.1 136.32 113.88 136.68 108.53C137.97 109.718 139.373 110.777 140.87 111.69C140.99 111.75 141.37 111.44 141.49 111.36C142.54 111.989 143.543 112.694 144.49 113.47C146.23 115.29 145.49 117.14 145.95 124.09C146.4 131.49 147.07 133.28 146.86 133.88C146.55 134.67 143.6 135.27 145.95 135.88C146.22 135.88 147.07 135.64 146.95 136.19C146.64 136.7 145.95 137.69 147.07 137.95C147.233 137.968 147.396 137.925 147.53 137.83C147.544 137.998 147.619 138.156 147.74 138.274C147.861 138.391 148.021 138.461 148.19 138.47C148.372 138.478 148.553 138.428 148.705 138.327C148.858 138.227 148.975 138.081 149.04 137.91C149.077 138.013 149.141 138.105 149.226 138.175C149.31 138.245 149.412 138.292 149.52 138.31C150.65 138.23 150.59 136.64 150.88 135.67C151.15 133.79 151.2 131.67 152.25 129.81C154.86 122.81 156.6 115.81 153.25 109.27C154.086 109.132 154.944 109.263 155.7 109.644C156.457 110.025 157.073 110.636 157.46 111.39H157.51ZM151.34 130.86C150.82 132 150.34 136.56 150.22 136.86C150.1 137.16 149.93 138.27 149.34 137.72C149.26 137.545 149.232 137.351 149.26 137.16C149.26 136.97 149 136.98 148.97 137.16C148.97 137.52 148.76 138.03 148.32 138.07C147.58 138.07 147.87 137.14 147.85 137.07C147.841 137.036 147.821 137.005 147.793 136.983C147.765 136.962 147.73 136.95 147.695 136.95C147.659 136.95 147.625 136.962 147.597 136.983C147.569 137.005 147.549 137.036 147.54 137.07C147.54 137.14 147.47 137.83 146.93 137.53C146.7 137.39 146.73 137.16 146.84 136.96C146.95 136.76 147.25 136.47 147.3 136.15C147.318 136.015 147.292 135.877 147.225 135.758C147.158 135.639 147.055 135.545 146.93 135.49C146.6 135.423 146.26 135.423 145.93 135.49C145.78 135.49 145.48 135.49 145.43 135.29C145.38 135.09 145.94 134.99 146.09 134.94C147.81 134.33 147.19 132.94 146.96 131.07C146.49 127.32 146.3 123.44 146.15 119.55V116.15C145.94 113.46 144.24 112.36 141.88 111.15C141.88 111.15 146.8 107.6 149.13 103.94C154.46 110.39 157.28 116.45 151.29 130.86H151.34ZM145.92 96.1101C147.449 97.9986 148.764 100.051 149.84 102.23C148.28 105.23 143.63 109.37 141.03 111.23C139.93 110.67 136.58 108.78 133.64 103.43C133.58 103.32 133.41 103.43 133.47 103.53C134.318 105.163 135.323 106.711 136.47 108.15C136.12 112.77 134.71 117.43 133.8 122.06C133.593 123.176 133.306 124.276 132.94 125.35C129.94 126.08 108.73 123.26 100.55 118.08C100.02 117.76 99.8999 117.61 100.02 116.95C101.02 111.55 104.3 99.4701 108.02 92.0801C108.08 91.9501 107.89 91.8401 107.83 91.9701C106.122 95.3613 104.658 98.8702 103.45 102.47C101.53 99.8601 99.3199 95.8201 99.0199 91.6501C98.8799 90.9901 99.4699 90.6501 99.9199 90.3601C100.37 90.0701 109.58 82.5201 118.05 83.0201C118.74 83.0201 120.51 83.2001 120.72 83.2001C120.468 84.1914 120.512 85.2347 120.846 86.2013C121.18 87.168 121.79 88.0158 122.6 88.6401C124.78 90.1401 129.6 89.8101 132.6 86.3401C137.724 88.519 142.268 91.8645 145.87 96.1101H145.92Z" fill="black"/>
<path d="M126.52 74.8001C126.543 74.7947 126.563 74.7832 126.58 74.767C126.597 74.7508 126.609 74.7304 126.615 74.7079C126.621 74.6854 126.621 74.6616 126.615 74.6392C126.609 74.6167 126.597 74.5963 126.58 74.5801C126.39 74.4101 125.91 74.4201 125.91 74.0701C126.591 73.1763 127.326 72.3248 128.11 71.5201C128.2 71.4201 128.06 71.2601 127.96 71.3601C125.84 73.4901 125.42 73.8001 125.64 74.3601C125.725 74.5137 125.855 74.6379 126.012 74.7164C126.169 74.795 126.346 74.8241 126.52 74.8001ZM125.94 71.1401C126.148 70.9086 126.341 70.6648 126.52 70.4101C126.62 70.2701 126.38 70.0901 126.26 70.2701C126.078 70.5091 125.918 70.7634 125.78 71.0301C125.782 71.0483 125.788 71.0658 125.798 71.0815C125.807 71.0971 125.82 71.1106 125.835 71.121C125.85 71.1314 125.868 71.1384 125.886 71.1417C125.904 71.145 125.922 71.1445 125.94 71.1401ZM129.77 73.2301C129.91 73.2301 131.02 72.4601 130.77 72.2301C130.738 72.1983 130.695 72.1805 130.65 72.1805C130.605 72.1805 130.562 72.1983 130.53 72.2301C130.39 72.4701 129.65 72.8801 129.66 73.2301C129.677 73.2397 129.696 73.2448 129.715 73.2448C129.734 73.2448 129.753 73.2397 129.77 73.2301ZM128.06 78.0701C128.44 78.3501 129.13 77.9101 129.45 77.3701C129.631 77.0148 129.779 76.6431 129.89 76.2601C129.896 76.2434 129.898 76.2256 129.896 76.208C129.895 76.1904 129.89 76.1733 129.882 76.1577C129.874 76.142 129.862 76.1282 129.849 76.1171C129.835 76.106 129.819 76.0979 129.802 76.0931C129.785 76.0883 129.767 76.0871 129.75 76.0894C129.732 76.0918 129.715 76.0977 129.7 76.1068C129.685 76.1158 129.672 76.1279 129.661 76.1422C129.651 76.1566 129.644 76.1728 129.64 76.1901C129.521 76.4543 129.333 76.6813 129.095 76.8469C128.857 77.0124 128.579 77.1103 128.29 77.1301C127.75 77.3001 127.69 77.8201 128.06 78.0701ZM78.69 45.5701C78.6688 45.5568 78.6431 45.5525 78.6188 45.5582C78.5944 45.5638 78.5732 45.5789 78.56 45.6001C78.5467 45.6213 78.5424 45.6469 78.548 45.6713C78.5537 45.6957 78.5688 45.7168 78.59 45.7301C84.31 49.9901 85.59 50.5601 88.91 53.3001C89.02 53.3901 89.18 53.2401 89.07 53.1301C85.7926 50.3684 82.324 47.8421 78.69 45.5701ZM96.72 59.0901C96.86 59.1501 97.01 58.9901 96.89 58.8701C96.77 58.7501 93.89 56.8101 93.29 56.4101C93.15 56.3101 93.02 56.5301 93.16 56.6301C93.74 57.0501 96.39 58.9401 96.72 59.0901ZM34.87 24.8601L32.87 25.3901C36.1 30.0501 41.68 34.5701 45.7 39.2201C46.39 39.3501 40 28.7601 37.53 23.7201L39.2 23.6101C39.242 23.6107 39.2831 23.5987 39.3182 23.5757C39.3533 23.5527 39.3807 23.5196 39.3969 23.4809C39.413 23.4421 39.4172 23.3994 39.4088 23.3583C39.4005 23.3172 39.38 23.2795 39.35 23.2501C35.6783 18.3982 31.4078 14.0302 26.64 10.2501C26.52 10.0001 26.15 10.2501 26.27 10.4601C28.74 15.4701 32.42 20.0001 34.87 24.8601ZM38.8 23.2101L37.2 23.3001C37.1614 23.3002 37.1235 23.3104 37.0902 23.3298C37.0568 23.3491 37.0291 23.3769 37.0098 23.4103C36.9906 23.4437 36.9805 23.4817 36.9805 23.5202C36.9805 23.5588 36.9907 23.5967 37.01 23.6301C39.01 27.7901 44.23 36.8701 44.56 37.4001C41.69 34.4001 34.45 26.5501 33.56 25.6301L35.21 25.2001C35.2405 25.1905 35.2686 25.1744 35.2922 25.1528C35.3159 25.1313 35.3346 25.1048 35.347 25.0753C35.3593 25.0458 35.3651 25.0139 35.3639 24.9819C35.3627 24.9499 35.3545 24.9186 35.34 24.8901C33.34 20.8901 27.41 11.7501 26.97 10.8901C31.65 14.2201 38 22.2301 38.8 23.2101ZM36.63 50.4301C36.6787 50.4397 36.7293 50.4339 36.7746 50.4136C36.8199 50.3932 36.8578 50.3593 36.8831 50.3165C36.9083 50.2737 36.9196 50.2242 36.9155 50.1746C36.9114 50.1251 36.892 50.0781 36.86 50.0401C35.5159 48.2878 33.9494 46.7179 32.2 45.3701C35.46 44.8901 38.78 44.9101 42.04 44.3701C42.26 44.3701 42.22 44.0201 42.04 43.9601L21.77 37.3801C21.7209 37.3589 21.6654 37.358 21.6157 37.3777C21.566 37.3974 21.5262 37.436 21.505 37.4851C21.4838 37.5342 21.4829 37.5896 21.5026 37.6393C21.5223 37.689 21.5609 37.7289 21.61 37.7501C23.5732 38.9417 25.3266 40.4485 26.8 42.2101C19.82 41.5501 5.39998 41.0001 5.27998 41.0001C4.99998 40.9001 4.87998 41.3401 5.15998 41.4401C13.12 44.3401 34.34 49.8301 36.63 50.4301ZM6.22998 41.3101C13.23 41.5301 19.51 42.2501 27.23 42.6301C27.42 42.6301 27.46 42.4201 27.36 42.3001C26.124 40.742 24.6689 39.3711 23.04 38.2301L41.04 44.0801C37.88 44.5101 34.67 44.5001 31.52 45.0201C31.32 45.0201 31.31 45.3401 31.46 45.4301C33.1971 46.6348 34.7299 48.1102 36 49.8001C26.09 47.2001 16 44.8001 6.22998 41.3101ZM41.23 62.6401C37.06 64.7101 26.09 69.3801 24.86 69.8501C24.8102 69.8656 24.7675 69.8983 24.7396 69.9423C24.7116 69.9864 24.7002 70.0389 24.7075 70.0906C24.7147 70.1422 24.74 70.1896 24.7789 70.2243C24.8178 70.2591 24.8678 70.2788 24.92 70.2801H29.76C25.42 74.2801 22.33 77.2801 17.2 80.2801C17.06 80.3601 17.61 80.6301 17.76 80.5601C25.0921 77.0201 32.187 73.0084 39 68.5501C39.32 67.7001 36 68.3501 35.42 68.1701L41.42 62.9801C41.68 62.8101 41.43 62.5401 41.23 62.6401ZM34.74 68.2301C34.71 68.2595 34.6895 68.2972 34.6811 68.3383C34.6728 68.3794 34.6769 68.4221 34.6931 68.4609C34.7092 68.4996 34.7366 68.5327 34.7717 68.5557C34.8068 68.5787 34.848 68.5907 34.89 68.5901H38.22C32.1749 72.5208 25.8967 76.0807 19.42 79.2501C23.4332 76.7006 27.1263 73.679 30.42 70.2501C30.4463 70.2209 30.4638 70.185 30.4707 70.1464C30.4776 70.1077 30.4736 70.0679 30.459 70.0315C30.4444 69.9951 30.4199 69.9634 30.3883 69.9402C30.3566 69.917 30.3191 69.9031 30.28 69.9001H26.04C30.04 68.3301 39.24 64.1301 39.94 63.7901L34.74 68.2301Z" fill="black"/>
</svg>
