<svg width="534" height="315" viewBox="0 0 534 315" fill="none" xmlns="http://www.w3.org/2000/svg">
<g clip-path="url(#clip0_121_138)">
<rect x="193" width="341" height="315" rx="24" fill="white"/>
<path d="M242.159 270.373V276.938C242.159 277.669 241.934 278.255 241.483 278.697C241.033 279.13 240.438 279.347 239.699 279.347C238.951 279.347 238.352 279.126 237.901 278.684C237.451 278.234 237.226 277.622 237.226 276.849H238.386C238.394 277.282 238.505 277.635 238.717 277.907C238.938 278.179 239.265 278.315 239.699 278.315C240.132 278.315 240.455 278.187 240.667 277.932C240.88 277.669 240.986 277.337 240.986 276.938V270.373H242.159ZM244.011 275.74C244.011 275.026 244.155 274.401 244.444 273.866C244.733 273.322 245.128 272.901 245.629 272.604C246.139 272.306 246.704 272.158 247.325 272.158C247.937 272.158 248.468 272.289 248.918 272.553C249.369 272.816 249.704 273.148 249.925 273.547V272.272H251.098V279.258H249.925V277.958C249.696 278.366 249.352 278.705 248.893 278.977C248.442 279.241 247.915 279.373 247.312 279.373C246.692 279.373 246.131 279.22 245.629 278.914C245.128 278.608 244.733 278.179 244.444 277.626C244.155 277.074 244.011 276.445 244.011 275.74ZM249.925 275.752C249.925 275.226 249.819 274.767 249.607 274.376C249.394 273.985 249.105 273.687 248.74 273.483C248.383 273.271 247.988 273.165 247.554 273.165C247.121 273.165 246.726 273.267 246.369 273.471C246.012 273.675 245.727 273.972 245.515 274.363C245.302 274.754 245.196 275.213 245.196 275.74C245.196 276.275 245.302 276.742 245.515 277.142C245.727 277.533 246.012 277.834 246.369 278.047C246.726 278.251 247.121 278.353 247.554 278.353C247.988 278.353 248.383 278.251 248.74 278.047C249.105 277.834 249.394 277.533 249.607 277.142C249.819 276.742 249.925 276.279 249.925 275.752ZM256.462 272.145C257.311 272.145 258 272.404 258.527 272.923C259.054 273.432 259.317 274.172 259.317 275.141V279.258H258.17V275.306C258.17 274.609 257.996 274.078 257.647 273.713C257.299 273.339 256.823 273.152 256.219 273.152C255.608 273.152 255.119 273.343 254.754 273.726C254.397 274.108 254.218 274.665 254.218 275.395V279.258H253.058V272.272H254.218V273.267C254.448 272.91 254.758 272.634 255.149 272.438C255.548 272.243 255.986 272.145 256.462 272.145Z" fill="#60789D"/>
<path d="M300.068 270.373V271.316H296.206V274.312H299.342V275.255H296.206V279.258H295.046V270.373H300.068ZM307.843 275.497C307.843 275.718 307.83 275.952 307.804 276.199H302.221C302.264 276.887 302.498 277.426 302.922 277.817C303.356 278.2 303.878 278.391 304.49 278.391C304.992 278.391 305.408 278.276 305.739 278.047C306.079 277.809 306.317 277.494 306.453 277.104H307.703C307.516 277.775 307.142 278.323 306.581 278.748C306.02 279.164 305.323 279.373 304.49 279.373C303.827 279.373 303.233 279.224 302.706 278.926C302.187 278.629 301.779 278.208 301.482 277.664C301.185 277.112 301.036 276.475 301.036 275.752C301.036 275.03 301.18 274.397 301.469 273.853C301.758 273.309 302.162 272.893 302.68 272.604C303.207 272.306 303.81 272.158 304.49 272.158C305.153 272.158 305.739 272.302 306.249 272.591C306.759 272.88 307.15 273.279 307.422 273.789C307.703 274.291 307.843 274.86 307.843 275.497ZM306.645 275.255C306.645 274.813 306.547 274.435 306.351 274.121C306.156 273.798 305.888 273.556 305.548 273.394C305.217 273.224 304.847 273.139 304.439 273.139C303.853 273.139 303.352 273.326 302.935 273.7C302.527 274.074 302.294 274.592 302.234 275.255H306.645ZM310.534 273.573C310.772 273.156 311.12 272.816 311.579 272.553C312.038 272.289 312.561 272.158 313.147 272.158C313.776 272.158 314.341 272.306 314.842 272.604C315.344 272.901 315.739 273.322 316.028 273.866C316.317 274.401 316.461 275.026 316.461 275.74C316.461 276.445 316.317 277.074 316.028 277.626C315.739 278.179 315.339 278.608 314.83 278.914C314.328 279.22 313.767 279.373 313.147 279.373C312.544 279.373 312.012 279.241 311.554 278.977C311.103 278.714 310.763 278.378 310.534 277.97V279.258H309.374V269.825H310.534V273.573ZM315.276 275.74C315.276 275.213 315.169 274.754 314.957 274.363C314.745 273.972 314.456 273.675 314.09 273.471C313.733 273.267 313.338 273.165 312.905 273.165C312.48 273.165 312.085 273.271 311.719 273.483C311.362 273.687 311.073 273.989 310.853 274.388C310.64 274.779 310.534 275.234 310.534 275.752C310.534 276.279 310.64 276.742 310.853 277.142C311.073 277.533 311.362 277.834 311.719 278.047C312.085 278.251 312.48 278.353 312.905 278.353C313.338 278.353 313.733 278.251 314.09 278.047C314.456 277.834 314.745 277.533 314.957 277.142C315.169 276.742 315.276 276.275 315.276 275.74Z" fill="#60789D"/>
<path d="M362.33 270.437V279.258H361.17V272.68L358.238 279.258H357.422L354.478 272.668V279.258H353.318V270.437H354.567L357.83 277.728L361.094 270.437H362.33ZM363.864 275.74C363.864 275.026 364.008 274.401 364.297 273.866C364.586 273.322 364.981 272.901 365.483 272.604C365.993 272.306 366.558 272.158 367.178 272.158C367.79 272.158 368.321 272.289 368.771 272.553C369.222 272.816 369.558 273.148 369.778 273.547V272.272H370.951V279.258H369.778V277.958C369.549 278.366 369.205 278.705 368.746 278.977C368.296 279.241 367.769 279.373 367.165 279.373C366.545 279.373 365.984 279.22 365.483 278.914C364.981 278.608 364.586 278.179 364.297 277.626C364.008 277.074 363.864 276.445 363.864 275.74ZM369.778 275.752C369.778 275.226 369.672 274.767 369.46 274.376C369.247 273.985 368.958 273.687 368.593 273.483C368.236 273.271 367.841 273.165 367.408 273.165C366.974 273.165 366.579 273.267 366.222 273.471C365.865 273.675 365.58 273.972 365.368 274.363C365.156 274.754 365.049 275.213 365.049 275.74C365.049 276.275 365.156 276.742 365.368 277.142C365.58 277.533 365.865 277.834 366.222 278.047C366.579 278.251 366.974 278.353 367.408 278.353C367.841 278.353 368.236 278.251 368.593 278.047C368.958 277.834 369.247 277.533 369.46 277.142C369.672 276.742 369.778 276.279 369.778 275.752ZM374.071 273.407C374.275 273.008 374.564 272.697 374.938 272.476C375.321 272.255 375.784 272.145 376.328 272.145V273.343H376.022C374.721 273.343 374.071 274.049 374.071 275.459V279.258H372.911V272.272H374.071V273.407Z" fill="#60789D"/>
<path d="M417.752 277.282H413.877L413.163 279.258H411.939L415.152 270.424H416.49L419.69 279.258H418.466L417.752 277.282ZM417.421 276.339L415.815 271.852L414.208 276.339H417.421ZM422.25 273.56C422.479 273.161 422.819 272.829 423.269 272.566C423.728 272.294 424.259 272.158 424.863 272.158C425.483 272.158 426.044 272.306 426.545 272.604C427.055 272.901 427.455 273.322 427.744 273.866C428.032 274.401 428.177 275.026 428.177 275.74C428.177 276.445 428.032 277.074 427.744 277.626C427.455 278.179 427.055 278.608 426.545 278.914C426.044 279.22 425.483 279.373 424.863 279.373C424.268 279.373 423.741 279.241 423.282 278.977C422.832 278.705 422.488 278.37 422.25 277.97V282.572H421.09V272.272H422.25V273.56ZM426.991 275.74C426.991 275.213 426.885 274.754 426.673 274.363C426.46 273.972 426.171 273.675 425.806 273.471C425.449 273.267 425.054 273.165 424.62 273.165C424.196 273.165 423.8 273.271 423.435 273.483C423.078 273.687 422.789 273.989 422.568 274.388C422.356 274.779 422.25 275.234 422.25 275.752C422.25 276.279 422.356 276.742 422.568 277.142C422.789 277.533 423.078 277.834 423.435 278.047C423.8 278.251 424.196 278.353 424.62 278.353C425.054 278.353 425.449 278.251 425.806 278.047C426.171 277.834 426.46 277.533 426.673 277.142C426.885 276.742 426.991 276.275 426.991 275.74ZM430.864 273.407C431.068 273.008 431.357 272.697 431.731 272.476C432.113 272.255 432.576 272.145 433.12 272.145V273.343H432.814C431.514 273.343 430.864 274.049 430.864 275.459V279.258H429.704V272.272H430.864V273.407Z" fill="#60789D"/>
<path d="M478.874 270.437V279.258H477.714V272.68L474.782 279.258H473.966L471.022 272.668V279.258H469.862V270.437H471.111L474.374 277.728L477.637 270.437H478.874ZM480.408 275.74C480.408 275.026 480.552 274.401 480.841 273.866C481.13 273.322 481.525 272.901 482.026 272.604C482.536 272.306 483.101 272.158 483.722 272.158C484.334 272.158 484.865 272.289 485.315 272.553C485.766 272.816 486.101 273.148 486.322 273.547V272.272H487.495V279.258H486.322V277.958C486.093 278.366 485.749 278.705 485.29 278.977C484.839 279.241 484.312 279.373 483.709 279.373C483.089 279.373 482.528 279.22 482.026 278.914C481.525 278.608 481.13 278.179 480.841 277.626C480.552 277.074 480.408 276.445 480.408 275.74ZM486.322 275.752C486.322 275.226 486.216 274.767 486.003 274.376C485.791 273.985 485.502 273.687 485.137 273.483C484.78 273.271 484.385 273.165 483.951 273.165C483.518 273.165 483.123 273.267 482.766 273.471C482.409 273.675 482.124 273.972 481.912 274.363C481.699 274.754 481.593 275.213 481.593 275.74C481.593 276.275 481.699 276.742 481.912 277.142C482.124 277.533 482.409 277.834 482.766 278.047C483.123 278.251 483.518 278.353 483.951 278.353C484.385 278.353 484.78 278.251 485.137 278.047C485.502 277.834 485.791 277.533 486.003 277.142C486.216 276.742 486.322 276.279 486.322 275.752ZM495.472 272.272L491.265 282.547H490.067L491.444 279.181L488.627 272.272H489.914L492.107 277.932L494.273 272.272H495.472Z" fill="#60789D"/>
<path d="M193 188.847L196.794 182.905C200.587 176.963 208.175 165.079 215.762 166.248C223.35 167.416 230.937 181.637 238.525 175.245C246.112 168.852 253.7 141.846 261.287 133.215C268.875 124.584 276.462 134.329 284.05 130.626C291.637 126.923 299.225 109.773 306.812 114.709C314.4 119.645 321.987 146.668 329.575 147.918C337.162 149.167 344.75 124.643 352.337 112.04C359.925 99.436 367.512 98.7528 375.1 105.273C382.687 111.793 390.275 125.516 397.862 126.996C405.449 128.477 413.037 117.715 420.624 119.508C428.212 121.3 435.799 135.648 443.387 143.013C450.974 150.379 458.562 150.764 466.149 148.467C473.737 146.17 481.324 141.19 488.912 127.689C496.499 114.187 504.087 92.1631 511.674 81.4034C519.262 70.6436 526.849 71.1481 530.643 71.4003L534.437 71.6526" stroke="#50B720" stroke-width="1.52493"/>
<path d="M196.794 183.666L193 189.608V246.122H534.437V72.4136L530.643 72.1613C526.849 71.9091 519.262 71.4046 511.674 82.1644C504.087 92.9241 496.499 114.948 488.912 128.45C481.324 141.951 473.737 146.93 466.149 149.228C458.562 151.525 450.974 151.14 443.387 143.774C435.799 136.409 428.212 122.061 420.624 120.269C413.037 118.476 405.449 129.238 397.862 127.757C390.275 126.277 382.687 112.554 375.1 106.034C367.512 99.5138 359.925 100.197 352.337 112.801C344.75 125.404 337.162 149.928 329.575 148.679C321.987 147.429 314.4 120.406 306.812 115.47C299.225 110.534 291.637 127.684 284.05 131.387C276.462 135.09 268.875 125.345 261.287 133.976C253.7 142.607 246.112 169.613 238.525 176.006C230.937 182.398 223.35 168.177 215.762 167.009C208.175 165.84 200.587 177.724 196.794 183.666Z" fill="url(#paint0_linear_121_138)"/>
<line x1="422.901" y1="70.8774" x2="422.901" y2="246.604" stroke="#BEC3E1" stroke-opacity="0.7" stroke-width="0.910498" stroke-dasharray="2.73 2.73"/>
<rect x="397.861" y="88.177" width="48.2564" height="18.21" rx="5.46299" fill="#50B720"/>
<path d="M412.331 99.1965C412.331 99.4696 412.263 99.7264 412.126 99.9667C411.995 100.207 411.798 100.409 411.536 100.573C411.279 100.737 410.973 100.835 410.618 100.868V101.532H410.086V100.868C409.572 100.819 409.157 100.658 408.84 100.385C408.523 100.112 408.365 99.751 408.365 99.303H409.365C409.381 99.516 409.449 99.6936 409.569 99.8356C409.69 99.9722 409.862 100.06 410.086 100.098V98.2951C409.72 98.2022 409.422 98.1093 409.192 98.0165C408.963 97.9181 408.766 97.7652 408.602 97.5576C408.444 97.35 408.365 97.0659 408.365 96.7053C408.365 96.2519 408.523 95.8777 408.84 95.5827C409.157 95.2822 409.572 95.1074 410.086 95.0583V94.3945H410.618V95.0583C411.099 95.102 411.484 95.2549 411.774 95.5171C412.069 95.7739 412.235 96.129 412.274 96.5824H411.274C411.257 96.4131 411.192 96.2628 411.077 96.1317C410.962 95.9952 410.81 95.9023 410.618 95.8531V97.6231C410.984 97.7105 411.282 97.8034 411.512 97.9017C411.741 97.9946 411.935 98.1448 412.093 98.3524C412.252 98.5546 412.331 98.8359 412.331 99.1965ZM409.315 96.6562C409.315 96.8802 409.381 97.055 409.512 97.1806C409.649 97.3063 409.84 97.4073 410.086 97.4838V95.8285C409.851 95.8558 409.662 95.9405 409.52 96.0826C409.384 96.2246 409.315 96.4158 409.315 96.6562ZM410.618 100.098C410.859 100.06 411.047 99.964 411.184 99.811C411.32 99.6526 411.389 99.4641 411.389 99.2456C411.389 99.0271 411.32 98.8578 411.184 98.7376C411.053 98.6119 410.864 98.5109 410.618 98.4344V100.098ZM414.702 97.6969C414.134 97.4128 413.85 96.9648 413.85 96.353C413.85 96.058 413.924 95.7876 414.071 95.5417C414.219 95.2959 414.44 95.102 414.735 94.9599C415.03 94.8124 415.391 94.7387 415.817 94.7387C416.237 94.7387 416.595 94.8124 416.89 94.9599C417.191 95.102 417.415 95.2959 417.562 95.5417C417.71 95.7876 417.783 96.058 417.783 96.353C417.783 96.6589 417.704 96.9293 417.546 97.1642C417.393 97.3937 417.188 97.5712 416.931 97.6969C417.243 97.8116 417.488 98.0001 417.669 98.2623C417.849 98.5191 417.939 98.8222 417.939 99.1719C417.939 99.527 417.849 99.8411 417.669 100.114C417.488 100.387 417.237 100.598 416.915 100.745C416.593 100.893 416.227 100.966 415.817 100.966C415.407 100.966 415.041 100.893 414.719 100.745C414.402 100.598 414.153 100.387 413.973 100.114C413.793 99.8411 413.703 99.527 413.703 99.1719C413.703 98.8168 413.793 98.5109 413.973 98.2541C414.153 97.9973 414.396 97.8116 414.702 97.6969ZM416.89 96.4677C416.89 96.1618 416.795 95.9269 416.603 95.763C416.412 95.5991 416.15 95.5171 415.817 95.5171C415.489 95.5171 415.23 95.5991 415.038 95.763C414.847 95.9269 414.752 96.1645 414.752 96.4759C414.752 96.749 414.85 96.973 415.047 97.1478C415.249 97.3172 415.505 97.4019 415.817 97.4019C416.128 97.4019 416.385 97.3145 416.587 97.1396C416.789 96.9648 416.89 96.7408 416.89 96.4677ZM415.817 98.1066C415.456 98.1066 415.161 98.1967 414.932 98.377C414.708 98.5518 414.596 98.8059 414.596 99.1391C414.596 99.4505 414.705 99.7045 414.924 99.9012C415.142 100.092 415.44 100.188 415.817 100.188C416.188 100.188 416.481 100.09 416.694 99.893C416.912 99.6963 417.021 99.445 417.021 99.1391C417.021 98.8113 416.909 98.5573 416.685 98.377C416.467 98.1967 416.177 98.1066 415.817 98.1066ZM419.42 100.876C419.251 100.876 419.108 100.819 418.994 100.704C418.879 100.59 418.822 100.447 418.822 100.278C418.822 100.109 418.879 99.9667 418.994 99.852C419.108 99.7373 419.251 99.6799 419.42 99.6799C419.584 99.6799 419.723 99.7373 419.838 99.852C419.953 99.9667 420.01 100.109 420.01 100.278C420.01 100.447 419.953 100.59 419.838 100.704C419.723 100.819 419.584 100.876 419.42 100.876ZM422.06 99.1965C422.115 99.4696 422.232 99.6772 422.413 99.8192C422.593 99.9613 422.836 100.032 423.142 100.032C423.53 100.032 423.814 99.8793 423.994 99.5734C424.174 99.2675 424.265 98.7458 424.265 98.0083C424.133 98.194 423.948 98.3388 423.707 98.4426C423.472 98.5409 423.216 98.5901 422.937 98.5901C422.582 98.5901 422.26 98.5191 421.97 98.377C421.681 98.2295 421.451 98.0137 421.282 97.7297C421.118 97.4401 421.036 97.0905 421.036 96.6808C421.036 96.0798 421.211 95.6018 421.56 95.2467C421.915 94.8862 422.402 94.7059 423.019 94.7059C423.762 94.7059 424.289 94.9545 424.601 95.4516C424.917 95.9433 425.076 96.6999 425.076 97.7215C425.076 98.4262 425.016 99.0025 424.896 99.4505C424.781 99.8985 424.579 100.237 424.289 100.467C424 100.696 423.598 100.811 423.085 100.811C422.5 100.811 422.049 100.658 421.732 100.352C421.416 100.046 421.238 99.6608 421.2 99.1965H422.06ZM423.101 97.8034C423.429 97.8034 423.685 97.7023 423.871 97.5002C424.062 97.2926 424.158 97.0195 424.158 96.6808C424.158 96.3038 424.057 96.0115 423.855 95.8039C423.658 95.5909 423.388 95.4844 423.044 95.4844C422.699 95.4844 422.426 95.5936 422.224 95.8121C422.027 96.0252 421.929 96.3065 421.929 96.6562C421.929 96.9894 422.025 97.2653 422.216 97.4838C422.413 97.6969 422.708 97.8034 423.101 97.8034ZM426.098 97.7542C426.098 96.8091 426.257 96.0716 426.573 95.5417C426.896 95.0064 427.448 94.7387 428.229 94.7387C429.01 94.7387 429.559 95.0064 429.876 95.5417C430.198 96.0716 430.359 96.8091 430.359 97.7542C430.359 98.7103 430.198 99.4587 429.876 99.9995C429.559 100.535 429.01 100.803 428.229 100.803C427.448 100.803 426.896 100.535 426.573 99.9995C426.257 99.4587 426.098 98.7103 426.098 97.7542ZM429.442 97.7542C429.442 97.3117 429.411 96.9375 429.351 96.6316C429.297 96.3257 429.182 96.0771 429.007 95.8859C428.832 95.6892 428.573 95.5909 428.229 95.5909C427.885 95.5909 427.625 95.6892 427.45 95.8859C427.275 96.0771 427.158 96.3257 427.098 96.6316C427.043 96.9375 427.016 97.3117 427.016 97.7542C427.016 98.2131 427.043 98.5983 427.098 98.9097C427.153 99.221 427.267 99.4723 427.442 99.6635C427.622 99.8548 427.885 99.9504 428.229 99.9504C428.573 99.9504 428.832 99.8548 429.007 99.6635C429.188 99.4723 429.305 99.221 429.36 98.9097C429.414 98.5983 429.442 98.2131 429.442 97.7542ZM431.348 97.7542C431.348 96.8091 431.506 96.0716 431.823 95.5417C432.145 95.0064 432.697 94.7387 433.478 94.7387C434.26 94.7387 434.809 95.0064 435.125 95.5417C435.448 96.0716 435.609 96.8091 435.609 97.7542C435.609 98.7103 435.448 99.4587 435.125 99.9995C434.809 100.535 434.26 100.803 433.478 100.803C432.697 100.803 432.145 100.535 431.823 99.9995C431.506 99.4587 431.348 98.7103 431.348 97.7542ZM434.691 97.7542C434.691 97.3117 434.661 96.9375 434.601 96.6316C434.546 96.3257 434.432 96.0771 434.257 95.8859C434.082 95.6892 433.823 95.5909 433.478 95.5909C433.134 95.5909 432.875 95.6892 432.7 95.8859C432.525 96.0771 432.408 96.3257 432.348 96.6316C432.293 96.9375 432.266 97.3117 432.266 97.7542C432.266 98.2131 432.293 98.5983 432.348 98.9097C432.402 99.221 432.517 99.4723 432.692 99.6635C432.872 99.8548 433.134 99.9504 433.478 99.9504C433.823 99.9504 434.082 99.8548 434.257 99.6635C434.437 99.4723 434.555 99.221 434.609 98.9097C434.664 98.5983 434.691 98.2131 434.691 97.7542Z" fill="white"/>
<g filter="url(#filter0_d_121_138)">
<circle cx="423.357" cy="120.955" r="9.10498" fill="white"/>
</g>
<circle cx="423.357" cy="120.955" r="6.06999" fill="#FEA41D"/>
<path d="M292.828 28.832L289.052 36.112V40H286.812V36.112L283.02 28.832H285.548L287.948 33.936L290.332 28.832H292.828ZM298.056 40.144C297.202 40.144 296.434 39.9573 295.752 39.584C295.069 39.2 294.53 38.6613 294.136 37.968C293.752 37.2747 293.56 36.4747 293.56 35.568C293.56 34.6613 293.757 33.8613 294.152 33.168C294.557 32.4747 295.106 31.9413 295.8 31.568C296.493 31.184 297.266 30.992 298.12 30.992C298.973 30.992 299.746 31.184 300.44 31.568C301.133 31.9413 301.677 32.4747 302.072 33.168C302.477 33.8613 302.68 34.6613 302.68 35.568C302.68 36.4747 302.472 37.2747 302.056 37.968C301.65 38.6613 301.096 39.2 300.392 39.584C299.698 39.9573 298.92 40.144 298.056 40.144ZM298.056 38.192C298.461 38.192 298.84 38.096 299.192 37.904C299.554 37.7013 299.842 37.4027 300.056 37.008C300.269 36.6133 300.376 36.1333 300.376 35.568C300.376 34.7253 300.152 34.08 299.704 33.632C299.266 33.1733 298.728 32.944 298.088 32.944C297.448 32.944 296.909 33.1733 296.472 33.632C296.045 34.08 295.832 34.7253 295.832 35.568C295.832 36.4107 296.04 37.0613 296.456 37.52C296.882 37.968 297.416 38.192 298.056 38.192ZM312.691 31.136V40H310.435V38.88C310.147 39.264 309.768 39.568 309.299 39.792C308.84 40.0053 308.339 40.112 307.795 40.112C307.101 40.112 306.488 39.968 305.955 39.68C305.421 39.3813 305 38.9493 304.691 38.384C304.392 37.808 304.243 37.1253 304.243 36.336V31.136H306.483V36.016C306.483 36.72 306.659 37.264 307.011 37.648C307.363 38.0213 307.843 38.208 308.451 38.208C309.069 38.208 309.555 38.0213 309.907 37.648C310.259 37.264 310.435 36.72 310.435 36.016V31.136H312.691ZM317.141 32.512C317.429 32.0427 317.802 31.6747 318.261 31.408C318.73 31.1413 319.264 31.008 319.861 31.008V33.36H319.269C318.565 33.36 318.032 33.5253 317.669 33.856C317.317 34.1867 317.141 34.7627 317.141 35.584V40H314.901V31.136H317.141V32.512ZM327.422 28.832V40H325.182V28.832H327.422ZM334.547 31.008C335.603 31.008 336.457 31.344 337.107 32.016C337.758 32.6773 338.083 33.6053 338.083 34.8V40H335.843V35.104C335.843 34.4 335.667 33.8613 335.315 33.488C334.963 33.104 334.483 32.912 333.875 32.912C333.257 32.912 332.766 33.104 332.403 33.488C332.051 33.8613 331.875 34.4 331.875 35.104V40H329.635V31.136H331.875V32.24C332.174 31.856 332.553 31.5573 333.011 31.344C333.481 31.12 333.993 31.008 334.547 31.008ZM339.637 35.568C339.637 34.6507 339.824 33.8507 340.197 33.168C340.571 32.4747 341.088 31.9413 341.749 31.568C342.411 31.184 343.168 30.992 344.021 30.992C345.12 30.992 346.027 31.2693 346.741 31.824C347.467 32.368 347.952 33.136 348.197 34.128H345.781C345.653 33.744 345.435 33.4453 345.125 33.232C344.827 33.008 344.453 32.896 344.005 32.896C343.365 32.896 342.859 33.1307 342.485 33.6C342.112 34.0587 341.925 34.7147 341.925 35.568C341.925 36.4107 342.112 37.0667 342.485 37.536C342.859 37.9947 343.365 38.224 344.005 38.224C344.912 38.224 345.504 37.8187 345.781 37.008H348.197C347.952 37.968 347.467 38.7307 346.741 39.296C346.016 39.8613 345.109 40.144 344.021 40.144C343.168 40.144 342.411 39.9573 341.749 39.584C341.088 39.2 340.571 38.6667 340.197 37.984C339.824 37.2907 339.637 36.4853 339.637 35.568ZM353.774 40.144C352.921 40.144 352.153 39.9573 351.47 39.584C350.788 39.2 350.249 38.6613 349.854 37.968C349.47 37.2747 349.278 36.4747 349.278 35.568C349.278 34.6613 349.476 33.8613 349.87 33.168C350.276 32.4747 350.825 31.9413 351.518 31.568C352.212 31.184 352.985 30.992 353.838 30.992C354.692 30.992 355.465 31.184 356.158 31.568C356.852 31.9413 357.396 32.4747 357.79 33.168C358.196 33.8613 358.398 34.6613 358.398 35.568C358.398 36.4747 358.19 37.2747 357.774 37.968C357.369 38.6613 356.814 39.2 356.11 39.584C355.417 39.9573 354.638 40.144 353.774 40.144ZM353.774 38.192C354.18 38.192 354.558 38.096 354.91 37.904C355.273 37.7013 355.561 37.4027 355.774 37.008C355.988 36.6133 356.094 36.1333 356.094 35.568C356.094 34.7253 355.87 34.08 355.422 33.632C354.985 33.1733 354.446 32.944 353.806 32.944C353.166 32.944 352.628 33.1733 352.19 33.632C351.764 34.08 351.55 34.7253 351.55 35.568C351.55 36.4107 351.758 37.0613 352.174 37.52C352.601 37.968 353.134 38.192 353.774 38.192ZM371.05 31.008C372.138 31.008 373.012 31.344 373.674 32.016C374.346 32.6773 374.682 33.6053 374.682 34.8V40H372.442V35.104C372.442 34.4107 372.266 33.8827 371.914 33.52C371.562 33.1467 371.082 32.96 370.474 32.96C369.866 32.96 369.38 33.1467 369.018 33.52C368.666 33.8827 368.49 34.4107 368.49 35.104V40H366.25V35.104C366.25 34.4107 366.074 33.8827 365.722 33.52C365.37 33.1467 364.89 32.96 364.282 32.96C363.663 32.96 363.172 33.1467 362.81 33.52C362.458 33.8827 362.282 34.4107 362.282 35.104V40H360.042V31.136H362.282V32.208C362.57 31.8347 362.938 31.5413 363.386 31.328C363.844 31.1147 364.346 31.008 364.89 31.008C365.583 31.008 366.202 31.1573 366.746 31.456C367.29 31.744 367.711 32.16 368.01 32.704C368.298 32.192 368.714 31.7813 369.258 31.472C369.812 31.1627 370.41 31.008 371.05 31.008ZM385.047 35.376C385.047 35.696 385.026 35.984 384.983 36.24H378.503C378.556 36.88 378.78 37.3813 379.175 37.744C379.57 38.1067 380.055 38.288 380.631 38.288C381.463 38.288 382.055 37.9307 382.407 37.216H384.823C384.567 38.0693 384.076 38.7733 383.351 39.328C382.626 39.872 381.735 40.144 380.679 40.144C379.826 40.144 379.058 39.9573 378.375 39.584C377.703 39.2 377.175 38.6613 376.791 37.968C376.418 37.2747 376.231 36.4747 376.231 35.568C376.231 34.6507 376.418 33.8453 376.791 33.152C377.164 32.4587 377.687 31.9253 378.359 31.552C379.031 31.1787 379.804 30.992 380.679 30.992C381.522 30.992 382.274 31.1733 382.935 31.536C383.607 31.8987 384.124 32.416 384.487 33.088C384.86 33.7493 385.047 34.512 385.047 35.376ZM382.727 34.736C382.716 34.16 382.508 33.7013 382.103 33.36C381.698 33.008 381.202 32.832 380.615 32.832C380.06 32.832 379.591 33.0027 379.207 33.344C378.834 33.6747 378.604 34.1387 378.519 34.736H382.727ZM391.631 30.08C391.236 30.08 390.905 29.9573 390.639 29.712C390.383 29.456 390.255 29.1413 390.255 28.768C390.255 28.3947 390.383 28.0853 390.639 27.84C390.905 27.584 391.236 27.456 391.631 27.456C392.025 27.456 392.351 27.584 392.607 27.84C392.873 28.0853 393.007 28.3947 393.007 28.768C393.007 29.1413 392.873 29.456 392.607 29.712C392.351 29.9573 392.025 30.08 391.631 30.08ZM392.735 31.136V40H390.495V31.136H392.735ZM399.86 31.008C400.916 31.008 401.769 31.344 402.42 32.016C403.07 32.6773 403.396 33.6053 403.396 34.8V40H401.156V35.104C401.156 34.4 400.98 33.8613 400.628 33.488C400.276 33.104 399.796 32.912 399.188 32.912C398.569 32.912 398.078 33.104 397.716 33.488C397.364 33.8613 397.188 34.4 397.188 35.104V40H394.948V31.136H397.188V32.24C397.486 31.856 397.865 31.5573 398.324 31.344C398.793 31.12 399.305 31.008 399.86 31.008ZM421.514 28.832V40H419.274V32.736L416.282 40H414.586L411.578 32.736V40H409.338V28.832H411.882L415.434 37.136L418.986 28.832H421.514ZM423.153 35.536C423.153 34.64 423.329 33.8453 423.681 33.152C424.044 32.4587 424.529 31.9253 425.137 31.552C425.756 31.1787 426.444 30.992 427.201 30.992C427.862 30.992 428.438 31.1253 428.929 31.392C429.43 31.6587 429.83 31.9947 430.129 32.4V31.136H432.385V40H430.129V38.704C429.841 39.12 429.441 39.4667 428.929 39.744C428.428 40.0107 427.846 40.144 427.185 40.144C426.438 40.144 425.756 39.952 425.137 39.568C424.529 39.184 424.044 38.6453 423.681 37.952C423.329 37.248 423.153 36.4427 423.153 35.536ZM430.129 35.568C430.129 35.024 430.022 34.56 429.809 34.176C429.596 33.7813 429.308 33.4827 428.945 33.28C428.582 33.0667 428.193 32.96 427.777 32.96C427.361 32.96 426.977 33.0613 426.625 33.264C426.273 33.4667 425.985 33.7653 425.761 34.16C425.548 34.544 425.441 35.0027 425.441 35.536C425.441 36.0693 425.548 36.5387 425.761 36.944C425.985 37.3387 426.273 37.6427 426.625 37.856C426.988 38.0693 427.372 38.176 427.777 38.176C428.193 38.176 428.582 38.0747 428.945 37.872C429.308 37.6587 429.596 37.36 429.809 36.976C430.022 36.5813 430.129 36.112 430.129 35.568ZM443.053 31.136L437.565 44.192H435.181L437.101 39.776L433.549 31.136H436.061L438.349 37.328L440.669 31.136H443.053Z" fill="#0A0E63"/>
</g>
<rect y="72" width="341" height="101" rx="24" fill="white"/>
<path d="M109.56 110.4C109.56 109.301 109.805 108.32 110.296 107.456C110.797 106.581 111.475 105.904 112.328 105.424C113.192 104.933 114.157 104.688 115.224 104.688C116.472 104.688 117.565 105.008 118.504 105.648C119.443 106.288 120.099 107.173 120.472 108.304H117.896C117.64 107.771 117.277 107.371 116.808 107.104C116.349 106.837 115.816 106.704 115.208 106.704C114.557 106.704 113.976 106.859 113.464 107.168C112.963 107.467 112.568 107.893 112.28 108.448C112.003 109.003 111.864 109.653 111.864 110.4C111.864 111.136 112.003 111.787 112.28 112.352C112.568 112.907 112.963 113.339 113.464 113.648C113.976 113.947 114.557 114.096 115.208 114.096C115.816 114.096 116.349 113.963 116.808 113.696C117.277 113.419 117.64 113.013 117.896 112.48H120.472C120.099 113.621 119.443 114.512 118.504 115.152C117.576 115.781 116.483 116.096 115.224 116.096C114.157 116.096 113.192 115.856 112.328 115.376C111.475 114.885 110.797 114.208 110.296 113.344C109.805 112.48 109.56 111.499 109.56 110.4ZM130.753 107.136V116H128.497V114.88C128.209 115.264 127.831 115.568 127.361 115.792C126.903 116.005 126.401 116.112 125.857 116.112C125.164 116.112 124.551 115.968 124.017 115.68C123.484 115.381 123.063 114.949 122.753 114.384C122.455 113.808 122.305 113.125 122.305 112.336V107.136H124.545V112.016C124.545 112.72 124.721 113.264 125.073 113.648C125.425 114.021 125.905 114.208 126.513 114.208C127.132 114.208 127.617 114.021 127.969 113.648C128.321 113.264 128.497 112.72 128.497 112.016V107.136H130.753ZM135.203 108.512C135.491 108.043 135.865 107.675 136.323 107.408C136.793 107.141 137.326 107.008 137.923 107.008V109.36H137.331C136.627 109.36 136.094 109.525 135.731 109.856C135.379 110.187 135.203 110.763 135.203 111.584V116H132.963V107.136H135.203V108.512ZM141.672 108.512C141.96 108.043 142.333 107.675 142.792 107.408C143.261 107.141 143.795 107.008 144.392 107.008V109.36H143.8C143.096 109.36 142.563 109.525 142.2 109.856C141.848 110.187 141.672 110.763 141.672 111.584V116H139.432V107.136H141.672V108.512ZM154.141 111.376C154.141 111.696 154.12 111.984 154.077 112.24H147.597C147.65 112.88 147.874 113.381 148.269 113.744C148.664 114.107 149.149 114.288 149.725 114.288C150.557 114.288 151.149 113.931 151.501 113.216H153.917C153.661 114.069 153.17 114.773 152.445 115.328C151.72 115.872 150.829 116.144 149.773 116.144C148.92 116.144 148.152 115.957 147.469 115.584C146.797 115.2 146.269 114.661 145.885 113.968C145.512 113.275 145.325 112.475 145.325 111.568C145.325 110.651 145.512 109.845 145.885 109.152C146.258 108.459 146.781 107.925 147.453 107.552C148.125 107.179 148.898 106.992 149.773 106.992C150.616 106.992 151.368 107.173 152.029 107.536C152.701 107.899 153.218 108.416 153.581 109.088C153.954 109.749 154.141 110.512 154.141 111.376ZM151.821 110.736C151.81 110.16 151.602 109.701 151.197 109.36C150.792 109.008 150.296 108.832 149.709 108.832C149.154 108.832 148.685 109.003 148.301 109.344C147.928 109.675 147.698 110.139 147.613 110.736H151.821ZM160.688 107.008C161.744 107.008 162.597 107.344 163.248 108.016C163.899 108.677 164.224 109.605 164.224 110.8V116H161.984V111.104C161.984 110.4 161.808 109.861 161.456 109.488C161.104 109.104 160.624 108.912 160.016 108.912C159.397 108.912 158.907 109.104 158.544 109.488C158.192 109.861 158.016 110.4 158.016 111.104V116H155.776V107.136H158.016V108.24C158.315 107.856 158.693 107.557 159.152 107.344C159.621 107.12 160.133 107.008 160.688 107.008ZM168.962 108.976V113.264C168.962 113.563 169.031 113.781 169.17 113.92C169.319 114.048 169.565 114.112 169.906 114.112H170.946V116H169.538C167.65 116 166.706 115.083 166.706 113.248V108.976H165.65V107.136H166.706V104.944H168.962V107.136H170.946V108.976H168.962ZM184.514 108.288C184.514 108.885 184.37 109.445 184.082 109.968C183.804 110.491 183.362 110.912 182.754 111.232C182.156 111.552 181.399 111.712 180.482 111.712H178.61V116H176.37V104.832H180.482C181.346 104.832 182.082 104.981 182.69 105.28C183.298 105.579 183.751 105.989 184.05 106.512C184.359 107.035 184.514 107.627 184.514 108.288ZM180.386 109.904C181.004 109.904 181.463 109.765 181.762 109.488C182.06 109.2 182.21 108.8 182.21 108.288C182.21 107.2 181.602 106.656 180.386 106.656H178.61V109.904H180.386ZM188.344 108.512C188.632 108.043 189.005 107.675 189.464 107.408C189.933 107.141 190.467 107.008 191.064 107.008V109.36H190.472C189.768 109.36 189.235 109.525 188.872 109.856C188.52 110.187 188.344 110.763 188.344 111.584V116H186.104V107.136H188.344V108.512ZM196.509 116.144C195.655 116.144 194.887 115.957 194.205 115.584C193.522 115.2 192.983 114.661 192.589 113.968C192.205 113.275 192.013 112.475 192.013 111.568C192.013 110.661 192.21 109.861 192.605 109.168C193.01 108.475 193.559 107.941 194.253 107.568C194.946 107.184 195.719 106.992 196.573 106.992C197.426 106.992 198.199 107.184 198.893 107.568C199.586 107.941 200.13 108.475 200.525 109.168C200.93 109.861 201.133 110.661 201.133 111.568C201.133 112.475 200.925 113.275 200.509 113.968C200.103 114.661 199.549 115.2 198.845 115.584C198.151 115.957 197.373 116.144 196.509 116.144ZM196.509 114.192C196.914 114.192 197.293 114.096 197.645 113.904C198.007 113.701 198.295 113.403 198.509 113.008C198.722 112.613 198.829 112.133 198.829 111.568C198.829 110.725 198.605 110.08 198.157 109.632C197.719 109.173 197.181 108.944 196.541 108.944C195.901 108.944 195.362 109.173 194.925 109.632C194.498 110.08 194.285 110.725 194.285 111.568C194.285 112.411 194.493 113.061 194.909 113.52C195.335 113.968 195.869 114.192 196.509 114.192ZM206.84 108.976H205.288V116H203.016V108.976H202.008V107.136H203.016V106.688C203.016 105.6 203.325 104.8 203.944 104.288C204.563 103.776 205.496 103.536 206.744 103.568V105.456C206.2 105.445 205.821 105.536 205.608 105.728C205.395 105.92 205.288 106.267 205.288 106.768V107.136H206.84V108.976ZM209.428 106.08C209.033 106.08 208.702 105.957 208.436 105.712C208.18 105.456 208.052 105.141 208.052 104.768C208.052 104.395 208.18 104.085 208.436 103.84C208.702 103.584 209.033 103.456 209.428 103.456C209.822 103.456 210.148 103.584 210.404 103.84C210.67 104.085 210.804 104.395 210.804 104.768C210.804 105.141 210.67 105.456 210.404 105.712C210.148 105.957 209.822 106.08 209.428 106.08ZM210.532 107.136V116H208.292V107.136H210.532ZM215.353 108.976V113.264C215.353 113.563 215.422 113.781 215.561 113.92C215.71 114.048 215.955 114.112 216.297 114.112H217.337V116H215.929C214.041 116 213.097 115.083 213.097 113.248V108.976H212.041V107.136H213.097V104.944H215.353V107.136H217.337V108.976H215.353Z" fill="#0A0E63"/>
<path d="M115.804 138.588C115.804 139.004 115.696 139.396 115.48 139.764C115.272 140.124 114.96 140.424 114.544 140.664C114.136 140.896 113.652 141.032 113.092 141.072V142.044H112.324V141.06C111.524 140.988 110.88 140.748 110.392 140.34C109.904 139.924 109.652 139.364 109.636 138.66H111.436C111.484 139.236 111.78 139.584 112.324 139.704V137.412C111.748 137.268 111.284 137.124 110.932 136.98C110.58 136.836 110.276 136.604 110.02 136.284C109.764 135.964 109.636 135.528 109.636 134.976C109.636 134.28 109.884 133.712 110.38 133.272C110.884 132.832 111.532 132.58 112.324 132.516V131.544H113.092V132.516C113.86 132.58 114.472 132.812 114.928 133.212C115.392 133.612 115.652 134.164 115.708 134.868H113.896C113.872 134.636 113.788 134.436 113.644 134.268C113.508 134.092 113.324 133.968 113.092 133.896V136.164C113.692 136.316 114.164 136.464 114.508 136.608C114.86 136.744 115.164 136.972 115.42 137.292C115.676 137.604 115.804 138.036 115.804 138.588ZM111.388 134.892C111.388 135.156 111.468 135.372 111.628 135.54C111.788 135.7 112.02 135.832 112.324 135.936V133.86C112.036 133.9 111.808 134.008 111.64 134.184C111.472 134.36 111.388 134.596 111.388 134.892ZM113.092 139.728C113.396 139.672 113.632 139.548 113.8 139.356C113.976 139.164 114.064 138.932 114.064 138.66C114.064 138.396 113.98 138.184 113.812 138.024C113.644 137.864 113.404 137.732 113.092 137.628V139.728ZM123.056 133.524L119.864 141H118.16L121.376 133.716H117.272V132.276H123.056V133.524ZM124.998 141.084C124.694 141.084 124.442 140.992 124.242 140.808C124.05 140.616 123.954 140.38 123.954 140.1C123.954 139.82 124.05 139.588 124.242 139.404C124.442 139.212 124.694 139.116 124.998 139.116C125.294 139.116 125.538 139.212 125.73 139.404C125.922 139.588 126.018 139.82 126.018 140.1C126.018 140.38 125.922 140.616 125.73 140.808C125.538 140.992 125.294 141.084 124.998 141.084ZM127.179 136.512C127.179 135.128 127.427 134.044 127.923 133.26C128.427 132.476 129.259 132.084 130.419 132.084C131.579 132.084 132.407 132.476 132.903 133.26C133.407 134.044 133.659 135.128 133.659 136.512C133.659 137.904 133.407 138.996 132.903 139.788C132.407 140.58 131.579 140.976 130.419 140.976C129.259 140.976 128.427 140.58 127.923 139.788C127.427 138.996 127.179 137.904 127.179 136.512ZM132.003 136.512C132.003 135.92 131.963 135.424 131.883 135.024C131.811 134.616 131.659 134.284 131.427 134.028C131.203 133.772 130.867 133.644 130.419 133.644C129.971 133.644 129.631 133.772 129.399 134.028C129.175 134.284 129.023 134.616 128.943 135.024C128.871 135.424 128.835 135.92 128.835 136.512C128.835 137.12 128.871 137.632 128.943 138.048C129.015 138.456 129.167 138.788 129.399 139.044C129.631 139.292 129.971 139.416 130.419 139.416C130.867 139.416 131.207 139.292 131.439 139.044C131.671 138.788 131.823 138.456 131.895 138.048C131.967 137.632 132.003 137.12 132.003 136.512ZM134.937 136.512C134.937 135.128 135.185 134.044 135.681 133.26C136.185 132.476 137.017 132.084 138.177 132.084C139.337 132.084 140.165 132.476 140.661 133.26C141.165 134.044 141.417 135.128 141.417 136.512C141.417 137.904 141.165 138.996 140.661 139.788C140.165 140.58 139.337 140.976 138.177 140.976C137.017 140.976 136.185 140.58 135.681 139.788C135.185 138.996 134.937 137.904 134.937 136.512ZM139.761 136.512C139.761 135.92 139.721 135.424 139.641 135.024C139.569 134.616 139.417 134.284 139.185 134.028C138.961 133.772 138.625 133.644 138.177 133.644C137.729 133.644 137.389 133.772 137.157 134.028C136.933 134.284 136.781 134.616 136.701 135.024C136.629 135.424 136.593 135.92 136.593 136.512C136.593 137.12 136.629 137.632 136.701 138.048C136.773 138.456 136.925 138.788 137.157 139.044C137.389 139.292 137.729 139.416 138.177 139.416C138.625 139.416 138.965 139.292 139.197 139.044C139.429 138.788 139.581 138.456 139.653 138.048C139.725 137.632 139.761 137.12 139.761 136.512ZM142.695 136.512C142.695 135.128 142.943 134.044 143.439 133.26C143.943 132.476 144.775 132.084 145.935 132.084C147.095 132.084 147.923 132.476 148.419 133.26C148.923 134.044 149.175 135.128 149.175 136.512C149.175 137.904 148.923 138.996 148.419 139.788C147.923 140.58 147.095 140.976 145.935 140.976C144.775 140.976 143.943 140.58 143.439 139.788C142.943 138.996 142.695 137.904 142.695 136.512ZM147.519 136.512C147.519 135.92 147.479 135.424 147.399 135.024C147.327 134.616 147.175 134.284 146.943 134.028C146.719 133.772 146.383 133.644 145.935 133.644C145.487 133.644 145.147 133.772 144.915 134.028C144.691 134.284 144.539 134.616 144.459 135.024C144.387 135.424 144.351 135.92 144.351 136.512C144.351 137.12 144.387 137.632 144.459 138.048C144.531 138.456 144.683 138.788 144.915 139.044C145.147 139.292 145.487 139.416 145.935 139.416C146.383 139.416 146.723 139.292 146.955 139.044C147.187 138.788 147.339 138.456 147.411 138.048C147.483 137.632 147.519 137.12 147.519 136.512ZM156.552 135.732H155.388V141H153.684V135.732H152.928V134.352H153.684V134.016C153.684 133.2 153.916 132.6 154.38 132.216C154.844 131.832 155.544 131.652 156.48 131.676V133.092C156.072 133.084 155.788 133.152 155.628 133.296C155.468 133.44 155.388 133.7 155.388 134.076V134.352H156.552V135.732ZM159.321 135.384C159.537 135.032 159.817 134.756 160.161 134.556C160.513 134.356 160.913 134.256 161.361 134.256V136.02H160.917C160.389 136.02 159.989 136.144 159.717 136.392C159.453 136.64 159.321 137.072 159.321 137.688V141H157.641V134.352H159.321V135.384ZM165.444 141.108C164.804 141.108 164.228 140.968 163.716 140.688C163.204 140.4 162.8 139.996 162.504 139.476C162.216 138.956 162.072 138.356 162.072 137.676C162.072 136.996 162.22 136.396 162.516 135.876C162.82 135.356 163.232 134.956 163.752 134.676C164.272 134.388 164.852 134.244 165.492 134.244C166.132 134.244 166.712 134.388 167.232 134.676C167.752 134.956 168.16 135.356 168.456 135.876C168.76 136.396 168.912 136.996 168.912 137.676C168.912 138.356 168.756 138.956 168.444 139.476C168.14 139.996 167.724 140.4 167.196 140.688C166.676 140.968 166.092 141.108 165.444 141.108ZM165.444 139.644C165.748 139.644 166.032 139.572 166.296 139.428C166.568 139.276 166.784 139.052 166.944 138.756C167.104 138.46 167.184 138.1 167.184 137.676C167.184 137.044 167.016 136.56 166.68 136.224C166.352 135.88 165.948 135.708 165.468 135.708C164.988 135.708 164.584 135.88 164.256 136.224C163.936 136.56 163.776 137.044 163.776 137.676C163.776 138.308 163.932 138.796 164.244 139.14C164.564 139.476 164.964 139.644 165.444 139.644ZM178.4 134.256C179.216 134.256 179.872 134.508 180.368 135.012C180.872 135.508 181.124 136.204 181.124 137.1V141H179.444V137.328C179.444 136.808 179.312 136.412 179.048 136.14C178.784 135.86 178.424 135.72 177.968 135.72C177.512 135.72 177.148 135.86 176.876 136.14C176.612 136.412 176.48 136.808 176.48 137.328V141H174.8V137.328C174.8 136.808 174.668 136.412 174.404 136.14C174.14 135.86 173.78 135.72 173.324 135.72C172.86 135.72 172.492 135.86 172.22 136.14C171.956 136.412 171.824 136.808 171.824 137.328V141H170.144V134.352H171.824V135.156C172.04 134.876 172.316 134.656 172.652 134.496C172.996 134.336 173.372 134.256 173.78 134.256C174.3 134.256 174.764 134.368 175.172 134.592C175.58 134.808 175.896 135.12 176.12 135.528C176.336 135.144 176.648 134.836 177.056 134.604C177.472 134.372 177.92 134.256 178.4 134.256ZM191.554 138.588C191.554 139.004 191.446 139.396 191.23 139.764C191.022 140.124 190.71 140.424 190.294 140.664C189.886 140.896 189.402 141.032 188.842 141.072V142.044H188.074V141.06C187.274 140.988 186.63 140.748 186.142 140.34C185.654 139.924 185.402 139.364 185.386 138.66H187.186C187.234 139.236 187.53 139.584 188.074 139.704V137.412C187.498 137.268 187.034 137.124 186.682 136.98C186.33 136.836 186.026 136.604 185.77 136.284C185.514 135.964 185.386 135.528 185.386 134.976C185.386 134.28 185.634 133.712 186.13 133.272C186.634 132.832 187.282 132.58 188.074 132.516V131.544H188.842V132.516C189.61 132.58 190.222 132.812 190.678 133.212C191.142 133.612 191.402 134.164 191.458 134.868H189.646C189.622 134.636 189.538 134.436 189.394 134.268C189.258 134.092 189.074 133.968 188.842 133.896V136.164C189.442 136.316 189.914 136.464 190.258 136.608C190.61 136.744 190.914 136.972 191.17 137.292C191.426 137.604 191.554 138.036 191.554 138.588ZM187.138 134.892C187.138 135.156 187.218 135.372 187.378 135.54C187.538 135.7 187.77 135.832 188.074 135.936V133.86C187.786 133.9 187.558 134.008 187.39 134.184C187.222 134.36 187.138 134.596 187.138 134.892ZM188.842 139.728C189.146 139.672 189.382 139.548 189.55 139.356C189.726 139.164 189.814 138.932 189.814 138.66C189.814 138.396 189.73 138.184 189.562 138.024C189.394 137.864 189.154 137.732 188.842 137.628V139.728ZM193.034 133.8V132.252H195.926V141H194.198V133.8H193.034ZM198.113 139.104C198.881 138.464 199.493 137.932 199.949 137.508C200.405 137.076 200.785 136.628 201.089 136.164C201.393 135.7 201.545 135.244 201.545 134.796C201.545 134.388 201.449 134.068 201.257 133.836C201.065 133.604 200.769 133.488 200.369 133.488C199.969 133.488 199.661 133.624 199.445 133.896C199.229 134.16 199.117 134.524 199.109 134.988H197.477C197.509 134.028 197.793 133.3 198.329 132.804C198.873 132.308 199.561 132.06 200.393 132.06C201.305 132.06 202.005 132.304 202.493 132.792C202.981 133.272 203.225 133.908 203.225 134.7C203.225 135.324 203.057 135.92 202.721 136.488C202.385 137.056 202.001 137.552 201.569 137.976C201.137 138.392 200.573 138.896 199.877 139.488H203.417V140.88H197.489V139.632L198.113 139.104ZM205.412 141.084C205.108 141.084 204.856 140.992 204.656 140.808C204.464 140.616 204.368 140.38 204.368 140.1C204.368 139.82 204.464 139.588 204.656 139.404C204.856 139.212 205.108 139.116 205.412 139.116C205.708 139.116 205.952 139.212 206.144 139.404C206.336 139.588 206.432 139.82 206.432 140.1C206.432 140.38 206.336 140.616 206.144 140.808C205.952 140.992 205.708 141.084 205.412 141.084ZM207.593 136.512C207.593 135.128 207.841 134.044 208.337 133.26C208.841 132.476 209.673 132.084 210.833 132.084C211.993 132.084 212.821 132.476 213.317 133.26C213.821 134.044 214.073 135.128 214.073 136.512C214.073 137.904 213.821 138.996 213.317 139.788C212.821 140.58 211.993 140.976 210.833 140.976C209.673 140.976 208.841 140.58 208.337 139.788C207.841 138.996 207.593 137.904 207.593 136.512ZM212.417 136.512C212.417 135.92 212.377 135.424 212.297 135.024C212.225 134.616 212.073 134.284 211.841 134.028C211.617 133.772 211.281 133.644 210.833 133.644C210.385 133.644 210.045 133.772 209.813 134.028C209.589 134.284 209.437 134.616 209.357 135.024C209.285 135.424 209.249 135.92 209.249 136.512C209.249 137.12 209.285 137.632 209.357 138.048C209.429 138.456 209.581 138.788 209.813 139.044C210.045 139.292 210.385 139.416 210.833 139.416C211.281 139.416 211.621 139.292 211.853 139.044C212.085 138.788 212.237 138.456 212.309 138.048C212.381 137.632 212.417 137.12 212.417 136.512ZM215.351 136.512C215.351 135.128 215.599 134.044 216.095 133.26C216.599 132.476 217.431 132.084 218.591 132.084C219.751 132.084 220.579 132.476 221.075 133.26C221.579 134.044 221.831 135.128 221.831 136.512C221.831 137.904 221.579 138.996 221.075 139.788C220.579 140.58 219.751 140.976 218.591 140.976C217.431 140.976 216.599 140.58 216.095 139.788C215.599 138.996 215.351 137.904 215.351 136.512ZM220.175 136.512C220.175 135.92 220.135 135.424 220.055 135.024C219.983 134.616 219.831 134.284 219.599 134.028C219.375 133.772 219.039 133.644 218.591 133.644C218.143 133.644 217.803 133.772 217.571 134.028C217.347 134.284 217.195 134.616 217.115 135.024C217.043 135.424 217.007 135.92 217.007 136.512C217.007 137.12 217.043 137.632 217.115 138.048C217.187 138.456 217.339 138.788 217.571 139.044C217.803 139.292 218.143 139.416 218.591 139.416C219.039 139.416 219.379 139.292 219.611 139.044C219.843 138.788 219.995 138.456 220.067 138.048C220.139 137.632 220.175 137.12 220.175 136.512ZM223.109 136.512C223.109 135.128 223.357 134.044 223.853 133.26C224.357 132.476 225.189 132.084 226.349 132.084C227.509 132.084 228.337 132.476 228.833 133.26C229.337 134.044 229.589 135.128 229.589 136.512C229.589 137.904 229.337 138.996 228.833 139.788C228.337 140.58 227.509 140.976 226.349 140.976C225.189 140.976 224.357 140.58 223.853 139.788C223.357 138.996 223.109 137.904 223.109 136.512ZM227.933 136.512C227.933 135.92 227.893 135.424 227.813 135.024C227.741 134.616 227.589 134.284 227.357 134.028C227.133 133.772 226.797 133.644 226.349 133.644C225.901 133.644 225.561 133.772 225.329 134.028C225.105 134.284 224.953 134.616 224.873 135.024C224.801 135.424 224.765 135.92 224.765 136.512C224.765 137.12 224.801 137.632 224.873 138.048C224.945 138.456 225.097 138.788 225.329 139.044C225.561 139.292 225.901 139.416 226.349 139.416C226.797 139.416 227.137 139.292 227.369 139.044C227.601 138.788 227.753 138.456 227.825 138.048C227.897 137.632 227.933 137.12 227.933 136.512Z" fill="#60789D"/>
<path d="M93 122.5C93 141.554 77.5538 157 58.5 157C39.4462 157 24 141.554 24 122.5C24 103.446 39.4462 88 58.5 88C77.5538 88 93 103.446 93 122.5ZM31.2431 122.5C31.2431 137.554 43.4464 149.757 58.5 149.757C73.5536 149.757 85.7569 137.554 85.7569 122.5C85.7569 107.446 73.5536 95.2431 58.5 95.2431C43.4464 95.2431 31.2431 107.446 31.2431 122.5Z" fill="#EDEFFE"/>
<path d="M31.1118 108.239C29.3377 107.316 27.1312 108 26.3985 109.861C24.084 115.739 23.4196 122.165 24.5141 128.434C25.8172 135.897 29.5405 142.724 35.1093 147.86C40.6781 152.996 47.7828 156.157 55.3266 156.854C62.8703 157.551 70.4338 155.745 76.8493 151.716C83.2648 147.686 88.1756 141.657 90.8237 134.559C93.4718 127.461 93.71 119.689 91.5014 112.442C89.2927 105.195 84.7602 98.877 78.6034 94.4625C73.4315 90.7541 67.3551 88.5625 61.0548 88.0947C59.0601 87.9466 57.4856 89.6371 57.5473 91.6363C57.609 93.6354 59.2861 95.1811 61.2758 95.3848C65.9821 95.8666 70.5044 97.5679 74.3828 100.349C79.247 103.837 82.8279 108.828 84.5729 114.554C86.3178 120.279 86.1297 126.42 84.0375 132.027C81.9453 137.635 78.0655 142.399 72.9969 145.582C67.9283 148.765 61.9528 150.192 55.9928 149.641C50.0328 149.091 44.4197 146.594 40.0201 142.536C35.6204 138.478 32.6788 133.084 31.6493 127.188C30.8285 122.487 31.2597 117.674 32.8694 113.226C33.5499 111.345 32.8858 109.163 31.1118 108.239Z" fill="url(#paint1_linear_121_138)"/>
<circle cx="301" cy="122" r="16" fill="#EAEBF8"/>
<path d="M295.667 122H306.333" stroke="#2D33BF" stroke-width="2" stroke-linecap="round" stroke-linejoin="round"/>
<path d="M301.667 117.333L306.333 122L301.667 126.667" stroke="#2D33BF" stroke-width="2" stroke-linecap="round" stroke-linejoin="round"/>
<defs>
<filter id="filter0_d_121_138" x="402.871" y="103.503" width="40.9724" height="40.9724" filterUnits="userSpaceOnUse" color-interpolation-filters="sRGB">
<feFlood flood-opacity="0" result="BackgroundImageFix"/>
<feColorMatrix in="SourceAlpha" type="matrix" values="0 0 0 0 0 0 0 0 0 0 0 0 0 0 0 0 0 0 127 0" result="hardAlpha"/>
<feOffset dy="3.03499"/>
<feGaussianBlur stdDeviation="5.69061"/>
<feComposite in2="hardAlpha" operator="out"/>
<feColorMatrix type="matrix" values="0 0 0 0 0.364706 0 0 0 0 0.831373 0 0 0 0 0.145098 0 0 0 0.3 0"/>
<feBlend mode="normal" in2="BackgroundImageFix" result="effect1_dropShadow_121_138"/>
<feBlend mode="normal" in="SourceGraphic" in2="effect1_dropShadow_121_138" result="shape"/>
</filter>
<linearGradient id="paint0_linear_121_138" x1="363.718" y1="72.0674" x2="363.718" y2="246.122" gradientUnits="userSpaceOnUse">
<stop stop-color="#5DD425" stop-opacity="0.44"/>
<stop offset="1" stop-color="#5DD425" stop-opacity="0"/>
</linearGradient>
<linearGradient id="paint1_linear_121_138" x1="59" y1="95.5" x2="6.5" y2="190.5" gradientUnits="userSpaceOnUse">
<stop stop-color="#FE6789"/>
<stop offset="1" stop-color="#FFD031" stop-opacity="0.8"/>
</linearGradient>
<clipPath id="clip0_121_138">
<rect x="193" width="341" height="315" rx="24" fill="white"/>
</clipPath>
</defs>
</svg>
